<svg width="147" height="338" viewBox="0 0 147 338" fill="none" xmlns="http://www.w3.org/2000/svg">
<path opacity="0.1" d="M75.7354 1.17261C99.2014 1.17261 116.693 8.17381 128.413 21.5417C139.961 34.7135 145.971 54.1418 146.479 79.363L146.5 80.5691V257.386C146.148 283.165 140.125 302.987 128.392 316.36C116.669 329.721 99.1769 336.723 75.7109 336.723H0.5V1.17261H75.7354ZM47.293 290.092H75.7461C83.1834 289.93 89.2258 287.657 93.3906 282.395C97.5376 277.156 99.7558 269.037 99.7559 257.334V80.5095C99.7559 68.806 97.5443 60.6862 93.4004 55.447C89.3685 50.3496 83.5713 48.0573 76.4404 47.7722L75.7461 47.7507H47.293V290.092Z" stroke="#8C8C8C"/>
</svg>
