<svg width="667" height="939" viewBox="0 0 667 939" fill="none" xmlns="http://www.w3.org/2000/svg">
<line x1="216.5" y1="493" x2="216.5" y2="513" stroke="#8C8C8C"/>
<line x1="226" y1="503.5" x2="206" y2="503.5" stroke="#8C8C8C"/>
<line x1="450.5" y1="151" x2="450.5" y2="171" stroke="#8C8C8C"/>
<line x1="460" y1="161.5" x2="440" y2="161.5" stroke="#8C8C8C"/>
<g opacity="0.2">
<mask id="path-5-inside-1_2031_69" fill="white">
<path fill-rule="evenodd" clip-rule="evenodd" d="M0 0.849854V722.625V938.57H216.685H343.434C557.254 938.57 663.612 810.906 666.809 576.412V0.849854H450.234V576.172C450.234 681.916 410.115 721.059 343.544 722.504H216.795V0.849854H0Z"/>
</mask>
<path d="M0 0.849854V0.349854H-0.5V0.849854H0ZM0 938.57H-0.5V939.07H0V938.57ZM666.809 576.412L667.309 576.419V576.412H666.809ZM666.809 0.849854H667.309V0.349854H666.809V0.849854ZM450.234 0.849854V0.349854H449.734V0.849854H450.234ZM343.544 722.504V723.004L343.555 723.004L343.544 722.504ZM216.795 722.504H216.295V723.004H216.795V722.504ZM216.795 0.849854H217.295V0.349854H216.795V0.849854ZM-0.5 0.849854V3.35602H0.5V0.849854H-0.5ZM-0.5 8.36834V13.3807H0.5V8.36834H-0.5ZM-0.5 18.393V23.4053H0.5V18.393H-0.5ZM-0.5 28.4176V33.43H0.5V28.4176H-0.5ZM-0.5 38.4423V43.4546H0.5V38.4423H-0.5ZM-0.5 48.4669V53.4793H0.5V48.4669H-0.5ZM-0.5 58.4916V63.5039H0.5V58.4916H-0.5ZM-0.5 68.5162V73.5286H0.5V68.5162H-0.5ZM-0.5 78.5409V83.5532H0.5V78.5409H-0.5ZM-0.5 88.5655V93.5778H0.5V88.5655H-0.5ZM-0.5 98.5902V103.602H0.5V98.5902H-0.5ZM-0.5 108.615V113.627H0.5V108.615H-0.5ZM-0.5 118.639V123.652H0.5V118.639H-0.5ZM-0.5 128.664V133.676H0.5V128.664H-0.5ZM-0.5 138.689V143.701H0.5V138.689H-0.5ZM-0.5 148.713V153.726H0.5V148.713H-0.5ZM-0.5 158.738V163.75H0.5V158.738H-0.5ZM-0.5 168.763V173.775H0.5V168.763H-0.5ZM-0.5 178.787V183.8H0.5V178.787H-0.5ZM-0.5 188.812V193.824H0.5V188.812H-0.5ZM-0.5 198.837V203.849H0.5V198.837H-0.5ZM-0.5 208.861V213.874H0.5V208.861H-0.5ZM-0.5 218.886V223.898H0.5V218.886H-0.5ZM-0.5 228.911V233.923H0.5V228.911H-0.5ZM-0.5 238.935V243.948H0.5V238.935H-0.5ZM-0.5 248.96V253.972H0.5V248.96H-0.5ZM-0.5 258.985V263.997H0.5V258.985H-0.5ZM-0.5 269.009V274.022H0.5V269.009H-0.5ZM-0.5 279.034V284.046H0.5V279.034H-0.5ZM-0.5 289.059V294.071H0.5V289.059H-0.5ZM-0.5 299.083V304.096H0.5V299.083H-0.5ZM-0.5 309.108V314.12H0.5V309.108H-0.5ZM-0.5 319.133V324.145H0.5V319.133H-0.5ZM-0.5 329.157V334.17H0.5V329.157H-0.5ZM-0.5 339.182V344.194H0.5V339.182H-0.5ZM-0.5 349.207V354.219H0.5V349.207H-0.5ZM-0.5 359.231V364.244H0.5V359.231H-0.5ZM-0.5 369.256V374.268H0.5V369.256H-0.5ZM-0.5 379.281V384.293H0.5V379.281H-0.5ZM-0.5 389.305V394.318H0.5V389.305H-0.5ZM-0.5 399.33V404.342H0.5V399.33H-0.5ZM-0.5 409.355V414.367H0.5V409.355H-0.5ZM-0.5 419.379V424.392H0.5V419.379H-0.5ZM-0.5 429.404V434.416H0.5V429.404H-0.5ZM-0.5 439.428V444.441H0.5V439.428H-0.5ZM-0.5 449.453V454.465H0.5V449.453H-0.5ZM-0.5 459.478V464.49H0.5V459.478H-0.5ZM-0.5 469.502V474.515H0.5V469.502H-0.5ZM-0.5 479.527V484.539H0.5V479.527H-0.5ZM-0.5 489.552V494.564H0.5V489.552H-0.5ZM-0.5 499.576V504.589H0.5V499.576H-0.5ZM-0.5 509.601V514.613H0.5V509.601H-0.5ZM-0.5 519.626V524.638H0.5V519.626H-0.5ZM-0.5 529.65V534.663H0.5V529.65H-0.5ZM-0.5 539.675V544.687H0.5V539.675H-0.5ZM-0.5 549.7V554.712H0.5V549.7H-0.5ZM-0.5 559.724V564.737H0.5V559.724H-0.5ZM-0.5 569.749V574.761H0.5V569.749H-0.5ZM-0.5 579.774V584.786H0.5V579.774H-0.5ZM-0.5 589.798V594.811H0.5V589.798H-0.5ZM-0.5 599.823V604.835H0.5V599.823H-0.5ZM-0.5 609.848V614.86H0.5V609.848H-0.5ZM-0.5 619.872V624.885H0.5V619.872H-0.5ZM-0.5 629.897V634.909H0.5V629.897H-0.5ZM-0.5 639.922V644.934H0.5V639.922H-0.5ZM-0.5 649.946V654.959H0.5V649.946H-0.5ZM-0.5 659.971V664.983H0.5V659.971H-0.5ZM-0.5 669.996V675.008H0.5V669.996H-0.5ZM-0.5 680.02V685.033H0.5V680.02H-0.5ZM-0.5 690.045V695.057H0.5V690.045H-0.5ZM-0.5 700.07V705.082H0.5V700.07H-0.5ZM-0.5 710.094V715.107H0.5V710.094H-0.5ZM-0.5 720.119V722.625H0.5V720.119H-0.5ZM-0.5 722.625V725.078H0.5V722.625H-0.5ZM-0.5 729.986V734.894H0.5V729.986H-0.5ZM-0.5 739.802V744.71H0.5V739.802H-0.5ZM-0.5 749.618V754.526H0.5V749.618H-0.5ZM-0.5 759.433V764.341H0.5V759.433H-0.5ZM-0.5 769.249V774.157H0.5V769.249H-0.5ZM-0.5 779.065V783.973H0.5V779.065H-0.5ZM-0.5 788.881V793.788H0.5V788.881H-0.5ZM-0.5 798.696V803.604H0.5V798.696H-0.5ZM-0.5 808.512V813.42H0.5V808.512H-0.5ZM-0.5 818.328V823.236H0.5V818.328H-0.5ZM-0.5 828.143V833.051H0.5V828.143H-0.5ZM-0.5 837.959V842.867H0.5V837.959H-0.5ZM-0.5 847.775V852.683H0.5V847.775H-0.5ZM-0.5 857.591V862.498H0.5V857.591H-0.5ZM-0.5 867.406V872.314H0.5V867.406H-0.5ZM-0.5 877.222V882.13H0.5V877.222H-0.5ZM-0.5 887.038V891.946H0.5V887.038H-0.5ZM-0.5 896.853V901.761H0.5V896.853H-0.5ZM-0.5 906.669V911.577H0.5V906.669H-0.5ZM-0.5 916.485V921.393H0.5V916.485H-0.5ZM-0.5 926.301V931.208H0.5V926.301H-0.5ZM-0.5 936.116V938.57H0.5V936.116H-0.5ZM0 939.07H2.46233V938.07H0V939.07ZM7.387 939.07H12.3117V938.07H7.387V939.07ZM17.2363 939.07H22.161V938.07H17.2363V939.07ZM27.0857 939.07H32.0103V938.07H27.0857V939.07ZM36.935 939.07H41.8596V938.07H36.935V939.07ZM46.7843 939.07H51.709V938.07H46.7843V939.07ZM56.6336 939.07H61.5583V938.07H56.6336V939.07ZM66.483 939.07H71.4076V938.07H66.483V939.07ZM76.3323 939.07H81.257V938.07H76.3323V939.07ZM86.1816 939.07H91.1063V938.07H86.1816V939.07ZM96.031 939.07H100.956V938.07H96.031V939.07ZM105.88 939.07H110.805V938.07H105.88V939.07ZM115.73 939.07H120.654V938.07H115.73V939.07ZM125.579 939.07H130.504V938.07H125.579V939.07ZM135.428 939.07H140.353V938.07H135.428V939.07ZM145.278 939.07H150.202V938.07H145.278V939.07ZM155.127 939.07H160.052V938.07H155.127V939.07ZM164.976 939.07H169.901V938.07H164.976V939.07ZM174.826 939.07H179.75V938.07H174.826V939.07ZM184.675 939.07H189.6V938.07H184.675V939.07ZM194.524 939.07H199.449V938.07H194.524V939.07ZM204.374 939.07H209.298V938.07H204.374V939.07ZM214.223 939.07H216.685V938.07H214.223V939.07ZM216.685 939.07H219.123V938.07H216.685V939.07ZM223.998 939.07H228.873V938.07H223.998V939.07ZM233.748 939.07H238.623V938.07H233.748V939.07ZM243.497 939.07H248.372V938.07H243.497V939.07ZM253.247 939.07H258.122V938.07H253.247V939.07ZM262.997 939.07H267.872V938.07H262.997V939.07ZM272.747 939.07H277.622V938.07H272.747V939.07ZM282.497 939.07H287.372V938.07H282.497V939.07ZM292.247 939.07H297.122V938.07H292.247V939.07ZM301.997 939.07H306.872V938.07H301.997V939.07ZM311.747 939.07H316.622V938.07H311.747V939.07ZM321.497 939.07H326.372V938.07H321.497V939.07ZM331.247 939.07H336.122V938.07H331.247V939.07ZM340.997 939.07H343.434V938.07H340.997V939.07ZM343.434 939.07C344.287 939.07 345.138 939.068 345.988 939.064L345.983 938.064C345.135 938.068 344.285 938.07 343.434 938.07V939.07ZM351.064 939.015C352.75 938.991 354.428 938.959 356.1 938.918L356.076 937.918C354.407 937.959 352.732 937.991 351.05 938.016L351.064 939.015ZM361.095 938.772C362.783 938.715 364.464 938.648 366.139 938.574L366.094 937.575C364.423 937.649 362.746 937.715 361.061 937.773L361.095 938.772ZM371.204 938.322C372.886 938.229 374.56 938.128 376.227 938.018L376.161 937.021C374.498 937.13 372.827 937.231 371.149 937.323L371.204 938.322ZM381.206 937.664C382.897 937.534 384.582 937.395 386.258 937.247L386.17 936.251C384.498 936.398 382.817 936.537 381.129 936.666L381.206 937.664ZM391.298 936.773C392.971 936.607 394.635 936.431 396.292 936.246L396.181 935.252C394.528 935.436 392.867 935.612 391.199 935.778L391.298 936.773ZM401.253 935.662C402.943 935.453 404.625 935.234 406.299 935.006L406.164 934.015C404.494 934.243 402.816 934.461 401.13 934.669L401.253 935.662ZM411.296 934.292C412.954 934.045 414.603 933.788 416.245 933.521L416.084 932.534C414.447 932.8 412.802 933.056 411.149 933.303L411.296 934.292ZM421.214 932.681C422.885 932.387 424.547 932.083 426.201 931.769L426.014 930.787C424.365 931.1 422.707 931.403 421.041 931.696L421.214 932.681ZM431.136 930.797C432.773 930.463 434.402 930.119 436.022 929.764L435.808 928.787C434.193 929.141 432.569 929.484 430.936 929.817L431.136 930.797ZM440.982 928.642C442.627 928.257 444.262 927.862 445.889 927.456L445.646 926.485C444.025 926.89 442.394 927.284 440.755 927.668L440.982 928.642ZM450.74 926.207C452.374 925.773 453.998 925.329 455.612 924.874L455.341 923.911C453.731 924.365 452.112 924.808 450.484 925.24L450.74 926.207ZM460.472 923.462C462.082 922.981 463.683 922.489 465.274 921.985L464.973 921.032C463.387 921.534 461.791 922.024 460.185 922.504L460.472 923.462ZM470.054 920.431C471.662 919.893 473.259 919.344 474.847 918.784L474.515 917.841C472.932 918.4 471.339 918.947 469.737 919.482L470.054 920.431ZM479.582 917.069C481.152 916.485 482.713 915.889 484.264 915.282L483.899 914.351C482.354 914.956 480.798 915.549 479.233 916.131L479.582 917.069ZM488.971 913.391C490.53 912.749 492.078 912.095 493.616 911.43L493.219 910.512C491.686 911.175 490.143 911.827 488.59 912.467L488.971 913.391ZM498.2 909.397C499.741 908.697 501.271 907.984 502.791 907.26L502.361 906.357C500.847 907.079 499.322 907.789 497.786 908.486L498.2 909.397ZM507.326 905.046C508.828 904.296 510.318 903.533 511.798 902.759L511.334 901.873C509.86 902.644 508.375 903.404 506.879 904.151L507.326 905.046ZM516.253 900.372C517.732 899.562 519.2 898.739 520.657 897.904L520.16 897.036C518.708 897.869 517.246 898.688 515.773 899.496L516.253 900.372ZM524.995 895.36C526.441 894.494 527.876 893.614 529.299 892.722L528.768 891.875C527.35 892.763 525.921 893.639 524.481 894.503L524.995 895.36ZM533.55 890C534.956 889.08 536.351 888.147 537.735 887.201L537.17 886.375C535.792 887.317 534.403 888.246 533.003 889.163L533.55 890ZM541.871 884.313C543.242 883.335 544.601 882.344 545.95 881.341L545.353 880.538C544.01 881.538 542.656 882.525 541.29 883.499L541.871 884.313ZM549.961 878.292C551.289 877.26 552.607 876.216 553.912 875.159L553.283 874.382C551.983 875.434 550.671 876.474 549.347 877.502L549.961 878.292ZM557.801 871.945C559.086 870.861 560.359 869.764 561.622 868.654L560.961 867.903C559.704 869.009 558.436 870.101 557.156 871.181L557.801 871.945ZM565.374 865.287C566.613 864.152 567.841 863.004 569.057 861.844L568.367 861.12C567.155 862.276 565.932 863.419 564.698 864.55L565.374 865.287ZM572.672 858.324C573.863 857.14 575.043 855.944 576.212 854.736L575.493 854.041C574.329 855.244 573.154 856.436 571.968 857.614L572.672 858.324ZM579.678 851.077C580.822 849.845 581.955 848.6 583.077 847.343L582.331 846.677C581.213 847.93 580.085 849.169 578.945 850.397L579.678 851.077ZM586.394 843.55C587.486 842.277 588.566 840.991 589.635 839.694L588.863 839.058C587.798 840.351 586.722 841.631 585.635 842.899L586.394 843.55ZM592.809 835.764C593.85 834.449 594.88 833.122 595.899 831.783L595.104 831.177C594.088 832.511 593.062 833.833 592.025 835.143L592.809 835.764ZM598.909 827.749C599.902 826.392 600.883 825.023 601.854 823.643L601.036 823.068C600.069 824.443 599.091 825.807 598.102 827.158L598.909 827.749ZM604.716 819.491C605.653 818.105 606.578 816.708 607.494 815.299L606.655 814.754C605.743 816.158 604.821 817.55 603.888 818.931L604.716 819.491ZM610.208 811.038C611.097 809.614 611.976 808.178 612.844 806.731L611.987 806.217C611.122 807.659 610.246 809.089 609.36 810.508L610.208 811.038ZM615.391 802.403C616.23 800.949 617.058 799.484 617.876 798.008L617.002 797.523C616.186 798.995 615.361 800.455 614.525 801.904L615.391 802.403ZM620.293 793.56C621.076 792.09 621.849 790.608 622.613 789.116L621.723 788.661C620.962 790.148 620.191 791.624 619.41 793.09L620.293 793.56ZM624.874 784.609C625.617 783.095 626.351 781.571 627.076 780.037L626.171 779.61C625.449 781.14 624.718 782.659 623.976 784.167L624.874 784.609ZM629.178 775.491C629.868 773.967 630.549 772.434 631.221 770.89L630.304 770.491C629.634 772.03 628.955 773.559 628.267 775.078L629.178 775.491ZM633.207 766.228C633.85 764.686 634.485 763.135 635.11 761.573L634.182 761.201C633.558 762.759 632.926 764.306 632.284 765.843L633.207 766.228ZM636.943 756.898C637.545 755.33 638.138 753.753 638.722 752.165L637.784 751.82C637.201 753.403 636.61 754.976 636.009 756.54L636.943 756.898ZM640.437 747.404C640.989 745.836 641.534 744.259 642.069 742.673L641.122 742.353C640.588 743.935 640.045 745.508 639.494 747.072L640.437 747.404ZM643.65 737.886C644.169 736.281 644.679 734.668 645.18 733.045L644.225 732.749C643.725 734.368 643.216 735.978 642.699 737.579L643.65 737.886ZM646.63 728.247C647.103 726.648 647.567 725.039 648.023 723.422L647.061 723.151C646.606 724.764 646.142 726.368 645.671 727.964L646.63 728.247ZM649.368 718.545C649.805 716.922 650.235 715.29 650.656 713.649L649.687 713.401C649.267 715.037 648.839 716.666 648.403 718.285L649.368 718.545ZM651.872 708.799C652.27 707.175 652.66 705.542 653.042 703.901L652.068 703.674C651.687 705.311 651.298 706.941 650.901 708.562L651.872 708.799ZM654.166 698.953C654.527 697.323 654.881 695.685 655.227 694.039L654.248 693.833C653.903 695.476 653.55 697.11 653.19 698.737L654.166 698.953ZM656.232 689.13C656.56 687.486 656.881 685.834 657.195 684.175L656.212 683.99C655.899 685.646 655.579 687.294 655.252 688.934L656.232 689.13ZM658.113 679.174C658.405 677.539 658.69 675.897 658.968 674.247L657.982 674.081C657.704 675.728 657.42 677.367 657.129 678.998L658.113 679.174ZM659.778 669.295C660.042 667.637 660.298 665.972 660.548 664.3L659.559 664.152C659.31 665.822 659.054 667.484 658.791 669.138L659.778 669.295ZM661.276 659.264C661.505 657.624 661.728 655.977 661.944 654.323L660.953 654.193C660.737 655.844 660.514 657.488 660.285 659.126L661.276 659.264ZM662.574 649.341C662.778 647.674 662.975 646 663.165 644.319L662.172 644.206C661.981 645.884 661.785 647.556 661.582 649.22L662.574 649.341ZM663.717 639.265C663.889 637.617 664.056 635.963 664.216 634.303L663.221 634.207C663.061 635.865 662.894 637.516 662.722 639.16L663.717 639.265ZM664.68 629.304C664.828 627.631 664.97 625.951 665.106 624.266L664.109 624.185C663.973 625.868 663.831 627.545 663.683 629.215L664.68 629.304ZM665.496 619.19C665.616 617.538 665.731 615.881 665.84 614.218L664.842 614.152C664.733 615.813 664.619 617.468 664.498 619.117L665.496 619.19ZM666.149 609.21C666.246 607.535 666.338 605.854 666.424 604.167L665.425 604.116C665.339 605.801 665.248 607.48 665.151 609.152L666.149 609.21ZM666.664 599.088C666.736 597.427 666.803 595.761 666.865 594.088L665.866 594.052C665.804 595.722 665.737 597.386 665.665 599.044L666.664 599.088ZM667.033 589.082C667.083 587.408 667.128 585.728 667.167 584.042L666.168 584.019C666.128 585.702 666.083 587.38 666.033 589.052L667.033 589.082ZM667.27 578.968C667.284 578.12 667.297 577.27 667.309 576.419L666.309 576.406C666.297 577.256 666.284 578.104 666.27 578.952L667.27 578.968ZM667.309 576.412V573.932H666.309V576.412H667.309ZM667.309 568.97V564.008H666.309V568.97H667.309ZM667.309 559.046V554.085H666.309V559.046H667.309ZM667.309 549.123V544.161H666.309V549.123H667.309ZM667.309 539.199V534.238H666.309V539.199H667.309ZM667.309 529.276V524.314H666.309V529.276H667.309ZM667.309 519.352V514.391H666.309V519.352H667.309ZM667.309 509.429V504.467H666.309V509.429H667.309ZM667.309 499.505V494.544H666.309V499.505H667.309ZM667.309 489.582V484.62H666.309V489.582H667.309ZM667.309 479.658V474.697H666.309V479.658H667.309ZM667.309 469.735V464.773H666.309V469.735H667.309ZM667.309 459.811V454.85H666.309V459.811H667.309ZM667.309 449.888V444.926H666.309V449.888H667.309ZM667.309 439.964V435.003H666.309V439.964H667.309ZM667.309 430.041V425.079H666.309V430.041H667.309ZM667.309 420.117V415.156H666.309V420.117H667.309ZM667.309 410.194V405.232H666.309V410.194H667.309ZM667.309 400.27V395.309H666.309V400.27H667.309ZM667.309 390.347V385.385H666.309V390.347H667.309ZM667.309 380.423V375.462H666.309V380.423H667.309ZM667.309 370.5V365.538H666.309V370.5H667.309ZM667.309 360.577V355.615H666.309V360.577H667.309ZM667.309 350.653V345.691H666.309V350.653H667.309ZM667.309 340.73V335.768H666.309V340.73H667.309ZM667.309 330.806V325.844H666.309V330.806H667.309ZM667.309 320.883V315.921H666.309V320.883H667.309ZM667.309 310.959V305.997H666.309V310.959H667.309ZM667.309 301.035V296.074H666.309V301.035H667.309ZM667.309 291.112V286.15H666.309V291.112H667.309ZM667.309 281.188V276.227H666.309V281.188H667.309ZM667.309 271.265V266.303H666.309V271.265H667.309ZM667.309 261.341V256.38H666.309V261.341H667.309ZM667.309 251.418V246.456H666.309V251.418H667.309ZM667.309 241.494V236.533H666.309V241.494H667.309ZM667.309 231.571V226.609H666.309V231.571H667.309ZM667.309 221.647V216.686H666.309V221.647H667.309ZM667.309 211.724V206.762H666.309V211.724H667.309ZM667.309 201.8V196.839H666.309V201.8H667.309ZM667.309 191.877V186.915H666.309V191.877H667.309ZM667.309 181.953V176.991H666.309V181.953H667.309ZM667.309 172.03V167.068H666.309V172.03H667.309ZM667.309 162.106V157.144H666.309V162.106H667.309ZM667.309 152.183V147.221H666.309V152.183H667.309ZM667.309 142.259V137.297H666.309V142.259H667.309ZM667.309 132.336V127.374H666.309V132.336H667.309ZM667.309 122.412V117.45H666.309V122.412H667.309ZM667.309 112.489V107.527H666.309V112.489H667.309ZM667.309 102.565V97.6033H666.309V102.565H667.309ZM667.309 92.6415V87.6797H666.309V92.6415H667.309ZM667.309 82.718V77.7562H666.309V82.718H667.309ZM667.309 72.7945V67.8327H666.309V72.7945H667.309ZM667.309 62.871V57.9092H666.309V62.871H667.309ZM667.309 52.9475V47.9858H666.309V52.9475H667.309ZM667.309 43.0241V38.0623H666.309V43.0241H667.309ZM667.309 33.1006V28.1389H666.309V33.1006H667.309ZM667.309 23.1771V18.2154H666.309V23.1771H667.309ZM667.309 13.2537V8.29193H666.309V13.2537H667.309ZM667.309 3.33019V0.849854H666.309V3.33019H667.309ZM666.809 0.349854H664.348V1.34985H666.809V0.349854ZM659.425 0.349854H654.503V1.34985H659.425V0.349854ZM649.581 0.349854H644.659V1.34985H649.581V0.349854ZM639.737 0.349854H634.815V1.34985H639.737V0.349854ZM629.892 0.349854H624.97V1.34985H629.892V0.349854ZM620.048 0.349854H615.126V1.34985H620.048V0.349854ZM610.204 0.349854H605.282V1.34985H610.204V0.349854ZM600.359 0.349854H595.437V1.34985H600.359V0.349854ZM590.515 0.349854H585.593V1.34985H590.515V0.349854ZM580.671 0.349854H575.749V1.34985H580.671V0.349854ZM570.826 0.349854H565.904V1.34985H570.826V0.349854ZM560.982 0.349854H556.06V1.34985H560.982V0.349854ZM551.138 0.349854H546.216V1.34985H551.138V0.349854ZM541.294 0.349854H536.371V1.34985H541.294V0.349854ZM531.449 0.349854H526.527V1.34985H531.449V0.349854ZM521.605 0.349854H516.683V1.34985H521.605V0.349854ZM511.761 0.349854H506.838V1.34985H511.761V0.349854ZM501.916 0.349854H496.994V1.34985H501.916V0.349854ZM492.072 0.349854H487.15V1.34985H492.072V0.349854ZM482.228 0.349854H477.305V1.34985H482.228V0.349854ZM472.383 0.349854H467.461V1.34985H472.383V0.349854ZM462.539 0.349854H457.617V1.34985H462.539V0.349854ZM452.695 0.349854H450.234V1.34985H452.695V0.349854ZM449.734 0.849854V3.32969H450.734V0.849854H449.734ZM449.734 8.28936V13.249H450.734V8.28936H449.734ZM449.734 18.2087V23.1684H450.734V18.2087H449.734ZM449.734 28.128V33.0877H450.734V28.128H449.734ZM449.734 38.0474V43.0071H450.734V38.0474H449.734ZM449.734 47.9667V52.9264H450.734V47.9667H449.734ZM449.734 57.8861V62.8457H450.734V57.8861H449.734ZM449.734 67.8054V72.7651H450.734V67.8054H449.734ZM449.734 77.7247V82.6844H450.734V77.7247H449.734ZM449.734 87.6441V92.6038H450.734V87.6441H449.734ZM449.734 97.5634V102.523H450.734V97.5634H449.734ZM449.734 107.483V112.442H450.734V107.483H449.734ZM449.734 117.402V122.362H450.734V117.402H449.734ZM449.734 127.321V132.281H450.734V127.321H449.734ZM449.734 137.241V142.2H450.734V137.241H449.734ZM449.734 147.16V152.12H450.734V147.16H449.734ZM449.734 157.079V162.039H450.734V157.079H449.734ZM449.734 166.999V171.958H450.734V166.999H449.734ZM449.734 176.918V181.878H450.734V176.918H449.734ZM449.734 186.838V191.797H450.734V186.838H449.734ZM449.734 196.757V201.717H450.734V196.757H449.734ZM449.734 206.676V211.636H450.734V206.676H449.734ZM449.734 216.596V221.555H450.734V216.596H449.734ZM449.734 226.515V231.475H450.734V226.515H449.734ZM449.734 236.434V241.394H450.734V236.434H449.734ZM449.734 246.354V251.313H450.734V246.354H449.734ZM449.734 256.273V261.233H450.734V256.273H449.734ZM449.734 266.192V271.152H450.734V266.192H449.734ZM449.734 276.112V281.071H450.734V276.112H449.734ZM449.734 286.031V290.99H450.734V286.031H449.734ZM449.734 295.95V300.91H450.734V295.95H449.734ZM449.734 305.869V310.829H450.734V305.869H449.734ZM449.734 315.789V320.748H450.734V315.789H449.734ZM449.734 325.708V330.668H450.734V325.708H449.734ZM449.734 335.627V340.587H450.734V335.627H449.734ZM449.734 345.547V350.506H450.734V345.547H449.734ZM449.734 355.466V360.426H450.734V355.466H449.734ZM449.734 365.385V370.345H450.734V365.385H449.734ZM449.734 375.305V380.264H450.734V375.305H449.734ZM449.734 385.224V390.184H450.734V385.224H449.734ZM449.734 395.143V400.103H450.734V395.143H449.734ZM449.734 405.063V410.022H450.734V405.063H449.734ZM449.734 414.982V419.942H450.734V414.982H449.734ZM449.734 424.901V429.861H450.734V424.901H449.734ZM449.734 434.82V439.78H450.734V434.82H449.734ZM449.734 444.74V449.699H450.734V444.74H449.734ZM449.734 454.659V459.619H450.734V454.659H449.734ZM449.734 464.578V469.538H450.734V464.578H449.734ZM449.734 474.498V479.457H450.734V474.498H449.734ZM449.734 484.417V489.377H450.734V484.417H449.734ZM449.734 494.336V499.296H450.734V494.336H449.734ZM449.734 504.256V509.215H450.734V504.256H449.734ZM449.734 514.175V519.135H450.734V514.175H449.734ZM449.734 524.094V529.054H450.734V524.094H449.734ZM449.734 534.014V538.973H450.734V534.014H449.734ZM449.734 543.933V548.893H450.734V543.933H449.734ZM449.734 553.852V558.812H450.734V553.852H449.734ZM449.734 563.772V568.731H450.734V563.772H449.734ZM449.734 573.691V576.172H450.734V573.691H449.734ZM449.734 576.172C449.734 577.006 449.731 577.835 449.726 578.661L450.726 578.667C450.731 577.839 450.734 577.008 450.734 576.172H449.734ZM449.666 583.565C449.636 585.218 449.595 586.853 449.544 588.471L450.543 588.503C450.595 586.88 450.636 585.24 450.666 583.584L449.666 583.565ZM449.356 593.365C449.281 595.02 449.194 596.656 449.097 598.274L450.095 598.334C450.193 596.711 450.279 595.07 450.355 593.411L449.356 593.365ZM448.766 603.144C448.64 604.802 448.502 606.439 448.352 608.056L449.348 608.148C449.499 606.525 449.637 604.883 449.763 603.22L448.766 603.144ZM447.862 612.895C447.679 614.551 447.483 616.185 447.274 617.798L448.266 617.927C448.476 616.307 448.672 614.667 448.856 613.004L447.862 612.895ZM446.598 622.641C446.353 624.275 446.093 625.886 445.82 627.475L446.806 627.644C447.08 626.049 447.341 624.431 447.587 622.789L446.598 622.641ZM444.931 632.31C444.614 633.927 444.282 635.518 443.935 637.085L444.912 637.301C445.261 635.726 445.594 634.127 445.912 632.503L444.931 632.31ZM442.811 641.862C442.409 643.471 441.991 645.052 441.555 646.606L442.518 646.876C442.956 645.313 443.377 643.722 443.781 642.104L442.811 641.862ZM440.168 651.287C439.674 652.863 439.162 654.41 438.631 655.926L439.575 656.256C440.11 654.729 440.625 653.172 441.122 651.586L440.168 651.287ZM436.929 660.532C436.328 662.073 435.707 663.581 435.066 665.056L435.983 665.455C436.629 663.968 437.255 662.448 437.861 660.896L436.929 660.532ZM433.03 669.493C432.313 670.976 431.574 672.423 430.813 673.835L431.693 674.309C432.461 672.884 433.207 671.424 433.93 669.929L433.03 669.493ZM428.39 678.093C427.54 679.508 426.667 680.885 425.769 682.224L426.6 682.781C427.507 681.428 428.389 680.037 429.247 678.608L428.39 678.093ZM422.945 686.211C421.96 687.527 420.95 688.802 419.915 690.038L420.681 690.681C421.729 689.43 422.75 688.141 423.746 686.81L422.945 686.211ZM416.677 693.689C415.555 694.883 414.408 696.035 413.234 697.147L413.922 697.873C415.11 696.748 416.271 695.582 417.406 694.374L416.677 693.689ZM409.593 700.394C408.343 701.444 407.066 702.452 405.763 703.419L406.359 704.222C407.678 703.243 408.971 702.223 410.236 701.16L409.593 700.394ZM401.758 706.209C400.396 707.099 399.008 707.948 397.593 708.758L398.09 709.626C399.522 708.807 400.927 707.947 402.305 707.047L401.758 706.209ZM393.288 711.06C391.837 711.784 390.361 712.469 388.86 713.117L389.257 714.035C390.774 713.38 392.267 712.687 393.734 711.955L393.288 711.06ZM384.328 714.933C382.811 715.495 381.271 716.022 379.707 716.515L380.007 717.469C381.587 716.971 383.143 716.439 384.675 715.871L384.328 714.933ZM375.013 717.872C373.451 718.284 371.866 718.665 370.26 719.014L370.473 719.992C372.093 719.639 373.691 719.255 375.268 718.838L375.013 717.872ZM365.459 719.955C363.866 720.234 362.252 720.484 360.62 720.706L360.754 721.697C362.399 721.473 364.025 721.221 365.631 720.94L365.459 719.955ZM355.751 721.278C354.146 721.438 352.523 721.573 350.883 721.682L350.949 722.68C352.601 722.57 354.234 722.434 355.851 722.273L355.751 721.278ZM345.999 721.933C345.181 721.962 344.359 721.986 343.533 722.004L343.555 723.004C344.386 722.986 345.212 722.962 346.035 722.932L345.999 721.933ZM343.544 722.004H341.107V723.004H343.544V722.004ZM336.232 722.004H331.357V723.004H336.232V722.004ZM326.482 722.004H321.607V723.004H326.482V722.004ZM316.732 722.004H311.857V723.004H316.732V722.004ZM306.982 722.004H302.107V723.004H306.982V722.004ZM297.232 722.004H292.357V723.004H297.232V722.004ZM287.482 722.004H282.607V723.004H287.482V722.004ZM277.732 722.004H272.857V723.004H277.732V722.004ZM267.982 722.004H263.107V723.004H267.982V722.004ZM258.233 722.004H253.358V723.004H258.233V722.004ZM248.483 722.004H243.608V723.004H248.483V722.004ZM238.733 722.004H233.858V723.004H238.733V722.004ZM228.983 722.004H224.108V723.004H228.983V722.004ZM219.233 722.004H216.795V723.004H219.233V722.004ZM217.295 722.504V719.998H216.295V722.504H217.295ZM217.295 714.987V709.975H216.295V714.987H217.295ZM217.295 704.964V699.952H216.295V704.964H217.295ZM217.295 694.941V689.929H216.295V694.941H217.295ZM217.295 684.918V679.906H216.295V684.918H217.295ZM217.295 674.895V669.883H216.295V674.895H217.295ZM217.295 664.872V659.86H216.295V664.872H217.295ZM217.295 654.849V649.837H216.295V654.849H217.295ZM217.295 644.826V639.815H216.295V644.826H217.295ZM217.295 634.803V629.792H216.295V634.803H217.295ZM217.295 624.78V619.768H216.295V624.78H217.295ZM217.295 614.757V609.746H216.295V614.757H217.295ZM217.295 604.734V599.723H216.295V604.734H217.295ZM217.295 594.711V589.7H216.295V594.711H217.295ZM217.295 584.688V579.677H216.295V584.688H217.295ZM217.295 574.665V569.654H216.295V574.665H217.295ZM217.295 564.642V559.631H216.295V564.642H217.295ZM217.295 554.619V549.608H216.295V554.619H217.295ZM217.295 544.596V539.585H216.295V544.596H217.295ZM217.295 534.573V529.562H216.295V534.573H217.295ZM217.295 524.55V519.539H216.295V524.55H217.295ZM217.295 514.527V509.516H216.295V514.527H217.295ZM217.295 504.504V499.493H216.295V504.504H217.295ZM217.295 494.481V489.47H216.295V494.481H217.295ZM217.295 484.458V479.447H216.295V484.458H217.295ZM217.295 474.435V469.424H216.295V474.435H217.295ZM217.295 464.412V459.401H216.295V464.412H217.295ZM217.295 454.389V449.378H216.295V454.389H217.295ZM217.295 444.366V439.355H216.295V444.366H217.295ZM217.295 434.344V429.332H216.295V434.344H217.295ZM217.295 424.321V419.309H216.295V424.321H217.295ZM217.295 414.298V409.286H216.295V414.298H217.295ZM217.295 404.275V399.263H216.295V404.275H217.295ZM217.295 394.252V389.24H216.295V394.252H217.295ZM217.295 384.229V379.217H216.295V384.229H217.295ZM217.295 374.206V369.194H216.295V374.206H217.295ZM217.295 364.183V359.171H216.295V364.183H217.295ZM217.295 354.16V349.148H216.295V354.16H217.295ZM217.295 344.137V339.126H216.295V344.137H217.295ZM217.295 334.114V329.103H216.295V334.114H217.295ZM217.295 324.091V319.08H216.295V324.091H217.295ZM217.295 314.068V309.057H216.295V314.068H217.295ZM217.295 304.045V299.034H216.295V304.045H217.295ZM217.295 294.022V289.011H216.295V294.022H217.295ZM217.295 283.999V278.988H216.295V283.999H217.295ZM217.295 273.976V268.965H216.295V273.976H217.295ZM217.295 263.953V258.942H216.295V263.953H217.295ZM217.295 253.93V248.919H216.295V253.93H217.295ZM217.295 243.907V238.896H216.295V243.907H217.295ZM217.295 233.885V228.873H216.295V233.885H217.295ZM217.295 223.862V218.85H216.295V223.862H217.295ZM217.295 213.839V208.827H216.295V213.839H217.295ZM217.295 203.816V198.804H216.295V203.816H217.295ZM217.295 193.793V188.781H216.295V193.793H217.295ZM217.295 183.77V178.758H216.295V183.77H217.295ZM217.295 173.747V168.735H216.295V173.747H217.295ZM217.295 163.724V158.712H216.295V163.724H217.295ZM217.295 153.701V148.689H216.295V153.701H217.295ZM217.295 143.678V138.667H216.295V143.678H217.295ZM217.295 133.655V128.644H216.295V133.655H217.295ZM217.295 123.632V118.621H216.295V123.632H217.295ZM217.295 113.609V108.598H216.295V113.609H217.295ZM217.295 103.586V98.5747H216.295V103.586H217.295ZM217.295 93.5632V88.5518H216.295V93.5632H217.295ZM217.295 83.5403V78.5288H216.295V83.5403H217.295ZM217.295 73.5173V68.5059H216.295V73.5173H217.295ZM217.295 63.4944V58.4829H216.295V63.4944H217.295ZM217.295 53.4714V48.46H216.295V53.4714H217.295ZM217.295 43.4485V38.437H216.295V43.4485H217.295ZM217.295 33.4256V28.414H216.295V33.4256H217.295ZM217.295 23.4026V18.3911H216.295V23.4026H217.295ZM217.295 13.3796V8.36817H216.295V13.3796H217.295ZM217.295 3.35671V0.849854H216.295V3.35671H217.295ZM216.795 0.349854H214.332V1.34985H216.795V0.349854ZM209.405 0.349854H204.478V1.34985H209.405V0.349854ZM199.55 0.349854H194.623V1.34985H199.55V0.349854ZM189.696 0.349854H184.769V1.34985H189.696V0.349854ZM179.842 0.349854H174.915V1.34985H179.842V0.349854ZM169.987 0.349854H165.06V1.34985H169.987V0.349854ZM160.133 0.349854H155.206V1.34985H160.133V0.349854ZM150.279 0.349854H145.352V1.34985H150.279V0.349854ZM140.424 0.349854H135.497V1.34985H140.424V0.349854ZM130.57 0.349854H125.643V1.34985H130.57V0.349854ZM120.716 0.349854H115.788V1.34985H120.716V0.349854ZM110.861 0.349854H105.934V1.34985H110.861V0.349854ZM101.007 0.349854H96.0798V1.34985H101.007V0.349854ZM91.1526 0.349854H86.2255V1.34985H91.1526V0.349854ZM81.2983 0.349854H76.3711V1.34985H81.2983V0.349854ZM71.444 0.349854H66.5168V1.34985H71.444V0.349854ZM61.5896 0.349854H56.6624V1.34985H61.5896V0.349854ZM51.7353 0.349854H46.8081V1.34985H51.7353V0.349854ZM41.8809 0.349854H36.9538V1.34985H41.8809V0.349854ZM32.0266 0.349854H27.0994V1.34985H32.0266V0.349854ZM22.1723 0.349854H17.2451V1.34985H22.1723V0.349854ZM12.3179 0.349854H7.39075V1.34985H12.3179V0.349854ZM2.46358 0.349854H0V1.34985H2.46358V0.349854ZM0 0.849854V-0.150146H-1V0.849854H0ZM0 938.57H-1V939.57H0V938.57ZM666.809 576.412L667.809 576.426V576.412H666.809ZM666.809 0.849854H667.809V-0.150146H666.809V0.849854ZM450.234 0.849854V-0.150146H449.234V0.849854H450.234ZM343.544 722.504V723.504H343.555L343.566 723.504L343.544 722.504ZM216.795 722.504H215.795V723.504H216.795V722.504ZM216.795 0.849854H217.795V-0.150146H216.795V0.849854ZM-1 0.849854V3.35602H1V0.849854H-1ZM-1 8.36834V13.3807H1V8.36834H-1ZM-1 18.393V23.4053H1V18.393H-1ZM-1 28.4176V33.43H1V28.4176H-1ZM-1 38.4423V43.4546H1V38.4423H-1ZM-1 48.4669V53.4793H1V48.4669H-1ZM-1 58.4916V63.5039H1V58.4916H-1ZM-1 68.5162V73.5286H1V68.5162H-1ZM-1 78.5409V83.5532H1V78.5409H-1ZM-1 88.5655V93.5778H1V88.5655H-1ZM-1 98.5902V103.602H1V98.5902H-1ZM-1 108.615V113.627H1V108.615H-1ZM-1 118.639V123.652H1V118.639H-1ZM-1 128.664V133.676H1V128.664H-1ZM-1 138.689V143.701H1V138.689H-1ZM-1 148.713V153.726H1V148.713H-1ZM-1 158.738V163.75H1V158.738H-1ZM-1 168.763V173.775H1V168.763H-1ZM-1 178.787V183.8H1V178.787H-1ZM-1 188.812V193.824H1V188.812H-1ZM-1 198.837V203.849H1V198.837H-1ZM-1 208.861V213.874H1V208.861H-1ZM-1 218.886V223.898H1V218.886H-1ZM-1 228.911V233.923H1V228.911H-1ZM-1 238.935V243.948H1V238.935H-1ZM-1 248.96V253.972H1V248.96H-1ZM-1 258.985V263.997H1V258.985H-1ZM-1 269.009V274.022H1V269.009H-1ZM-1 279.034V284.046H1V279.034H-1ZM-1 289.059V294.071H1V289.059H-1ZM-1 299.083V304.096H1V299.083H-1ZM-1 309.108V314.12H1V309.108H-1ZM-1 319.133V324.145H1V319.133H-1ZM-1 329.157V334.17H1V329.157H-1ZM-1 339.182V344.194H1V339.182H-1ZM-1 349.207V354.219H1V349.207H-1ZM-1 359.231V364.244H1V359.231H-1ZM-1 369.256V374.268H1V369.256H-1ZM-1 379.281V384.293H1V379.281H-1ZM-1 389.305V394.318H1V389.305H-1ZM-1 399.33V404.342H1V399.33H-1ZM-1 409.355V414.367H1V409.355H-1ZM-1 419.379V424.392H1V419.379H-1ZM-1 429.404V434.416H1V429.404H-1ZM-1 439.428V444.441H1V439.428H-1ZM-1 449.453V454.465H1V449.453H-1ZM-1 459.478V464.49H1V459.478H-1ZM-1 469.502V474.515H1V469.502H-1ZM-1 479.527V484.539H1V479.527H-1ZM-1 489.552V494.564H1V489.552H-1ZM-1 499.576V504.589H1V499.576H-1ZM-1 509.601V514.613H1V509.601H-1ZM-1 519.626V524.638H1V519.626H-1ZM-1 529.65V534.663H1V529.65H-1ZM-1 539.675V544.687H1V539.675H-1ZM-1 549.7V554.712H1V549.7H-1ZM-1 559.724V564.737H1V559.724H-1ZM-1 569.749V574.761H1V569.749H-1ZM-1 579.774V584.786H1V579.774H-1ZM-1 589.798V594.811H1V589.798H-1ZM-1 599.823V604.835H1V599.823H-1ZM-1 609.848V614.86H1V609.848H-1ZM-1 619.872V624.885H1V619.872H-1ZM-1 629.897V634.909H1V629.897H-1ZM-1 639.922V644.934H1V639.922H-1ZM-1 649.946V654.959H1V649.946H-1ZM-1 659.971V664.983H1V659.971H-1ZM-1 669.996V675.008H1V669.996H-1ZM-1 680.02V685.033H1V680.02H-1ZM-1 690.045V695.057H1V690.045H-1ZM-1 700.07V705.082H1V700.07H-1ZM-1 710.094V715.107H1V710.094H-1ZM-1 720.119V722.625H1V720.119H-1ZM-1 722.625V725.078H1V722.625H-1ZM-1 729.986V734.894H1V729.986H-1ZM-1 739.802V744.71H1V739.802H-1ZM-1 749.618V754.526H1V749.618H-1ZM-1 759.433V764.341H1V759.433H-1ZM-1 769.249V774.157H1V769.249H-1ZM-1 779.065V783.973H1V779.065H-1ZM-1 788.881V793.788H1V788.881H-1ZM-1 798.696V803.604H1V798.696H-1ZM-1 808.512V813.42H1V808.512H-1ZM-1 818.328V823.236H1V818.328H-1ZM-1 828.143V833.051H1V828.143H-1ZM-1 837.959V842.867H1V837.959H-1ZM-1 847.775V852.683H1V847.775H-1ZM-1 857.591V862.498H1V857.591H-1ZM-1 867.406V872.314H1V867.406H-1ZM-1 877.222V882.13H1V877.222H-1ZM-1 887.038V891.946H1V887.038H-1ZM-1 896.853V901.761H1V896.853H-1ZM-1 906.669V911.577H1V906.669H-1ZM-1 916.485V921.393H1V916.485H-1ZM-1 926.301V931.208H1V926.301H-1ZM-1 936.116V938.57H1V936.116H-1ZM0 939.57H2.46233V937.57H0V939.57ZM7.387 939.57H12.3117V937.57H7.387V939.57ZM17.2363 939.57H22.161V937.57H17.2363V939.57ZM27.0857 939.57H32.0103V937.57H27.0857V939.57ZM36.935 939.57H41.8596V937.57H36.935V939.57ZM46.7843 939.57H51.709V937.57H46.7843V939.57ZM56.6336 939.57H61.5583V937.57H56.6336V939.57ZM66.483 939.57H71.4076V937.57H66.483V939.57ZM76.3323 939.57H81.257V937.57H76.3323V939.57ZM86.1816 939.57H91.1063V937.57H86.1816V939.57ZM96.031 939.57H100.956V937.57H96.031V939.57ZM105.88 939.57H110.805V937.57H105.88V939.57ZM115.73 939.57H120.654V937.57H115.73V939.57ZM125.579 939.57H130.504V937.57H125.579V939.57ZM135.428 939.57H140.353V937.57H135.428V939.57ZM145.278 939.57H150.202V937.57H145.278V939.57ZM155.127 939.57H160.052V937.57H155.127V939.57ZM164.976 939.57H169.901V937.57H164.976V939.57ZM174.826 939.57H179.75V937.57H174.826V939.57ZM184.675 939.57H189.6V937.57H184.675V939.57ZM194.524 939.57H199.449V937.57H194.524V939.57ZM204.374 939.57H209.298V937.57H204.374V939.57ZM214.223 939.57H216.685V937.57H214.223V939.57ZM216.685 939.57H219.123V937.57H216.685V939.57ZM223.998 939.57H228.873V937.57H223.998V939.57ZM233.748 939.57H238.623V937.57H233.748V939.57ZM243.497 939.57H248.372V937.57H243.497V939.57ZM253.247 939.57H258.122V937.57H253.247V939.57ZM262.997 939.57H267.872V937.57H262.997V939.57ZM272.747 939.57H277.622V937.57H272.747V939.57ZM282.497 939.57H287.372V937.57H282.497V939.57ZM292.247 939.57H297.122V937.57H292.247V939.57ZM301.997 939.57H306.872V937.57H301.997V939.57ZM311.747 939.57H316.622V937.57H311.747V939.57ZM321.497 939.57H326.372V937.57H321.497V939.57ZM331.247 939.57H336.122V937.57H331.247V939.57ZM340.997 939.57H343.434V937.57H340.997V939.57ZM343.434 939.57C344.288 939.57 345.14 939.568 345.99 939.564L345.98 937.564C345.133 937.568 344.285 937.57 343.434 937.57V939.57ZM351.071 939.515C352.758 939.491 354.439 939.459 356.112 939.418L356.064 937.419C354.397 937.459 352.723 937.491 351.043 937.516L351.071 939.515ZM361.112 939.272C362.802 939.214 364.485 939.148 366.161 939.073L366.072 937.075C364.403 937.15 362.727 937.216 361.044 937.273L361.112 939.272ZM371.232 938.821C372.915 938.728 374.591 938.627 376.26 938.517L376.128 936.522C374.467 936.631 372.798 936.732 371.122 936.824L371.232 938.821ZM381.244 938.162C382.938 938.032 384.624 937.893 386.302 937.745L386.126 935.753C384.456 935.9 382.777 936.038 381.091 936.168L381.244 938.162ZM391.348 937.271C393.022 937.104 394.689 936.928 396.348 936.743L396.126 934.755C394.475 934.939 392.816 935.115 391.149 935.281L391.348 937.271ZM401.314 936.158C403.007 935.949 404.691 935.73 406.367 935.501L406.096 933.52C404.429 933.747 402.753 933.965 401.069 934.173L401.314 936.158ZM411.37 934.787C413.03 934.539 414.681 934.282 416.325 934.015L416.004 932.041C414.369 932.306 412.726 932.562 411.075 932.809L411.37 934.787ZM421.301 933.174C422.974 932.879 424.638 932.575 426.294 932.261L425.921 930.296C424.274 930.608 422.618 930.911 420.954 931.204L421.301 933.174ZM431.236 931.287C432.875 930.952 434.506 930.607 436.129 930.253L435.702 928.299C434.088 928.652 432.466 928.995 430.836 929.328L431.236 931.287ZM441.096 929.128C442.743 928.743 444.381 928.347 446.01 927.941L445.525 926C443.906 926.404 442.278 926.798 440.641 927.181L441.096 929.128ZM450.869 926.69C452.504 926.256 454.131 925.811 455.748 925.355L455.205 923.43C453.598 923.883 451.982 924.325 450.356 924.757L450.869 926.69ZM460.615 923.941C462.228 923.459 463.831 922.966 465.425 922.462L464.822 920.555C463.238 921.056 461.645 921.546 460.042 922.025L460.615 923.941ZM470.212 920.905C471.823 920.367 473.423 919.817 475.014 919.256L474.348 917.37C472.768 917.927 471.178 918.473 469.578 919.008L470.212 920.905ZM479.756 917.537C481.329 916.952 482.893 916.356 484.446 915.747L483.717 913.885C482.174 914.489 480.621 915.082 479.059 915.663L479.756 917.537ZM489.161 913.854C490.723 913.21 492.274 912.555 493.815 911.888L493.02 910.053C491.49 910.715 489.95 911.366 488.4 912.004L489.161 913.854ZM498.407 909.852C499.95 909.151 501.484 908.437 503.006 907.711L502.146 905.906C500.634 906.626 499.112 907.335 497.579 908.031L498.407 909.852ZM507.55 905.493C509.054 904.742 510.547 903.978 512.03 903.202L511.102 901.43C509.631 902.2 508.149 902.958 506.656 903.704L507.55 905.493ZM516.494 900.811C517.975 899.999 519.446 899.175 520.906 898.338L519.911 896.603C518.462 897.433 517.003 898.251 515.533 899.057L516.494 900.811ZM525.252 895.789C526.701 894.921 528.138 894.04 529.565 893.146L528.503 891.451C527.088 892.338 525.661 893.212 524.224 894.074L525.252 895.789ZM533.824 890.418C535.233 889.496 536.63 888.561 538.017 887.614L536.888 885.963C535.513 886.903 534.126 887.83 532.729 888.745L533.824 890.418ZM542.161 884.72C543.535 883.74 544.897 882.747 546.248 881.742L545.054 880.137C543.714 881.135 542.363 882.12 541 883.092L542.161 884.72ZM550.267 878.686C551.599 877.653 552.919 876.607 554.227 875.547L552.969 873.993C551.671 875.044 550.361 876.081 549.041 877.107L550.267 878.686ZM558.124 872.327C559.411 871.241 560.687 870.142 561.952 869.03L560.631 867.528C559.377 868.631 558.111 869.721 556.834 870.799L558.124 872.327ZM565.711 865.656C566.953 864.519 568.183 863.368 569.402 862.205L568.022 860.758C566.812 861.912 565.592 863.053 564.36 864.181L565.711 865.656ZM573.025 858.678C574.218 857.493 575.4 856.294 576.571 855.083L575.133 853.693C573.972 854.894 572.799 856.083 571.615 857.26L573.025 858.678ZM580.044 851.417C581.191 850.183 582.326 848.936 583.45 847.676L581.958 846.344C580.843 847.594 579.716 848.831 578.579 850.056L580.044 851.417ZM586.774 843.875C587.867 842.6 588.95 841.312 590.021 840.012L588.477 838.74C587.414 840.03 586.34 841.308 585.255 842.574L586.774 843.875ZM593.201 836.074C594.244 834.757 595.276 833.427 596.297 832.086L594.706 830.874C593.692 832.206 592.668 833.525 591.633 834.833L593.201 836.074ZM599.313 828.044C600.307 826.685 601.291 825.314 602.263 823.93L600.627 822.78C599.662 824.153 598.686 825.514 597.699 826.863L599.313 828.044ZM605.13 819.771C606.069 818.383 606.996 816.983 607.913 815.572L606.236 814.482C605.326 815.883 604.405 817.273 603.473 818.651L605.13 819.771ZM610.632 811.303C611.523 809.876 612.403 808.438 613.273 806.989L611.558 805.959C610.694 807.399 609.82 808.827 608.936 810.244L610.632 811.303ZM615.824 802.653C616.664 801.197 617.494 799.729 618.314 798.251L616.564 797.281C615.75 798.75 614.926 800.207 614.092 801.654L615.824 802.653ZM620.734 793.795C621.519 792.322 622.293 790.839 623.058 789.344L621.278 788.433C620.518 789.918 619.748 791.392 618.969 792.855L620.734 793.795ZM625.322 784.829C626.067 783.313 626.802 781.787 627.528 780.25L625.719 779.396C624.998 780.924 624.268 782.441 623.527 783.947L625.322 784.829ZM629.633 775.697C630.325 774.172 631.007 772.636 631.679 771.09L629.845 770.292C629.177 771.829 628.499 773.355 627.812 774.872L629.633 775.697ZM633.668 766.421C634.313 764.877 634.948 763.323 635.574 761.759L633.717 761.016C633.095 762.57 632.463 764.115 631.823 765.651L633.668 766.421ZM637.41 757.078C638.013 755.507 638.606 753.928 639.191 752.338L637.314 751.647C636.733 753.228 636.142 754.799 635.543 756.361L637.41 757.078ZM640.908 747.571C641.462 746.001 642.007 744.421 642.543 742.833L640.648 742.193C640.115 743.773 639.573 745.344 639.022 746.906L640.908 747.571ZM644.126 738.04C644.645 736.433 645.156 734.817 645.658 733.192L643.747 732.602C643.248 734.219 642.74 735.826 642.223 737.425L644.126 738.04ZM647.11 728.389C647.583 726.787 648.048 725.177 648.505 723.558L646.58 723.015C646.125 724.626 645.662 726.228 645.191 727.822L647.11 728.389ZM649.851 718.675C650.289 717.05 650.719 715.416 651.14 713.774L649.203 713.276C648.783 714.911 648.356 716.537 647.92 718.155L649.851 718.675ZM652.358 708.918C652.756 707.292 653.146 705.657 653.529 704.014L651.581 703.56C651.2 705.196 650.811 706.824 650.415 708.443L652.358 708.918ZM654.654 699.061C655.016 697.429 655.37 695.789 655.716 694.142L653.759 693.73C653.414 695.371 653.061 697.004 652.702 698.629L654.654 699.061ZM656.723 689.228C657.051 687.582 657.372 685.929 657.686 684.268L655.721 683.897C655.408 685.551 655.088 687.198 654.761 688.837L656.723 689.228ZM658.605 679.262C658.897 677.625 659.183 675.982 659.461 674.331L657.489 673.998C657.212 675.643 656.927 677.28 656.636 678.911L658.605 679.262ZM660.272 669.374C660.536 667.714 660.792 666.048 661.042 664.374L659.064 664.078C658.815 665.746 658.56 667.407 658.297 669.06L660.272 669.374ZM661.771 659.333C662 657.692 662.224 656.043 662.44 654.388L660.457 654.128C660.241 655.778 660.019 657.42 659.79 659.056L661.771 659.333ZM663.071 649.402C663.274 647.733 663.471 646.057 663.662 644.375L661.675 644.15C661.485 645.826 661.288 647.496 661.085 649.16L663.071 649.402ZM664.214 639.317C664.387 637.668 664.553 636.013 664.714 634.351L662.723 634.159C662.563 635.815 662.397 637.465 662.225 639.108L664.214 639.317ZM665.178 629.348C665.326 627.674 665.468 625.993 665.604 624.306L663.611 624.145C663.475 625.827 663.333 627.502 663.185 629.171L665.178 629.348ZM665.994 619.226C666.115 617.573 666.23 615.915 666.339 614.25L664.343 614.12C664.234 615.779 664.12 617.433 664 619.081L665.994 619.226ZM666.648 609.239C666.745 607.563 666.837 605.881 666.923 604.193L664.926 604.091C664.84 605.774 664.749 607.452 664.651 609.123L666.648 609.239ZM667.163 599.11C667.236 597.448 667.303 595.78 667.365 594.107L665.366 594.033C665.305 595.702 665.238 597.365 665.165 599.023L667.163 599.11ZM667.532 589.097C667.583 587.422 667.628 585.741 667.667 584.054L665.668 584.007C665.628 585.689 665.584 587.366 665.533 589.037L667.532 589.097ZM667.77 578.977C667.784 578.128 667.797 577.278 667.808 576.426L665.809 576.399C665.797 577.248 665.784 578.096 665.77 578.943L667.77 578.977ZM667.809 576.412V573.932H665.809V576.412H667.809ZM667.809 568.97V564.008H665.809V568.97H667.809ZM667.809 559.046V554.085H665.809V559.046H667.809ZM667.809 549.123V544.161H665.809V549.123H667.809ZM667.809 539.199V534.238H665.809V539.199H667.809ZM667.809 529.276V524.314H665.809V529.276H667.809ZM667.809 519.352V514.391H665.809V519.352H667.809ZM667.809 509.429V504.467H665.809V509.429H667.809ZM667.809 499.505V494.544H665.809V499.505H667.809ZM667.809 489.582V484.62H665.809V489.582H667.809ZM667.809 479.658V474.697H665.809V479.658H667.809ZM667.809 469.735V464.773H665.809V469.735H667.809ZM667.809 459.811V454.85H665.809V459.811H667.809ZM667.809 449.888V444.926H665.809V449.888H667.809ZM667.809 439.964V435.003H665.809V439.964H667.809ZM667.809 430.041V425.079H665.809V430.041H667.809ZM667.809 420.117V415.156H665.809V420.117H667.809ZM667.809 410.194V405.232H665.809V410.194H667.809ZM667.809 400.27V395.309H665.809V400.27H667.809ZM667.809 390.347V385.385H665.809V390.347H667.809ZM667.809 380.423V375.462H665.809V380.423H667.809ZM667.809 370.5V365.538H665.809V370.5H667.809ZM667.809 360.577V355.615H665.809V360.577H667.809ZM667.809 350.653V345.691H665.809V350.653H667.809ZM667.809 340.73V335.768H665.809V340.73H667.809ZM667.809 330.806V325.844H665.809V330.806H667.809ZM667.809 320.883V315.921H665.809V320.883H667.809ZM667.809 310.959V305.997H665.809V310.959H667.809ZM667.809 301.035V296.074H665.809V301.035H667.809ZM667.809 291.112V286.15H665.809V291.112H667.809ZM667.809 281.188V276.227H665.809V281.188H667.809ZM667.809 271.265V266.303H665.809V271.265H667.809ZM667.809 261.341V256.38H665.809V261.341H667.809ZM667.809 251.418V246.456H665.809V251.418H667.809ZM667.809 241.494V236.533H665.809V241.494H667.809ZM667.809 231.571V226.609H665.809V231.571H667.809ZM667.809 221.647V216.686H665.809V221.647H667.809ZM667.809 211.724V206.762H665.809V211.724H667.809ZM667.809 201.8V196.839H665.809V201.8H667.809ZM667.809 191.877V186.915H665.809V191.877H667.809ZM667.809 181.953V176.991H665.809V181.953H667.809ZM667.809 172.03V167.068H665.809V172.03H667.809ZM667.809 162.106V157.144H665.809V162.106H667.809ZM667.809 152.183V147.221H665.809V152.183H667.809ZM667.809 142.259V137.297H665.809V142.259H667.809ZM667.809 132.336V127.374H665.809V132.336H667.809ZM667.809 122.412V117.45H665.809V122.412H667.809ZM667.809 112.489V107.527H665.809V112.489H667.809ZM667.809 102.565V97.6033H665.809V102.565H667.809ZM667.809 92.6415V87.6797H665.809V92.6415H667.809ZM667.809 82.718V77.7562H665.809V82.718H667.809ZM667.809 72.7945V67.8327H665.809V72.7945H667.809ZM667.809 62.871V57.9092H665.809V62.871H667.809ZM667.809 52.9475V47.9858H665.809V52.9475H667.809ZM667.809 43.0241V38.0623H665.809V43.0241H667.809ZM667.809 33.1006V28.1389H665.809V33.1006H667.809ZM667.809 23.1771V18.2154H665.809V23.1771H667.809ZM667.809 13.2537V8.29193H665.809V13.2537H667.809ZM667.809 3.33019V0.849854H665.809V3.33019H667.809ZM666.809 -0.150146H664.348V1.84985H666.809V-0.150146ZM659.425 -0.150146H654.503V1.84985H659.425V-0.150146ZM649.581 -0.150146H644.659V1.84985H649.581V-0.150146ZM639.737 -0.150146H634.815V1.84985H639.737V-0.150146ZM629.892 -0.150146H624.97V1.84985H629.892V-0.150146ZM620.048 -0.150146H615.126V1.84985H620.048V-0.150146ZM610.204 -0.150146H605.282V1.84985H610.204V-0.150146ZM600.359 -0.150146H595.437V1.84985H600.359V-0.150146ZM590.515 -0.150146H585.593V1.84985H590.515V-0.150146ZM580.671 -0.150146H575.749V1.84985H580.671V-0.150146ZM570.826 -0.150146H565.904V1.84985H570.826V-0.150146ZM560.982 -0.150146H556.06V1.84985H560.982V-0.150146ZM551.138 -0.150146H546.216V1.84985H551.138V-0.150146ZM541.294 -0.150146H536.371V1.84985H541.294V-0.150146ZM531.449 -0.150146H526.527V1.84985H531.449V-0.150146ZM521.605 -0.150146H516.683V1.84985H521.605V-0.150146ZM511.761 -0.150146H506.838V1.84985H511.761V-0.150146ZM501.916 -0.150146H496.994V1.84985H501.916V-0.150146ZM492.072 -0.150146H487.15V1.84985H492.072V-0.150146ZM482.228 -0.150146H477.305V1.84985H482.228V-0.150146ZM472.383 -0.150146H467.461V1.84985H472.383V-0.150146ZM462.539 -0.150146H457.617V1.84985H462.539V-0.150146ZM452.695 -0.150146H450.234V1.84985H452.695V-0.150146ZM449.234 0.849854V3.32969H451.234V0.849854H449.234ZM449.234 8.28936V13.249H451.234V8.28936H449.234ZM449.234 18.2087V23.1684H451.234V18.2087H449.234ZM449.234 28.128V33.0877H451.234V28.128H449.234ZM449.234 38.0474V43.0071H451.234V38.0474H449.234ZM449.234 47.9667V52.9264H451.234V47.9667H449.234ZM449.234 57.8861V62.8457H451.234V57.8861H449.234ZM449.234 67.8054V72.7651H451.234V67.8054H449.234ZM449.234 77.7247V82.6844H451.234V77.7247H449.234ZM449.234 87.6441V92.6038H451.234V87.6441H449.234ZM449.234 97.5634V102.523H451.234V97.5634H449.234ZM449.234 107.483V112.442H451.234V107.483H449.234ZM449.234 117.402V122.362H451.234V117.402H449.234ZM449.234 127.321V132.281H451.234V127.321H449.234ZM449.234 137.241V142.2H451.234V137.241H449.234ZM449.234 147.16V152.12H451.234V147.16H449.234ZM449.234 157.079V162.039H451.234V157.079H449.234ZM449.234 166.999V171.958H451.234V166.999H449.234ZM449.234 176.918V181.878H451.234V176.918H449.234ZM449.234 186.838V191.797H451.234V186.838H449.234ZM449.234 196.757V201.717H451.234V196.757H449.234ZM449.234 206.676V211.636H451.234V206.676H449.234ZM449.234 216.596V221.555H451.234V216.596H449.234ZM449.234 226.515V231.475H451.234V226.515H449.234ZM449.234 236.434V241.394H451.234V236.434H449.234ZM449.234 246.354V251.313H451.234V246.354H449.234ZM449.234 256.273V261.233H451.234V256.273H449.234ZM449.234 266.192V271.152H451.234V266.192H449.234ZM449.234 276.112V281.071H451.234V276.112H449.234ZM449.234 286.031V290.99H451.234V286.031H449.234ZM449.234 295.95V300.91H451.234V295.95H449.234ZM449.234 305.869V310.829H451.234V305.869H449.234ZM449.234 315.789V320.748H451.234V315.789H449.234ZM449.234 325.708V330.668H451.234V325.708H449.234ZM449.234 335.627V340.587H451.234V335.627H449.234ZM449.234 345.547V350.506H451.234V345.547H449.234ZM449.234 355.466V360.426H451.234V355.466H449.234ZM449.234 365.385V370.345H451.234V365.385H449.234ZM449.234 375.305V380.264H451.234V375.305H449.234ZM449.234 385.224V390.184H451.234V385.224H449.234ZM449.234 395.143V400.103H451.234V395.143H449.234ZM449.234 405.063V410.022H451.234V405.063H449.234ZM449.234 414.982V419.942H451.234V414.982H449.234ZM449.234 424.901V429.861H451.234V424.901H449.234ZM449.234 434.82V439.78H451.234V434.82H449.234ZM449.234 444.74V449.699H451.234V444.74H449.234ZM449.234 454.659V459.619H451.234V454.659H449.234ZM449.234 464.578V469.538H451.234V464.578H449.234ZM449.234 474.498V479.457H451.234V474.498H449.234ZM449.234 484.417V489.377H451.234V484.417H449.234ZM449.234 494.336V499.296H451.234V494.336H449.234ZM449.234 504.256V509.215H451.234V504.256H449.234ZM449.234 514.175V519.135H451.234V514.175H449.234ZM449.234 524.094V529.054H451.234V524.094H449.234ZM449.234 534.014V538.973H451.234V534.014H449.234ZM449.234 543.933V548.893H451.234V543.933H449.234ZM449.234 553.852V558.812H451.234V553.852H449.234ZM449.234 563.772V568.731H451.234V563.772H449.234ZM449.234 573.691V576.172H451.234V573.691H449.234ZM449.234 576.172C449.234 577.005 449.231 577.833 449.226 578.658L451.226 578.67C451.231 577.841 451.234 577.009 451.234 576.172H449.234ZM449.166 583.556C449.136 585.206 449.095 586.839 449.044 588.455L451.043 588.518C451.094 586.894 451.135 585.252 451.166 583.593L449.166 583.556ZM448.856 593.342C448.781 594.995 448.695 596.628 448.598 598.244L450.594 598.364C450.692 596.739 450.779 595.095 450.854 593.433L448.856 593.342ZM448.267 603.107C448.142 604.761 448.004 606.395 447.855 608.01L449.846 608.194C449.997 606.568 450.135 604.923 450.261 603.258L448.267 603.107ZM447.365 612.84C447.182 614.493 446.987 616.124 446.778 617.734L448.762 617.991C448.972 616.368 449.169 614.725 449.353 613.059L447.365 612.84ZM446.103 622.567C445.859 624.198 445.6 625.805 445.327 627.39L447.298 627.729C447.574 626.13 447.834 624.508 448.081 622.864L446.103 622.567ZM444.44 632.214C444.125 633.827 443.793 635.414 443.447 636.977L445.4 637.409C445.75 635.831 446.084 634.227 446.403 632.599L444.44 632.214ZM442.326 641.74C441.925 643.345 441.508 644.922 441.074 646.472L443 647.011C443.439 645.443 443.861 643.847 444.266 642.225L442.326 641.74ZM439.691 651.138C439.199 652.709 438.688 654.25 438.159 655.761L440.047 656.422C440.583 654.889 441.101 653.327 441.599 651.735L439.691 651.138ZM436.463 660.351C435.865 661.885 435.246 663.388 434.607 664.857L436.441 665.654C437.09 664.161 437.719 662.635 438.327 661.077L436.463 660.351ZM432.58 669.276C431.866 670.751 431.13 672.192 430.373 673.598L432.133 674.546C432.905 673.115 433.654 671.648 434.38 670.147L432.58 669.276ZM427.961 677.836C427.116 679.244 426.247 680.614 425.354 681.946L427.015 683.059C427.927 681.699 428.814 680.301 429.676 678.865L427.961 677.836ZM422.545 685.911C421.566 687.22 420.561 688.488 419.532 689.717L421.065 691.002C422.118 689.744 423.145 688.447 424.146 687.11L422.545 685.911ZM416.312 693.347C415.198 694.534 414.057 695.679 412.89 696.784L414.265 698.236C415.46 697.104 416.629 695.931 417.77 694.716L416.312 693.347ZM409.271 700.012C408.029 701.055 406.76 702.056 405.465 703.018L406.657 704.624C407.984 703.639 409.285 702.612 410.557 701.543L409.271 700.012ZM401.485 705.791C400.131 706.675 398.751 707.519 397.345 708.324L398.339 710.06C399.778 709.236 401.192 708.371 402.578 707.465L401.485 705.791ZM393.065 710.613C391.623 711.332 390.155 712.014 388.662 712.658L389.455 714.494C390.981 713.836 392.482 713.139 393.958 712.403L393.065 710.613ZM384.154 714.464C382.645 715.023 381.113 715.548 379.557 716.038L380.157 717.945C381.744 717.446 383.308 716.911 384.849 716.34L384.154 714.464ZM374.885 717.388C373.33 717.799 371.753 718.178 370.154 718.526L370.579 720.48C372.206 720.126 373.812 719.74 375.396 719.322L374.885 717.388ZM365.373 719.463C363.786 719.74 362.179 719.989 360.552 720.21L360.821 722.192C362.473 721.968 364.105 721.715 365.718 721.433L365.373 719.463ZM355.702 720.78C354.102 720.94 352.485 721.074 350.849 721.183L350.983 723.179C352.639 723.068 354.279 722.932 355.9 722.771L355.702 720.78ZM345.981 721.433C345.165 721.463 344.346 721.486 343.522 721.504L343.566 723.504C344.399 723.486 345.228 723.462 346.053 723.432L345.981 721.433ZM343.544 721.504H341.107V723.504H343.544V721.504ZM336.232 721.504H331.357V723.504H336.232V721.504ZM326.482 721.504H321.607V723.504H326.482V721.504ZM316.732 721.504H311.857V723.504H316.732V721.504ZM306.982 721.504H302.107V723.504H306.982V721.504ZM297.232 721.504H292.357V723.504H297.232V721.504ZM287.482 721.504H282.607V723.504H287.482V721.504ZM277.732 721.504H272.857V723.504H277.732V721.504ZM267.982 721.504H263.107V723.504H267.982V721.504ZM258.233 721.504H253.358V723.504H258.233V721.504ZM248.483 721.504H243.608V723.504H248.483V721.504ZM238.733 721.504H233.858V723.504H238.733V721.504ZM228.983 721.504H224.108V723.504H228.983V721.504ZM219.233 721.504H216.795V723.504H219.233V721.504ZM217.795 722.504V719.998H215.795V722.504H217.795ZM217.795 714.987V709.975H215.795V714.987H217.795ZM217.795 704.964V699.952H215.795V704.964H217.795ZM217.795 694.941V689.929H215.795V694.941H217.795ZM217.795 684.918V679.906H215.795V684.918H217.795ZM217.795 674.895V669.883H215.795V674.895H217.795ZM217.795 664.872V659.86H215.795V664.872H217.795ZM217.795 654.849V649.837H215.795V654.849H217.795ZM217.795 644.826V639.815H215.795V644.826H217.795ZM217.795 634.803V629.792H215.795V634.803H217.795ZM217.795 624.78V619.768H215.795V624.78H217.795ZM217.795 614.757V609.746H215.795V614.757H217.795ZM217.795 604.734V599.723H215.795V604.734H217.795ZM217.795 594.711V589.7H215.795V594.711H217.795ZM217.795 584.688V579.677H215.795V584.688H217.795ZM217.795 574.665V569.654H215.795V574.665H217.795ZM217.795 564.642V559.631H215.795V564.642H217.795ZM217.795 554.619V549.608H215.795V554.619H217.795ZM217.795 544.596V539.585H215.795V544.596H217.795ZM217.795 534.573V529.562H215.795V534.573H217.795ZM217.795 524.55V519.539H215.795V524.55H217.795ZM217.795 514.527V509.516H215.795V514.527H217.795ZM217.795 504.504V499.493H215.795V504.504H217.795ZM217.795 494.481V489.47H215.795V494.481H217.795ZM217.795 484.458V479.447H215.795V484.458H217.795ZM217.795 474.435V469.424H215.795V474.435H217.795ZM217.795 464.412V459.401H215.795V464.412H217.795ZM217.795 454.389V449.378H215.795V454.389H217.795ZM217.795 444.366V439.355H215.795V444.366H217.795ZM217.795 434.344V429.332H215.795V434.344H217.795ZM217.795 424.321V419.309H215.795V424.321H217.795ZM217.795 414.298V409.286H215.795V414.298H217.795ZM217.795 404.275V399.263H215.795V404.275H217.795ZM217.795 394.252V389.24H215.795V394.252H217.795ZM217.795 384.229V379.217H215.795V384.229H217.795ZM217.795 374.206V369.194H215.795V374.206H217.795ZM217.795 364.183V359.171H215.795V364.183H217.795ZM217.795 354.16V349.148H215.795V354.16H217.795ZM217.795 344.137V339.126H215.795V344.137H217.795ZM217.795 334.114V329.103H215.795V334.114H217.795ZM217.795 324.091V319.08H215.795V324.091H217.795ZM217.795 314.068V309.057H215.795V314.068H217.795ZM217.795 304.045V299.034H215.795V304.045H217.795ZM217.795 294.022V289.011H215.795V294.022H217.795ZM217.795 283.999V278.988H215.795V283.999H217.795ZM217.795 273.976V268.965H215.795V273.976H217.795ZM217.795 263.953V258.942H215.795V263.953H217.795ZM217.795 253.93V248.919H215.795V253.93H217.795ZM217.795 243.907V238.896H215.795V243.907H217.795ZM217.795 233.885V228.873H215.795V233.885H217.795ZM217.795 223.862V218.85H215.795V223.862H217.795ZM217.795 213.839V208.827H215.795V213.839H217.795ZM217.795 203.816V198.804H215.795V203.816H217.795ZM217.795 193.793V188.781H215.795V193.793H217.795ZM217.795 183.77V178.758H215.795V183.77H217.795ZM217.795 173.747V168.735H215.795V173.747H217.795ZM217.795 163.724V158.712H215.795V163.724H217.795ZM217.795 153.701V148.689H215.795V153.701H217.795ZM217.795 143.678V138.667H215.795V143.678H217.795ZM217.795 133.655V128.644H215.795V133.655H217.795ZM217.795 123.632V118.621H215.795V123.632H217.795ZM217.795 113.609V108.598H215.795V113.609H217.795ZM217.795 103.586V98.5747H215.795V103.586H217.795ZM217.795 93.5632V88.5518H215.795V93.5632H217.795ZM217.795 83.5403V78.5288H215.795V83.5403H217.795ZM217.795 73.5173V68.5059H215.795V73.5173H217.795ZM217.795 63.4944V58.4829H215.795V63.4944H217.795ZM217.795 53.4714V48.46H215.795V53.4714H217.795ZM217.795 43.4485V38.437H215.795V43.4485H217.795ZM217.795 33.4256V28.414H215.795V33.4256H217.795ZM217.795 23.4026V18.3911H215.795V23.4026H217.795ZM217.795 13.3796V8.36817H215.795V13.3796H217.795ZM217.795 3.35671V0.849854H215.795V3.35671H217.795ZM216.795 -0.150146H214.332V1.84985H216.795V-0.150146ZM209.405 -0.150146H204.478V1.84985H209.405V-0.150146ZM199.55 -0.150146H194.623V1.84985H199.55V-0.150146ZM189.696 -0.150146H184.769V1.84985H189.696V-0.150146ZM179.842 -0.150146H174.915V1.84985H179.842V-0.150146ZM169.987 -0.150146H165.06V1.84985H169.987V-0.150146ZM160.133 -0.150146H155.206V1.84985H160.133V-0.150146ZM150.279 -0.150146H145.352V1.84985H150.279V-0.150146ZM140.424 -0.150146H135.497V1.84985H140.424V-0.150146ZM130.57 -0.150146H125.643V1.84985H130.57V-0.150146ZM120.716 -0.150146H115.788V1.84985H120.716V-0.150146ZM110.861 -0.150146H105.934V1.84985H110.861V-0.150146ZM101.007 -0.150146H96.0798V1.84985H101.007V-0.150146ZM91.1526 -0.150146H86.2255V1.84985H91.1526V-0.150146ZM81.2983 -0.150146H76.3711V1.84985H81.2983V-0.150146ZM71.444 -0.150146H66.5168V1.84985H71.444V-0.150146ZM61.5896 -0.150146H56.6624V1.84985H61.5896V-0.150146ZM51.7353 -0.150146H46.8081V1.84985H51.7353V-0.150146ZM41.8809 -0.150146H36.9538V1.84985H41.8809V-0.150146ZM32.0266 -0.150146H27.0994V1.84985H32.0266V-0.150146ZM22.1723 -0.150146H17.2451V1.84985H22.1723V-0.150146ZM12.3179 -0.150146H7.39075V1.84985H12.3179V-0.150146ZM2.46358 -0.150146H0V1.84985H2.46358V-0.150146Z" fill="#F1F1F2" mask="url(#path-5-inside-1_2031_69)"/>
</g>
<path d="M341.061 927.097C341.061 926.746 341.021 926.526 340.901 926.438C340.782 926.351 340.582 926.307 340.222 926.307H340.022V925.56H344.497V926.307H344.297C343.938 926.307 343.698 926.351 343.618 926.438C343.498 926.526 343.458 926.746 343.458 927.097V931.225C343.458 932.411 343.179 933.289 342.659 933.86C342.14 934.431 341.66 934.783 340.142 934.783C337.546 934.783 336.946 933.158 336.946 932.367C336.946 931.84 337.346 930.874 338.424 930.874C339.503 930.874 339.863 931.752 339.863 932.06C339.863 932.85 339.064 932.762 339.064 933.202C339.104 933.553 339.263 933.816 339.943 933.816C341.101 933.816 341.101 932.411 341.101 931.665V927.097H341.061Z" fill="#4A4A4A"/>
<path d="M352.527 927.756V933.114C352.527 933.377 352.567 933.553 352.647 933.641C352.727 933.729 352.887 933.772 353.166 933.772H353.526V934.431H350.41V933.597C350.05 934.519 348.892 934.607 348.412 934.607C347.373 934.607 345.775 934.299 345.775 932.148V929.073C345.775 928.81 345.735 928.634 345.656 928.546C345.576 928.459 345.416 928.415 345.136 928.415H344.737V927.756H348.093V932.148C348.093 932.543 348.172 932.85 348.332 933.026C348.492 933.245 348.732 933.333 349.011 933.333C349.371 933.333 349.611 933.202 349.81 932.938C350.01 932.675 350.09 932.323 350.09 931.84V929.073C350.09 928.81 350.05 928.634 349.97 928.546C349.89 928.459 349.451 928.415 349.171 928.415H349.051V927.756H352.527Z" fill="#4A4A4A"/>
<path d="M357.441 925.648V933.114C357.441 933.421 357.481 933.597 357.561 933.685C357.641 933.772 357.801 933.816 358.04 933.816H358.4V934.475H354.165V933.816H354.525C354.764 933.816 354.964 933.772 355.044 933.685C355.124 933.597 355.164 933.421 355.164 933.158V927.185C355.164 926.833 355.124 926.57 355.044 926.482C354.964 926.394 354.804 926.35 354.565 926.35H354.165V925.692H357.441V925.648Z" fill="#4A4A4A"/>
<path d="M359.918 925.868C359.918 925.604 360.078 925.341 360.357 925.165C360.637 924.989 360.997 924.857 361.396 924.857C361.796 924.857 362.155 924.945 362.435 925.165C362.714 925.341 362.874 925.604 362.874 925.868C362.874 926.131 362.714 926.395 362.435 926.57C362.155 926.746 361.796 926.878 361.396 926.878C360.997 926.878 360.637 926.79 360.357 926.57C360.078 926.395 359.918 926.131 359.918 925.868ZM360.477 929.249V929.161C360.477 928.81 360.437 928.59 360.357 928.503C360.277 928.415 360.118 928.371 359.878 928.371H359.438V927.712H362.674V933.07C362.674 933.333 362.714 933.509 362.794 933.597C362.874 933.685 363.034 933.729 363.274 933.729H363.793V934.387H359.438V933.729H359.838C360.078 933.729 360.277 933.685 360.357 933.597C360.437 933.509 360.477 933.333 360.477 933.07V929.249Z" fill="#4A4A4A"/>
<path d="M372.063 927.756V933.114C372.063 933.377 372.103 933.553 372.183 933.641C372.263 933.729 372.423 933.772 372.702 933.772H373.062V934.431H369.946V933.597C369.586 934.519 368.427 934.607 367.948 934.607C366.909 934.607 365.311 934.299 365.311 932.148V929.073C365.311 928.81 365.271 928.634 365.191 928.546C365.112 928.459 364.952 928.415 364.672 928.415H364.273V927.756H367.628V932.148C367.628 932.543 367.708 932.85 367.868 933.026C368.028 933.245 368.268 933.333 368.547 933.333C368.907 933.333 369.147 933.202 369.346 932.938C369.546 932.675 369.626 932.323 369.626 931.84V929.073C369.626 928.81 369.586 928.634 369.506 928.546C369.426 928.459 368.987 928.415 368.707 928.415H368.587V927.756H372.063Z" fill="#4A4A4A"/>
<path d="M374.14 934.343V932.455H374.62C374.66 932.762 374.82 933.201 374.859 933.245C374.939 933.289 375.059 933.465 376.098 933.421C377.137 933.421 377.376 933.158 377.376 932.674C377.376 931.62 375.299 931.752 374.58 931.181C373.861 930.61 373.901 929.996 373.901 929.688C373.901 928.063 375.459 927.58 376.737 927.58C377.137 927.58 378.895 927.624 379.254 927.8V929.556H378.735C378.735 929.293 378.615 928.898 378.535 928.898C378.375 928.81 377.616 928.678 376.937 928.678C376.258 928.678 376.018 929.161 376.018 929.381C376.058 929.996 376.298 930.083 377.336 930.347C378.335 930.61 379.534 930.874 379.534 932.323C379.534 932.982 378.855 934.475 377.057 934.475C375.259 934.475 374.14 934.343 374.14 934.343Z" fill="#4A4A4A"/>
<path d="M387.044 932.982C387.044 933.333 387.084 933.509 387.204 933.597C387.284 933.685 387.524 933.729 387.883 933.729H388.123V934.387H385.167V933.729H385.406C385.766 933.729 386.006 933.685 386.086 933.597C386.166 933.509 386.245 933.289 386.245 932.982V927.009C386.245 926.658 386.205 926.482 386.086 926.395C386.006 926.307 385.766 926.263 385.406 926.263H385.167V925.604H388.523L390.64 930.523L392.837 925.604H396.073V926.263H395.794C395.434 926.263 395.194 926.307 395.114 926.395C394.995 926.482 394.955 926.702 394.955 927.009V932.982C394.955 933.333 394.995 933.509 395.114 933.597C395.234 933.685 395.434 933.729 395.794 933.729H396.073V934.387H391.639V933.729H391.918C392.278 933.729 392.478 933.685 392.598 933.597C392.677 933.509 392.757 933.289 392.757 932.982V927.976L389.961 934.387H389.761L387.044 928.151V932.982Z" fill="#4A4A4A"/>
<path d="M402.665 932.235H403.224C403.224 933.07 403.264 933.641 403.105 934.124C402.266 934.431 400.987 934.651 400.108 934.651C399.07 934.651 398.271 934.343 397.631 933.685C396.992 933.026 396.713 932.191 396.713 931.137C396.713 930.039 397.032 929.161 397.631 928.502C398.231 927.844 399.03 927.536 400.068 927.536C401.147 927.536 401.946 927.844 402.545 928.458C403.145 929.073 403.344 929.952 403.344 931.093V931.357H398.91V931.489C398.91 932.103 399.03 932.543 399.229 932.85C399.429 933.158 399.709 933.509 400.827 933.509C401.227 933.509 402.066 933.421 402.306 933.201C402.585 933.026 402.625 932.63 402.665 932.235ZM398.95 930.215H401.307V930.171C401.307 929.688 401.227 929.337 401.027 929.117C400.867 928.898 400.508 928.766 400.148 928.766C399.829 928.766 399.389 928.898 399.229 929.161C399.03 929.381 398.95 929.732 398.95 930.215Z" fill="#4A4A4A"/>
<path d="M404.903 925.868C404.903 925.604 405.062 925.341 405.342 925.165C405.622 924.989 405.981 924.857 406.381 924.857C406.78 924.857 407.14 924.945 407.419 925.165C407.699 925.341 407.859 925.604 407.859 925.868C407.859 926.131 407.699 926.395 407.419 926.57C407.14 926.746 406.78 926.878 406.381 926.878C405.981 926.878 405.622 926.79 405.342 926.57C405.022 926.395 404.903 926.131 404.903 925.868ZM405.422 929.249V929.161C405.422 928.81 405.382 928.59 405.302 928.503C405.222 928.415 405.062 928.371 404.823 928.371H404.423V927.712H407.659V933.07C407.659 933.333 407.699 933.509 407.779 933.597C407.859 933.685 408.019 933.729 408.258 933.729H408.778V934.387H404.423V933.729H404.823C405.062 933.729 405.262 933.685 405.342 933.597C405.422 933.509 405.462 933.333 405.462 933.07V929.249H405.422Z" fill="#4A4A4A"/>
<path d="M409.417 934.431V933.772H409.776C410.016 933.772 410.216 933.728 410.296 933.641C410.376 933.553 410.416 933.377 410.416 933.114V929.073C410.416 928.81 410.376 928.634 410.296 928.546C410.216 928.458 410.056 928.414 409.776 928.414H409.417V927.756H412.533V928.59C412.893 927.668 414.051 927.58 414.531 927.58C415.569 927.58 417.167 927.887 417.167 930.039V933.114C417.167 933.377 417.207 933.553 417.287 933.641C417.367 933.728 417.527 933.772 417.807 933.772H418.206V934.431H414.85V930.039C414.85 929.644 414.77 929.337 414.61 929.161C414.451 928.941 414.211 928.854 413.931 928.854C413.572 928.854 413.332 928.985 413.132 929.249C412.933 929.512 412.853 929.864 412.853 930.347V933.114C412.853 933.377 412.893 933.553 412.972 933.641C413.052 933.728 413.492 933.772 413.771 933.772H413.891V934.431H409.417Z" fill="#4A4A4A"/>
<path d="M422.041 925.648V933.114C422.041 933.421 422.081 933.597 422.161 933.685C422.241 933.772 422.401 933.816 422.641 933.816H423V934.475H418.765V933.816H419.125C419.365 933.816 419.564 933.772 419.644 933.685C419.724 933.597 419.764 933.421 419.764 933.158V927.185C419.764 926.833 419.724 926.57 419.644 926.482C419.564 926.394 419.405 926.35 419.165 926.35H418.765V925.692H422.041V925.648Z" fill="#4A4A4A"/>
<path fill-rule="evenodd" clip-rule="evenodd" d="M402.346 869.39C402.465 867.37 402.306 865.613 401.427 864.34C400.588 863.066 398.311 862.539 396.992 863.725C396.313 863.242 395.394 863.769 395.075 864.34C393.836 863.11 392.358 862.144 390.84 861.266C389.442 863.681 387.524 865.965 385.526 867.941C383.649 869.742 381.531 871.367 379.294 873.211C375.818 876.022 372.143 879.799 369.266 883.444C368.827 884.015 368.188 885.113 367.988 885.113C367.948 885.113 367.589 884.673 367.549 884.629C365.991 883.619 364.992 886.298 366.27 887.396C365.791 887.572 365.591 888.011 365.631 888.494C365.671 889.109 366.19 889.153 366.35 889.592C365.911 890.822 365.831 891.832 365.911 892.754C366.11 895.169 368.028 896.751 368.627 898.507C369.227 900.352 367.788 900.923 367.269 902.284C367.628 902.987 368.467 903.162 369.187 903.47C369.187 903.909 368.947 904.172 368.907 904.568C369.506 904.612 369.666 904.612 370.265 904.787C370.145 905.183 370.026 905.534 370.185 905.973H371.624C372.502 906.5 372.343 907.861 373.262 908.257C374.54 908.828 375.659 907.774 376.857 907.466C377.576 908.169 377.936 909.223 377.936 910.453C377.936 913.922 375.379 916.864 374.061 919.104C374.82 919.851 375.938 920.07 377.217 920.114C382.89 920.158 384.847 914.361 388.243 911.375C389.362 910.365 390.6 909.75 392.038 909.091C389.921 908.345 387.284 907.071 385.726 905.314C384.727 904.216 383.888 902.504 384.368 900.527C385.486 901.01 386.765 900.527 386.645 899.034C387.963 899.21 388.283 897.234 387.444 896.531C387.204 896.311 386.645 896.575 386.525 896.443C386.685 890.734 388.683 886.43 390.76 882.653C392.598 879.359 394.915 876.153 397.352 873.694C397.671 873.387 398.071 872.86 398.51 872.816C396.992 876.9 395.035 881.511 395.714 887.308C397.072 887.572 398.67 887.528 400.228 887.528C399.909 885.64 399.709 883.883 399.789 882.082C399.989 877.647 402.106 873.475 402.346 869.39ZM399.549 869.961C398.71 868.775 397.991 867.414 397.032 866.404C397.512 866.009 397.871 865.526 397.751 864.515C400.628 863.418 400.468 868.073 399.549 869.961Z" fill="#4A4A4A"/>
</svg>
