<svg width="60" height="127" viewBox="0 0 60 127" fill="none" xmlns="http://www.w3.org/2000/svg">
<path d="M30.9124 108.755L30.9224 108.755C34.0036 108.693 36.5624 107.827 38.3373 105.769C40.1004 103.724 41.0124 100.591 41.0124 96.168V29.9138C41.0124 25.491 40.103 22.3581 38.3412 20.3134C36.5673 18.2546 34.0084 17.3884 30.9223 17.327L30.9223 17.3269H30.9124H19.5074H19.0074V17.8269V108.255V108.755H19.5074L30.9124 108.755ZM19.5074 0.5H30.9124C40.4425 0.5 47.4955 3.10976 52.2053 8.0414C56.9196 12.9777 59.3617 20.3189 59.5 29.9374V96.184C59.3567 105.793 56.9123 113.129 52.1968 118.063C47.4857 122.992 40.4325 125.602 30.9025 125.602H19.4975H0.5V108.265V17.8369V0.5H19.5074Z" fill="#F1F1F2" stroke="#F1F1F2"/>
</svg>
