<svg width="667" height="590" viewBox="0 0 667 590" fill="none" xmlns="http://www.w3.org/2000/svg">
<line x1="450.5" y1="420" x2="450.5" y2="440" stroke="#8C8C8C"/>
<line x1="460" y1="430.5" x2="440" y2="430.5" stroke="#8C8C8C"/>
<g opacity="0.2">
<mask id="path-3-inside-1_2016_65" fill="white">
<path d="M343.544 0.895386C557.363 0.895386 663.722 128.56 666.809 363.294V589.849H450.233V363.054C450.233 257.309 410.225 218.166 343.544 216.721H216.796V589.849H0V0.895386H343.544Z"/>
</mask>
<path d="M666.809 363.294H667.309L667.309 363.287L666.809 363.294ZM666.809 589.849V590.349H667.309V589.849H666.809ZM450.233 589.849H449.733V590.349H450.233V589.849ZM343.544 216.721L343.555 216.221H343.544V216.721ZM216.796 216.721V216.221H216.296V216.721H216.796ZM216.796 589.849V590.349H217.296V589.849H216.796ZM0 589.849H-0.5V590.349H0V589.849ZM0 0.895386V0.395386H-0.5V0.895386H0ZM343.544 0.895386V0.395386H341.018V0.895386V1.39539H343.544V0.895386ZM335.966 0.895386V0.395386H330.914V0.895386V1.39539H335.966V0.895386ZM325.862 0.895386V0.395386H320.809V0.895386V1.39539H325.862V0.895386ZM315.757 0.895386V0.395386H310.705V0.895386V1.39539H315.757V0.895386ZM305.653 0.895386V0.395386H300.601V0.895386V1.39539H305.653V0.895386ZM295.549 0.895386V0.395386H290.497V0.895386V1.39539H295.549V0.895386ZM285.445 0.895386V0.395386H280.392V0.895386V1.39539H285.445V0.895386ZM275.34 0.895386V0.395386H270.288V0.895386V1.39539H275.34V0.895386ZM265.236 0.895386V0.395386H260.184V0.895386V1.39539H265.236V0.895386ZM255.132 0.895386V0.395386H250.08V0.895386V1.39539H255.132V0.895386ZM245.028 0.895386V0.395386H239.976V0.895386V1.39539H245.028V0.895386ZM234.923 0.895386V0.395386H229.871V0.895386V1.39539H234.923V0.895386ZM224.819 0.895386V0.395386H219.767V0.895386V1.39539H224.819V0.895386ZM214.715 0.895386V0.395386H209.663V0.895386V1.39539H214.715V0.895386ZM204.611 0.895386V0.395386H199.559V0.895386V1.39539H204.611V0.895386ZM194.506 0.895386V0.395386H189.454V0.895386V1.39539H194.506V0.895386ZM184.402 0.895386V0.395386H179.35V0.895386V1.39539H184.402V0.895386ZM174.298 0.895386V0.395386H169.246V0.895386V1.39539H174.298V0.895386ZM164.194 0.895386V0.395386H159.142V0.895386V1.39539H164.194V0.895386ZM154.089 0.895386V0.395386H149.037V0.895386V1.39539H154.089V0.895386ZM143.985 0.895386V0.395386H138.933V0.895386V1.39539H143.985V0.895386ZM133.881 0.895386V0.395386H128.829V0.895386V1.39539H133.881V0.895386ZM123.777 0.895386V0.395386H118.725V0.895386V1.39539H123.777V0.895386ZM113.672 0.895386V0.395386H108.62V0.895386V1.39539H113.672V0.895386ZM103.568 0.895386V0.395386H98.5161V0.895386V1.39539H103.568V0.895386ZM93.464 0.895386V0.395386H88.4119V0.895386V1.39539H93.464V0.895386ZM83.3597 0.895386V0.395386H78.3076V0.895386V1.39539H83.3597V0.895386ZM73.2555 0.895386V0.395386H68.2034V0.895386V1.39539H73.2555V0.895386ZM63.1513 0.895386V0.395386H58.0991V0.895386V1.39539H63.1513V0.895386ZM53.047 0.895386V0.395386H47.9949V0.895386V1.39539H53.047V0.895386ZM42.9427 0.895386V0.395386H37.8906V0.895386V1.39539H42.9427V0.895386ZM32.8385 0.895386V0.395386H27.7864V0.895386V1.39539H32.8385V0.895386ZM22.7343 0.895386V0.395386H17.6821V0.895386V1.39539H22.7343V0.895386ZM12.63 0.895386V0.395386H7.57788V0.895386V1.39539H12.63V0.895386ZM2.52575 0.895386V0.395386H0V0.895386V1.39539H2.52575V0.895386ZM0 0.895386H-0.5V3.39095H0H0.5V0.895386H0ZM0 8.38209H-0.5V13.3732H0H0.5V8.38209H0ZM0 18.3644H-0.5V23.3555H0H0.5V18.3644H0ZM0 28.3466H-0.5V33.3378H0H0.5V28.3466H0ZM0 38.3289H-0.5V43.32H0H0.5V38.3289H0ZM0 48.3112H-0.5V53.3023H0H0.5V48.3112H0ZM0 58.2934H-0.5V63.2846H0H0.5V58.2934H0ZM0 68.2757H-0.5V73.2669H0H0.5V68.2757H0ZM0 78.258H-0.5V83.2491H0H0.5V78.258H0ZM0 88.2403H-0.5V93.2314H0H0.5V88.2403H0ZM0 98.2225H-0.5V103.214H0H0.5V98.2225H0ZM0 108.205H-0.5V113.196H0H0.5V108.205H0ZM0 118.187H-0.5V123.178H0H0.5V118.187H0ZM0 128.169H-0.5V133.16H0H0.5V128.169H0ZM0 138.152H-0.5V143.143H0H0.5V138.152H0ZM0 148.134H-0.5V153.125H0H0.5V148.134H0ZM0 158.116H-0.5V163.107H0H0.5V158.116H0ZM0 168.098H-0.5V173.09H0H0.5V168.098H0ZM0 178.081H-0.5V183.072H0H0.5V178.081H0ZM0 188.063H-0.5V193.054H0H0.5V188.063H0ZM0 198.045H-0.5V203.036H0H0.5V198.045H0ZM0 208.027H-0.5V213.019H0H0.5V208.027H0ZM0 218.01H-0.5V223.001H0H0.5V218.01H0ZM0 227.992H-0.5V232.983H0H0.5V227.992H0ZM0 237.974H-0.5V242.965H0H0.5V237.974H0ZM0 247.957H-0.5V252.948H0H0.5V247.957H0ZM0 257.939H-0.5V262.93H0H0.5V257.939H0ZM0 267.921H-0.5V272.912H0H0.5V267.921H0ZM0 277.903H-0.5V282.895H0H0.5V277.903H0ZM0 287.886H-0.5V292.877H0H0.5V287.886H0ZM0 297.868H-0.5V302.859H0H0.5V297.868H0ZM0 307.85H-0.5V312.841H0H0.5V307.85H0ZM0 317.833H-0.5V322.824H0H0.5V317.833H0ZM0 327.815H-0.5V332.806H0H0.5V327.815H0ZM0 337.797H-0.5V342.788H0H0.5V337.797H0ZM0 347.78H-0.5V352.771H0H0.5V347.78H0ZM0 357.762H-0.5V362.753H0H0.5V357.762H0ZM0 367.744H-0.5V372.735H0H0.5V367.744H0ZM0 377.726H-0.5V382.718H0H0.5V377.726H0ZM0 387.709H-0.5V392.7H0H0.5V387.709H0ZM0 397.691H-0.5V402.682H0H0.5V397.691H0ZM0 407.673H-0.5V412.664H0H0.5V407.673H0ZM0 417.656H-0.5V422.647H0H0.5V417.656H0ZM0 427.638H-0.5V432.629H0H0.5V427.638H0ZM0 437.62H-0.5V442.611H0H0.5V437.62H0ZM0 447.603H-0.5V452.594H0H0.5V447.603H0ZM0 457.585H-0.5V462.576H0H0.5V457.585H0ZM0 467.567H-0.5V472.558H0H0.5V467.567H0ZM0 477.549H-0.5V482.541H0H0.5V477.549H0ZM0 487.532H-0.5V492.523H0H0.5V487.532H0ZM0 497.514H-0.5V502.505H0H0.5V497.514H0ZM0 507.496H-0.5V512.487H0H0.5V507.496H0ZM0 517.479H-0.5V522.47H0H0.5V517.479H0ZM0 527.461H-0.5V532.452H0H0.5V527.461H0ZM0 537.443H-0.5V542.434H0H0.5V537.443H0ZM0 547.426H-0.5V552.417H0H0.5V547.426H0ZM0 557.408H-0.5V562.399H0H0.5V557.408H0ZM0 567.39H-0.5V572.381H0H0.5V567.39H0ZM0 577.372H-0.5V582.364H0H0.5V577.372H0ZM0 587.355H-0.5V589.849H0H0.5V587.355H0ZM0 589.849V590.349H2.46359V589.849V589.349H0V589.849ZM7.39077 589.849V590.349H12.3179V589.849V589.349H7.39077V589.849ZM17.2451 589.849V590.349H22.1723V589.849V589.349H17.2451V589.849ZM27.0995 589.849V590.349H32.0267V589.849V589.349H27.0995V589.849ZM36.9538 589.849V590.349H41.881V589.849V589.349H36.9538V589.849ZM46.8082 589.849V590.349H51.7354V589.849V589.349H46.8082V589.849ZM56.6625 589.849V590.349H61.5897V589.849V589.349H56.6625V589.849ZM66.5169 589.849V590.349H71.4441V589.849V589.349H66.5169V589.849ZM76.3713 589.849V590.349H81.2984V589.849V589.349H76.3713V589.849ZM86.2256 589.849V590.349H91.1528V589.849V589.349H86.2256V589.849ZM96.08 589.849V590.349H101.007V589.849V589.349H96.08V589.849ZM105.934 589.849V590.349H110.861V589.849V589.349H105.934V589.849ZM115.789 589.849V590.349H120.716V589.849V589.349H115.789V589.849ZM125.643 589.849V590.349H130.57V589.849V589.349H125.643V589.849ZM135.497 589.849V590.349H140.425V589.849V589.349H135.497V589.849ZM145.352 589.849V590.349H150.279V589.849V589.349H145.352V589.849ZM155.206 589.849V590.349H160.133V589.849V589.349H155.206V589.849ZM165.061 589.849V590.349H169.988V589.849V589.349H165.061V589.849ZM174.915 589.849V590.349H179.842V589.849V589.349H174.915V589.849ZM184.769 589.849V590.349H189.696V589.849V589.349H184.769V589.849ZM194.624 589.849V590.349H199.551V589.849V589.349H194.624V589.849ZM204.478 589.849V590.349H209.405V589.849V589.349H204.478V589.849ZM214.332 589.849V590.349H216.796V589.849V589.349H214.332V589.849ZM216.796 589.849H217.296V587.328H216.796H216.296V589.849H216.796ZM216.796 582.286H217.296V577.244H216.796H216.296V582.286H216.796ZM216.796 572.201H217.296V567.159H216.796H216.296V572.201H216.796ZM216.796 562.117H217.296V557.075H216.796H216.296V562.117H216.796ZM216.796 552.032H217.296V546.99H216.796H216.296V552.032H216.796ZM216.796 541.948H217.296V536.906H216.796H216.296V541.948H216.796ZM216.796 531.863H217.296V526.821H216.796H216.296V531.863H216.796ZM216.796 521.779H217.296V516.736H216.796H216.296V521.779H216.796ZM216.796 511.694H217.296V506.652H216.796H216.296V511.694H216.796ZM216.796 501.61H217.296V496.567H216.796H216.296V501.61H216.796ZM216.796 491.525H217.296V486.483H216.796H216.296V491.525H216.796ZM216.796 481.44H217.296V476.398H216.796H216.296V481.44H216.796ZM216.796 471.356H217.296V466.314H216.796H216.296V471.356H216.796ZM216.796 461.271H217.296V456.229H216.796H216.296V461.271H216.796ZM216.796 451.187H217.296V446.144H216.796H216.296V451.187H216.796ZM216.796 441.102H217.296V436.06H216.796H216.296V441.102H216.796ZM216.796 431.018H217.296V425.975H216.796H216.296V431.018H216.796ZM216.796 420.933H217.296V415.891H216.796H216.296V420.933H216.796ZM216.796 410.848H217.296V405.806H216.796H216.296V410.848H216.796ZM216.796 400.764H217.296V395.722H216.796H216.296V400.764H216.796ZM216.796 390.679H217.296V385.637H216.796H216.296V390.679H216.796ZM216.796 380.595H217.296V375.552H216.796H216.296V380.595H216.796ZM216.796 370.51H217.296V365.468H216.796H216.296V370.51H216.796ZM216.796 360.426H217.296V355.383H216.796H216.296V360.426H216.796ZM216.796 350.341H217.296V345.299H216.796H216.296V350.341H216.796ZM216.796 340.257H217.296V335.214H216.796H216.296V340.257H216.796ZM216.796 330.172H217.296V325.13H216.796H216.296V330.172H216.796ZM216.796 320.087H217.296V315.045H216.796H216.296V320.087H216.796ZM216.796 310.003H217.296V304.96H216.796H216.296V310.003H216.796ZM216.796 299.918H217.296V294.876H216.796H216.296V299.918H216.796ZM216.796 289.834H217.296V284.791H216.796H216.296V289.834H216.796ZM216.796 279.749H217.296V274.707H216.796H216.296V279.749H216.796ZM216.796 269.664H217.296V264.622H216.796H216.296V269.664H216.796ZM216.796 259.58H217.296V254.537H216.796H216.296V259.58H216.796ZM216.796 249.495H217.296V244.453H216.796H216.296V249.495H216.796ZM216.796 239.411H217.296V234.368H216.796H216.296V239.411H216.796ZM216.796 229.326H217.296V224.284H216.796H216.296V229.326H216.796ZM216.796 219.241H217.296V216.721H216.796H216.296V219.241H216.796ZM216.796 216.721V217.221H219.233V216.721V216.221H216.796V216.721ZM224.108 216.721V217.221H228.983V216.721V216.221H224.108V216.721ZM233.858 216.721V217.221H238.733V216.721V216.221H233.858V216.721ZM243.608 216.721V217.221H248.483V216.721V216.221H243.608V216.721ZM253.358 216.721V217.221H258.233V216.721V216.221H253.358V216.721ZM263.108 216.721V217.221H267.983V216.721V216.221H263.108V216.721ZM272.858 216.721V217.221H277.732V216.721V216.221H272.858V216.721ZM282.607 216.721V217.221H287.482V216.721V216.221H282.607V216.721ZM292.357 216.721V217.221H297.232V216.721V216.221H292.357V216.721ZM302.107 216.721V217.221H306.982V216.721V216.221H302.107V216.721ZM311.857 216.721V217.221H316.732V216.721V216.221H311.857V216.721ZM321.607 216.721V217.221H326.482V216.721V216.221H321.607V216.721ZM331.357 216.721V217.221H336.232V216.721V216.221H331.357V216.721ZM341.106 216.721V217.221H343.544V216.721V216.221H341.106V216.721ZM343.544 216.721L343.533 217.22C344.359 217.238 345.181 217.262 345.999 217.292L346.017 216.792L346.035 216.292C345.213 216.263 344.386 216.239 343.555 216.221L343.544 216.721ZM350.917 217.043L350.884 217.542C352.525 217.651 354.148 217.785 355.753 217.945L355.802 217.448L355.852 216.95C354.236 216.789 352.602 216.654 350.95 216.544L350.917 217.043ZM360.69 218.021L360.622 218.516C362.256 218.737 363.869 218.987 365.463 219.265L365.549 218.772L365.635 218.28C364.028 218 362.402 217.748 360.757 217.525L360.69 218.021ZM370.371 219.715L370.265 220.204C371.872 220.553 373.456 220.933 375.019 221.345L375.147 220.861L375.274 220.378C373.697 219.962 372.098 219.578 370.477 219.227L370.371 219.715ZM379.864 222.222L379.714 222.699C381.279 223.191 382.82 223.717 384.337 224.278L384.51 223.809L384.684 223.341C383.151 222.773 381.594 222.242 380.014 221.745L379.864 222.222ZM389.069 225.633L388.871 226.092C390.373 226.739 391.849 227.424 393.301 228.147L393.523 227.699L393.746 227.252C392.278 226.52 390.785 225.828 389.267 225.174L389.069 225.633ZM397.856 230.013L397.608 230.447C399.023 231.256 400.412 232.105 401.774 232.994L402.048 232.575L402.321 232.157C400.942 231.257 399.536 230.398 398.104 229.579L397.856 230.013ZM406.079 235.382L405.781 235.783C407.085 236.75 408.362 237.758 409.612 238.807L409.934 238.424L410.255 238.041C408.989 236.979 407.697 235.959 406.377 234.98L406.079 235.382ZM413.598 241.691L413.255 242.054C414.429 243.166 415.577 244.318 416.698 245.511L417.063 245.169L417.427 244.827C416.292 243.619 415.131 242.453 413.942 241.328L413.598 241.691ZM420.32 248.842L419.937 249.163C420.973 250.399 421.983 251.675 422.968 252.991L423.368 252.691L423.769 252.392C422.773 251.061 421.751 249.771 420.704 248.521L420.32 248.842ZM426.207 256.7L425.792 256.979C426.689 258.318 427.563 259.695 428.412 261.111L428.841 260.853L429.27 260.596C428.412 259.167 427.529 257.776 426.623 256.422L426.207 256.7ZM431.274 265.133L430.834 265.37C431.595 266.782 432.334 268.23 433.051 269.713L433.501 269.495L433.951 269.277C433.228 267.782 432.482 266.321 431.715 264.896L431.274 265.133ZM435.543 273.952L435.085 274.151C435.726 275.627 436.347 277.135 436.947 278.677L437.413 278.495L437.879 278.314C437.274 276.761 436.648 275.241 436.002 273.753L435.543 273.952ZM439.12 283.119L438.648 283.284C439.178 284.801 439.69 286.348 440.183 287.924L440.66 287.775L441.137 287.626C440.641 286.039 440.126 284.482 439.592 282.954L439.12 283.119ZM442.05 292.471L441.569 292.606C442.004 294.161 442.422 295.743 442.823 297.352L443.308 297.231L443.793 297.11C443.39 295.492 442.969 293.901 442.532 292.337L442.05 292.471ZM444.434 302.022L443.946 302.13C444.292 303.697 444.624 305.288 444.94 306.905L445.431 306.809L445.921 306.713C445.604 305.089 445.27 303.489 444.922 301.914L444.434 302.022ZM446.32 311.658L445.828 311.742C446.1 313.331 446.359 314.942 446.604 316.577L447.098 316.502L447.593 316.428C447.347 314.787 447.087 313.169 446.813 311.573L446.32 311.658ZM447.775 321.356L447.279 321.42C447.488 323.034 447.683 324.668 447.866 326.325L448.363 326.27L448.86 326.215C448.677 324.553 448.48 322.912 448.271 321.292L447.775 321.356ZM448.853 331.118L448.355 331.165C448.505 332.782 448.642 334.419 448.768 336.077L449.266 336.039L449.765 336.001C449.639 334.339 449.501 332.696 449.351 331.072L448.853 331.118ZM449.597 340.918L449.098 340.948C449.195 342.566 449.281 344.203 449.356 345.858L449.856 345.835L450.355 345.812C450.28 344.152 450.194 342.511 450.096 340.888L449.597 340.918ZM450.044 350.737L449.544 350.752C449.595 352.371 449.636 354.006 449.666 355.659L450.166 355.65L450.666 355.641C450.636 353.984 450.595 352.344 450.544 350.721L450.044 350.737ZM450.226 360.561L449.726 360.564C449.731 361.39 449.733 362.22 449.733 363.054H450.233H450.733C450.733 362.218 450.731 361.386 450.726 360.558L450.226 360.561ZM450.233 363.054H449.733V365.519H450.233H450.733V363.054H450.233ZM450.233 370.449H449.733V375.379H450.233H450.733V370.449H450.233ZM450.233 380.31H449.733V385.24H450.233H450.733V380.31H450.233ZM450.233 390.17H449.733V395.101H450.233H450.733V390.17H450.233ZM450.233 400.031H449.733V404.962H450.233H450.733V400.031H450.233ZM450.233 409.892H449.733V414.822H450.233H450.733V409.892H450.233ZM450.233 419.753H449.733V424.683H450.233H450.733V419.753H450.233ZM450.233 429.613H449.733V434.544H450.233H450.733V429.613H450.233ZM450.233 439.474H449.733V444.404H450.233H450.733V439.474H450.233ZM450.233 449.335H449.733V454.265H450.233H450.733V449.335H450.233ZM450.233 459.195H449.733V464.126H450.233H450.733V459.195H450.233ZM450.233 469.056H449.733V473.986H450.233H450.733V469.056H450.233ZM450.233 478.917H449.733V483.847H450.233H450.733V478.917H450.233ZM450.233 488.777H449.733V493.708H450.233H450.733V488.777H450.233ZM450.233 498.638H449.733V503.568H450.233H450.733V498.638H450.233ZM450.233 508.499H449.733V513.429H450.233H450.733V508.499H450.233ZM450.233 518.359H449.733V523.29H450.233H450.733V518.359H450.233ZM450.233 528.22H449.733V533.15H450.233H450.733V528.22H450.233ZM450.233 538.081H449.733V543.011H450.233H450.733V538.081H450.233ZM450.233 547.941H449.733V552.872H450.233H450.733V547.941H450.233ZM450.233 557.802H449.733V562.733H450.233H450.733V557.802H450.233ZM450.233 567.663H449.733V572.593H450.233H450.733V567.663H450.233ZM450.233 577.524H449.733V582.454H450.233H450.733V577.524H450.233ZM450.233 587.384H449.733V589.849H450.233H450.733V587.384H450.233ZM450.233 589.849V590.349H452.694V589.849V589.349H450.233V589.849ZM457.617 589.849V590.349H462.539V589.849V589.349H457.617V589.849ZM467.461 589.849V590.349H472.383V589.849V589.349H467.461V589.849ZM477.305 589.849V590.349H482.227V589.849V589.349H477.305V589.849ZM487.15 589.849V590.349H492.072V589.849V589.349H487.15V589.849ZM496.994 589.849V590.349H501.916V589.849V589.349H496.994V589.849ZM506.838 589.849V590.349H511.76V589.849V589.349H506.838V589.849ZM516.683 589.849V590.349H521.605V589.849V589.349H516.683V589.849ZM526.527 589.849V590.349H531.449V589.849V589.349H526.527V589.849ZM536.371 589.849V590.349H541.293V589.849V589.349H536.371V589.849ZM546.216 589.849V590.349H551.138V589.849V589.349H546.216V589.849ZM556.06 589.849V590.349H560.982V589.849V589.349H556.06V589.849ZM565.904 589.849V590.349H570.826V589.849V589.349H565.904V589.849ZM575.749 589.849V590.349H580.671V589.849V589.349H575.749V589.849ZM585.593 589.849V590.349H590.515V589.849V589.349H585.593V589.849ZM595.437 589.849V590.349H600.359V589.849V589.349H595.437V589.849ZM605.282 589.849V590.349H610.204V589.849V589.349H605.282V589.849ZM615.126 589.849V590.349H620.048V589.849V589.349H615.126V589.849ZM624.97 589.849V590.349H629.892V589.849V589.349H624.97V589.849ZM634.815 589.849V590.349H639.737V589.849V589.349H634.815V589.849ZM644.659 589.849V590.349H649.581V589.849V589.349H644.659V589.849ZM654.503 589.849V590.349H659.425V589.849V589.349H654.503V589.849ZM664.348 589.849V590.349H666.809V589.849V589.349H664.348V589.849ZM666.809 589.849H667.309V587.387H666.809H666.309V589.849H666.809ZM666.809 582.462H667.309V577.537H666.809H666.309V582.462H666.809ZM666.809 572.612H667.309V567.686H666.809H666.309V572.612H666.809ZM666.809 562.761H667.309V557.836H666.809H666.309V562.761H666.809ZM666.809 552.911H667.309V547.986H666.809H666.309V552.911H666.809ZM666.809 543.061H667.309V538.136H666.809H666.309V543.061H666.809ZM666.809 533.211H667.309V528.285H666.809H666.309V533.211H666.809ZM666.809 523.36H667.309V518.435H666.809H666.309V523.36H666.809ZM666.809 513.51H667.309V508.585H666.809H666.309V513.51H666.809ZM666.809 503.66H667.309V498.735H666.809H666.309V503.66H666.809ZM666.809 493.81H667.309V488.884H666.809H666.309V493.81H666.809ZM666.809 483.959H667.309V479.034H666.809H666.309V483.959H666.809ZM666.809 474.109H667.309V469.184H666.809H666.309V474.109H666.809ZM666.809 464.259H667.309V459.334H666.809H666.309V464.259H666.809ZM666.809 454.409H667.309V449.483H666.809H666.309V454.409H666.809ZM666.809 444.558H667.309V439.633H666.809H666.309V444.558H666.809ZM666.809 434.708H667.309V429.783H666.809H666.309V434.708H666.809ZM666.809 424.858H667.309V419.933H666.809H666.309V424.858H666.809ZM666.809 415.008H667.309V410.082H666.809H666.309V415.008H666.809ZM666.809 405.157H667.309V400.232H666.809H666.309V405.157H666.809ZM666.809 395.307H667.309V390.382H666.809H666.309V395.307H666.809ZM666.809 385.457H667.309V380.532H666.809H666.309V385.457H666.809ZM666.809 375.607H667.309V370.681H666.809H666.309V375.607H666.809ZM666.809 365.756H667.309V363.294H666.809H666.309V365.756H666.809ZM666.809 363.294L667.309 363.287C667.297 362.436 667.285 361.586 667.271 360.737L666.771 360.745L666.271 360.753C666.285 361.601 666.297 362.45 666.309 363.3L666.809 363.294ZM666.671 355.673L667.171 355.661C667.132 353.975 667.088 352.294 667.039 350.619L666.539 350.634L666.039 350.649C666.089 352.322 666.133 354 666.171 355.684L666.671 355.673ZM666.374 345.63L666.874 345.611C666.813 343.939 666.747 342.272 666.675 340.61L666.175 340.632L665.676 340.653C665.747 342.313 665.814 343.977 665.874 345.648L666.374 345.63ZM665.938 335.554L666.437 335.529C666.352 333.841 666.262 332.16 666.165 330.484L665.666 330.513L665.167 330.541C665.263 332.215 665.354 333.894 665.439 335.579L665.938 335.554ZM665.36 325.507L665.858 325.475C665.75 323.811 665.637 322.153 665.517 320.502L665.018 320.538L664.52 320.574C664.639 322.223 664.753 323.878 664.861 325.54L665.36 325.507ZM664.632 315.463L665.13 315.423C664.995 313.737 664.854 312.057 664.706 310.383L664.208 310.427L663.71 310.471C663.857 312.142 663.998 313.819 664.133 315.503L664.632 315.463ZM663.748 305.429L664.246 305.382C664.086 303.721 663.92 302.066 663.749 300.418L663.251 300.47L662.754 300.522C662.926 302.167 663.091 303.819 663.25 305.477L663.748 305.429ZM662.703 295.419L663.2 295.363C663.01 293.681 662.814 292.006 662.612 290.338L662.115 290.398L661.619 290.458C661.821 292.124 662.017 293.796 662.206 295.475L662.703 295.419ZM661.489 285.418L661.985 285.354C661.769 283.699 661.547 282.052 661.319 280.411L660.823 280.48L660.328 280.549C660.556 282.187 660.778 283.831 660.993 285.483L661.489 285.418ZM660.099 275.447L660.594 275.374C660.345 273.7 660.09 272.034 659.827 270.376L659.333 270.454L658.839 270.532C659.101 272.187 659.356 273.85 659.605 275.521L660.099 275.447ZM658.526 265.504L659.019 265.421C658.742 263.771 658.458 262.129 658.168 260.493L657.675 260.581L657.183 260.668C657.473 262.301 657.757 263.94 658.033 265.587L658.526 265.504ZM656.761 255.582L657.252 255.49C656.939 253.829 656.62 252.177 656.293 250.532L655.802 250.63L655.312 250.727C655.638 252.369 655.957 254.018 656.269 255.675L656.761 255.582ZM654.8 245.723L655.29 245.621C654.945 243.974 654.592 242.336 654.232 240.705L653.744 240.813L653.256 240.921C653.615 242.548 653.967 244.183 654.311 245.826L654.8 245.723ZM652.624 235.868L653.111 235.755C652.73 234.113 652.341 232.479 651.944 230.853L651.458 230.972L650.972 231.09C651.368 232.712 651.756 234.342 652.137 235.981L652.624 235.868ZM650.246 226.125L650.731 226C650.311 224.36 649.882 222.727 649.446 221.103L648.963 221.233L648.48 221.363C648.916 222.983 649.343 224.611 649.762 226.249L650.246 226.125ZM647.623 216.359L648.104 216.223C647.649 214.605 647.185 212.996 646.714 211.395L646.234 211.536L645.754 211.678C646.225 213.274 646.687 214.88 647.142 216.494L647.623 216.359ZM644.79 206.744L645.267 206.596C644.767 204.972 644.258 203.357 643.74 201.752L643.264 201.905L642.788 202.058C643.305 203.66 643.813 205.271 644.312 206.891L644.79 206.744ZM641.688 197.121L642.162 196.962C641.627 195.374 641.084 193.796 640.532 192.227L640.06 192.393L639.589 192.559C640.139 194.123 640.681 195.698 641.214 197.281L641.688 197.121ZM638.351 187.637L638.821 187.464C638.238 185.876 637.645 184.297 637.044 182.728L636.577 182.907L636.111 183.086C636.71 184.65 637.3 186.225 637.882 187.809L638.351 187.637ZM634.75 178.235L635.214 178.05C634.59 176.488 633.957 174.935 633.315 173.393L632.853 173.585L632.391 173.777C633.032 175.315 633.663 176.863 634.285 178.421L634.75 178.235ZM630.872 168.927L631.331 168.727C630.66 167.182 629.98 165.648 629.291 164.123L628.835 164.329L628.379 164.535C629.067 166.055 629.745 167.585 630.414 169.126L630.872 168.927ZM626.739 159.788L627.192 159.575C626.468 158.04 625.735 156.514 624.992 155L624.543 155.22L624.094 155.44C624.835 156.95 625.566 158.47 626.287 160.001L626.739 159.788ZM622.289 150.716L622.734 150.488C621.971 148.995 621.199 147.513 620.417 146.041L619.975 146.275L619.534 146.51C620.313 147.977 621.083 149.455 621.843 150.943L622.289 150.716ZM617.566 141.832L618.003 141.59C617.186 140.113 616.358 138.647 615.52 137.192L615.087 137.441L614.653 137.691C615.488 139.141 616.313 140.602 617.128 142.074L617.566 141.832ZM612.547 133.117L612.976 132.86C612.108 131.412 611.23 129.975 610.342 128.55L609.918 128.815L609.493 129.079C610.379 130.499 611.253 131.931 612.118 133.374L612.547 133.117ZM607.21 124.557L607.63 124.285C606.715 122.875 605.79 121.477 604.854 120.09L604.44 120.37L604.025 120.649C604.958 122.031 605.88 123.425 606.791 124.83L607.21 124.557ZM601.586 116.223L601.995 115.935C601.025 114.553 600.044 113.183 599.052 111.825L598.648 112.12L598.244 112.415C599.233 113.768 600.21 115.133 601.176 116.51L601.586 116.223ZM595.646 108.09L596.044 107.788C595.025 106.447 593.996 105.119 592.956 103.803L592.563 104.114L592.171 104.424C593.208 105.734 594.233 107.058 595.248 108.393L595.646 108.09ZM589.397 100.187L589.783 99.8697C588.715 98.5708 587.635 97.2843 586.544 96.01L586.164 96.3352L585.784 96.6604C586.871 97.9296 587.947 99.2112 589.011 100.505L589.397 100.187ZM582.855 92.5462L583.228 92.2136C582.107 90.9551 580.975 89.7092 579.831 88.4759L579.464 88.8159L579.098 89.1559C580.237 90.3843 581.365 91.6253 582.482 92.8788L582.855 92.5462ZM576.006 85.161L576.366 84.8137C575.198 83.6039 574.019 82.4067 572.828 81.2222L572.475 81.5767L572.123 81.9312C573.308 83.1109 574.483 84.3033 575.646 85.5083L576.006 85.161ZM568.868 78.0602L569.214 77.6987C567.997 76.5369 566.77 75.3879 565.531 74.2516L565.193 74.6201L564.855 74.9886C566.089 76.1203 567.312 77.2647 568.523 78.4218L568.868 78.0602ZM561.449 71.2564L561.78 70.8811C560.518 69.7703 559.245 68.6723 557.96 67.5871L557.637 67.969L557.315 68.351C558.594 69.4318 559.862 70.5254 561.119 71.6317L561.449 71.2564ZM553.757 64.7585L554.072 64.3701C552.766 63.3119 551.449 62.2665 550.12 61.234L549.814 61.6288L549.507 62.0236C550.83 63.052 552.142 64.0931 553.442 65.147L553.757 64.7585ZM545.811 58.5828L546.11 58.1819C544.762 57.1773 543.402 56.1856 542.031 55.2066L541.741 55.6135L541.45 56.0204C542.816 56.9955 544.17 57.9832 545.512 58.9838L545.811 58.5828ZM537.613 52.7278L537.895 52.3151C536.511 51.3686 535.117 50.4347 533.711 49.5136L533.437 49.9318L533.163 50.35C534.563 51.2675 535.952 52.1977 537.33 53.1404L537.613 52.7278ZM529.194 47.2118L529.46 46.7882C528.036 45.8952 526.601 45.0148 525.155 44.1471L524.898 44.5758L524.64 45.0046C526.081 45.8689 527.51 46.7459 528.928 47.6354L529.194 47.2118ZM520.568 42.0348L520.817 41.6011C519.36 40.7649 517.892 39.9412 516.413 39.1301L516.172 39.5685L515.932 40.0069C517.405 40.8149 518.867 41.6355 520.319 42.4684L520.568 42.0348ZM511.724 37.1839L511.956 36.741C510.476 35.9657 508.986 35.2026 507.484 34.4517L507.261 34.8989L507.037 35.3461C508.533 36.0941 510.018 36.8544 511.492 37.6268L511.724 37.1839ZM502.733 32.687L502.949 32.2357C501.428 31.5104 499.897 30.7972 498.356 30.0963L498.149 30.5514L497.942 31.0066C499.478 31.705 501.003 32.4155 502.518 33.1383L502.733 32.687ZM493.573 28.5202L493.772 28.0614C492.233 27.395 490.685 26.7404 489.126 26.0978L488.935 26.56L488.744 27.0223C490.298 27.6627 491.841 28.315 493.374 28.979L493.573 28.5202ZM484.235 24.671L484.418 24.2054C482.866 23.5976 481.305 23.0013 479.734 22.4165L479.56 22.8851L479.385 23.3537C480.951 23.9365 482.507 24.5308 484.053 25.1365L484.235 24.671ZM474.832 21.171L474.999 20.6995C473.411 20.1386 471.812 19.5893 470.204 19.0514L470.046 19.5255L469.887 19.9997C471.49 20.5359 473.083 21.0834 474.666 21.6424L474.832 21.171ZM465.272 17.9719L465.423 17.4952C463.831 16.9914 462.23 16.4985 460.619 16.0167L460.476 16.4957L460.333 16.9747C461.938 17.455 463.535 17.9463 465.121 18.4486L465.272 17.9719ZM455.623 15.0855L455.759 14.6043C454.143 14.1486 452.519 13.7037 450.885 13.2698L450.757 13.753L450.628 14.2362C452.257 14.6689 453.877 15.1124 455.487 15.5667L455.623 15.0855ZM445.911 12.5047L446.032 12.0196C444.405 11.6134 442.769 11.2178 441.124 10.8327L441.011 11.3195L440.897 11.8064C442.537 12.1903 444.168 12.5848 445.79 12.9898L445.911 12.5047ZM436.056 10.1976L436.163 9.70916C434.542 9.35442 432.912 9.00973 431.274 8.6751L431.174 9.16498L431.074 9.65486C432.708 9.98857 434.333 10.3323 435.949 10.686L436.056 10.1976ZM426.245 8.19334L426.338 7.70213C424.684 7.38786 423.021 7.08366 421.35 6.78953L421.263 7.28197L421.177 7.7744C422.844 8.06775 424.502 8.37114 426.151 8.68455L426.245 8.19334ZM416.298 6.44199L416.379 5.94846C414.737 5.68177 413.087 5.42463 411.429 5.17705L411.355 5.67157L411.281 6.16608C412.935 6.41304 414.581 6.66953 416.218 6.93553L416.298 6.44199ZM406.363 4.95839L406.43 4.46298C404.756 4.23453 403.073 4.01565 401.383 3.80635L401.321 4.30256L401.26 4.79877C402.946 5.00756 404.625 5.22591 406.295 5.4538L406.363 4.95839ZM396.364 3.71899L396.42 3.22209C394.762 3.03694 393.097 2.86085 391.424 2.69382L391.375 3.19135L391.325 3.68887C392.994 3.85551 394.655 4.0312 396.309 4.2159L396.364 3.71899ZM386.339 2.71803L386.383 2.21996C384.706 2.07205 383.021 1.9331 381.328 1.80312L381.29 2.30165L381.252 2.80018C382.941 2.92987 384.622 3.06852 386.295 3.21609L386.339 2.71803ZM376.315 1.94688L376.348 1.44796C374.68 1.33814 373.006 1.23689 371.324 1.14422L371.296 1.64346L371.269 2.1427C372.947 2.23518 374.618 2.33621 376.282 2.4458L376.315 1.94688ZM366.234 1.39147L366.256 0.891963C364.582 0.817429 362.9 0.75127 361.211 0.693496L361.194 1.1932L361.177 1.69291C362.862 1.75057 364.541 1.81659 366.212 1.89097L366.234 1.39147ZM356.202 1.0474L356.214 0.547547C354.542 0.506993 352.863 0.474536 351.177 0.450188L351.17 0.950136L351.163 1.45008C352.845 1.47439 354.521 1.50678 356.19 1.54725L356.202 1.0474ZM346.096 0.901472L346.099 0.401478C345.249 0.397417 344.397 0.395386 343.544 0.395386V0.895386V1.39539C344.396 1.39539 345.246 1.39741 346.094 1.40147L346.096 0.901472ZM666.809 363.294H667.809L667.809 363.281L666.809 363.294ZM666.809 589.849V590.849H667.809V589.849H666.809ZM450.233 589.849H449.233V590.849H450.233V589.849ZM343.544 216.721L343.566 215.721L343.555 215.721H343.544V216.721ZM216.796 216.721V215.721H215.796V216.721H216.796ZM216.796 589.849V590.849H217.796V589.849H216.796ZM0 589.849H-1V590.849H0V589.849ZM0 0.895386V-0.104614H-1V0.895386H0ZM343.544 0.895386V-0.104614H341.018V0.895386V1.89539H343.544V0.895386ZM335.966 0.895386V-0.104614H330.914V0.895386V1.89539H335.966V0.895386ZM325.862 0.895386V-0.104614H320.809V0.895386V1.89539H325.862V0.895386ZM315.757 0.895386V-0.104614H310.705V0.895386V1.89539H315.757V0.895386ZM305.653 0.895386V-0.104614H300.601V0.895386V1.89539H305.653V0.895386ZM295.549 0.895386V-0.104614H290.497V0.895386V1.89539H295.549V0.895386ZM285.445 0.895386V-0.104614H280.392V0.895386V1.89539H285.445V0.895386ZM275.34 0.895386V-0.104614H270.288V0.895386V1.89539H275.34V0.895386ZM265.236 0.895386V-0.104614H260.184V0.895386V1.89539H265.236V0.895386ZM255.132 0.895386V-0.104614H250.08V0.895386V1.89539H255.132V0.895386ZM245.028 0.895386V-0.104614H239.976V0.895386V1.89539H245.028V0.895386ZM234.923 0.895386V-0.104614H229.871V0.895386V1.89539H234.923V0.895386ZM224.819 0.895386V-0.104614H219.767V0.895386V1.89539H224.819V0.895386ZM214.715 0.895386V-0.104614H209.663V0.895386V1.89539H214.715V0.895386ZM204.611 0.895386V-0.104614H199.559V0.895386V1.89539H204.611V0.895386ZM194.506 0.895386V-0.104614H189.454V0.895386V1.89539H194.506V0.895386ZM184.402 0.895386V-0.104614H179.35V0.895386V1.89539H184.402V0.895386ZM174.298 0.895386V-0.104614H169.246V0.895386V1.89539H174.298V0.895386ZM164.194 0.895386V-0.104614H159.142V0.895386V1.89539H164.194V0.895386ZM154.089 0.895386V-0.104614H149.037V0.895386V1.89539H154.089V0.895386ZM143.985 0.895386V-0.104614H138.933V0.895386V1.89539H143.985V0.895386ZM133.881 0.895386V-0.104614H128.829V0.895386V1.89539H133.881V0.895386ZM123.777 0.895386V-0.104614H118.725V0.895386V1.89539H123.777V0.895386ZM113.672 0.895386V-0.104614H108.62V0.895386V1.89539H113.672V0.895386ZM103.568 0.895386V-0.104614H98.5161V0.895386V1.89539H103.568V0.895386ZM93.464 0.895386V-0.104614H88.4119V0.895386V1.89539H93.464V0.895386ZM83.3597 0.895386V-0.104614H78.3076V0.895386V1.89539H83.3597V0.895386ZM73.2555 0.895386V-0.104614H68.2034V0.895386V1.89539H73.2555V0.895386ZM63.1513 0.895386V-0.104614H58.0991V0.895386V1.89539H63.1513V0.895386ZM53.047 0.895386V-0.104614H47.9949V0.895386V1.89539H53.047V0.895386ZM42.9427 0.895386V-0.104614H37.8906V0.895386V1.89539H42.9427V0.895386ZM32.8385 0.895386V-0.104614H27.7864V0.895386V1.89539H32.8385V0.895386ZM22.7343 0.895386V-0.104614H17.6821V0.895386V1.89539H22.7343V0.895386ZM12.63 0.895386V-0.104614H7.57788V0.895386V1.89539H12.63V0.895386ZM2.52575 0.895386V-0.104614H0V0.895386V1.89539H2.52575V0.895386ZM0 0.895386H-1V3.39095H0H1V0.895386H0ZM0 8.38209H-1V13.3732H0H1V8.38209H0ZM0 18.3644H-1V23.3555H0H1V18.3644H0ZM0 28.3466H-1V33.3378H0H1V28.3466H0ZM0 38.3289H-1V43.32H0H1V38.3289H0ZM0 48.3112H-1V53.3023H0H1V48.3112H0ZM0 58.2934H-1V63.2846H0H1V58.2934H0ZM0 68.2757H-1V73.2669H0H1V68.2757H0ZM0 78.258H-1V83.2491H0H1V78.258H0ZM0 88.2403H-1V93.2314H0H1V88.2403H0ZM0 98.2225H-1V103.214H0H1V98.2225H0ZM0 108.205H-1V113.196H0H1V108.205H0ZM0 118.187H-1V123.178H0H1V118.187H0ZM0 128.169H-1V133.16H0H1V128.169H0ZM0 138.152H-1V143.143H0H1V138.152H0ZM0 148.134H-1V153.125H0H1V148.134H0ZM0 158.116H-1V163.107H0H1V158.116H0ZM0 168.098H-1V173.09H0H1V168.098H0ZM0 178.081H-1V183.072H0H1V178.081H0ZM0 188.063H-1V193.054H0H1V188.063H0ZM0 198.045H-1V203.036H0H1V198.045H0ZM0 208.027H-1V213.019H0H1V208.027H0ZM0 218.01H-1V223.001H0H1V218.01H0ZM0 227.992H-1V232.983H0H1V227.992H0ZM0 237.974H-1V242.965H0H1V237.974H0ZM0 247.957H-1V252.948H0H1V247.957H0ZM0 257.939H-1V262.93H0H1V257.939H0ZM0 267.921H-1V272.912H0H1V267.921H0ZM0 277.903H-1V282.895H0H1V277.903H0ZM0 287.886H-1V292.877H0H1V287.886H0ZM0 297.868H-1V302.859H0H1V297.868H0ZM0 307.85H-1V312.841H0H1V307.85H0ZM0 317.833H-1V322.824H0H1V317.833H0ZM0 327.815H-1V332.806H0H1V327.815H0ZM0 337.797H-1V342.788H0H1V337.797H0ZM0 347.78H-1V352.771H0H1V347.78H0ZM0 357.762H-1V362.753H0H1V357.762H0ZM0 367.744H-1V372.735H0H1V367.744H0ZM0 377.726H-1V382.718H0H1V377.726H0ZM0 387.709H-1V392.7H0H1V387.709H0ZM0 397.691H-1V402.682H0H1V397.691H0ZM0 407.673H-1V412.664H0H1V407.673H0ZM0 417.656H-1V422.647H0H1V417.656H0ZM0 427.638H-1V432.629H0H1V427.638H0ZM0 437.62H-1V442.611H0H1V437.62H0ZM0 447.603H-1V452.594H0H1V447.603H0ZM0 457.585H-1V462.576H0H1V457.585H0ZM0 467.567H-1V472.558H0H1V467.567H0ZM0 477.549H-1V482.541H0H1V477.549H0ZM0 487.532H-1V492.523H0H1V487.532H0ZM0 497.514H-1V502.505H0H1V497.514H0ZM0 507.496H-1V512.487H0H1V507.496H0ZM0 517.479H-1V522.47H0H1V517.479H0ZM0 527.461H-1V532.452H0H1V527.461H0ZM0 537.443H-1V542.434H0H1V537.443H0ZM0 547.426H-1V552.417H0H1V547.426H0ZM0 557.408H-1V562.399H0H1V557.408H0ZM0 567.39H-1V572.381H0H1V567.39H0ZM0 577.372H-1V582.364H0H1V577.372H0ZM0 587.355H-1V589.849H0H1V587.355H0ZM0 589.849V590.849H2.46359V589.849V588.849H0V589.849ZM7.39077 589.849V590.849H12.3179V589.849V588.849H7.39077V589.849ZM17.2451 589.849V590.849H22.1723V589.849V588.849H17.2451V589.849ZM27.0995 589.849V590.849H32.0267V589.849V588.849H27.0995V589.849ZM36.9538 589.849V590.849H41.881V589.849V588.849H36.9538V589.849ZM46.8082 589.849V590.849H51.7354V589.849V588.849H46.8082V589.849ZM56.6625 589.849V590.849H61.5897V589.849V588.849H56.6625V589.849ZM66.5169 589.849V590.849H71.4441V589.849V588.849H66.5169V589.849ZM76.3713 589.849V590.849H81.2984V589.849V588.849H76.3713V589.849ZM86.2256 589.849V590.849H91.1528V589.849V588.849H86.2256V589.849ZM96.08 589.849V590.849H101.007V589.849V588.849H96.08V589.849ZM105.934 589.849V590.849H110.861V589.849V588.849H105.934V589.849ZM115.789 589.849V590.849H120.716V589.849V588.849H115.789V589.849ZM125.643 589.849V590.849H130.57V589.849V588.849H125.643V589.849ZM135.497 589.849V590.849H140.425V589.849V588.849H135.497V589.849ZM145.352 589.849V590.849H150.279V589.849V588.849H145.352V589.849ZM155.206 589.849V590.849H160.133V589.849V588.849H155.206V589.849ZM165.061 589.849V590.849H169.988V589.849V588.849H165.061V589.849ZM174.915 589.849V590.849H179.842V589.849V588.849H174.915V589.849ZM184.769 589.849V590.849H189.696V589.849V588.849H184.769V589.849ZM194.624 589.849V590.849H199.551V589.849V588.849H194.624V589.849ZM204.478 589.849V590.849H209.405V589.849V588.849H204.478V589.849ZM214.332 589.849V590.849H216.796V589.849V588.849H214.332V589.849ZM216.796 589.849H217.796V587.328H216.796H215.796V589.849H216.796ZM216.796 582.286H217.796V577.244H216.796H215.796V582.286H216.796ZM216.796 572.201H217.796V567.159H216.796H215.796V572.201H216.796ZM216.796 562.117H217.796V557.075H216.796H215.796V562.117H216.796ZM216.796 552.032H217.796V546.99H216.796H215.796V552.032H216.796ZM216.796 541.948H217.796V536.906H216.796H215.796V541.948H216.796ZM216.796 531.863H217.796V526.821H216.796H215.796V531.863H216.796ZM216.796 521.779H217.796V516.736H216.796H215.796V521.779H216.796ZM216.796 511.694H217.796V506.652H216.796H215.796V511.694H216.796ZM216.796 501.61H217.796V496.567H216.796H215.796V501.61H216.796ZM216.796 491.525H217.796V486.483H216.796H215.796V491.525H216.796ZM216.796 481.44H217.796V476.398H216.796H215.796V481.44H216.796ZM216.796 471.356H217.796V466.314H216.796H215.796V471.356H216.796ZM216.796 461.271H217.796V456.229H216.796H215.796V461.271H216.796ZM216.796 451.187H217.796V446.144H216.796H215.796V451.187H216.796ZM216.796 441.102H217.796V436.06H216.796H215.796V441.102H216.796ZM216.796 431.018H217.796V425.975H216.796H215.796V431.018H216.796ZM216.796 420.933H217.796V415.891H216.796H215.796V420.933H216.796ZM216.796 410.848H217.796V405.806H216.796H215.796V410.848H216.796ZM216.796 400.764H217.796V395.722H216.796H215.796V400.764H216.796ZM216.796 390.679H217.796V385.637H216.796H215.796V390.679H216.796ZM216.796 380.595H217.796V375.552H216.796H215.796V380.595H216.796ZM216.796 370.51H217.796V365.468H216.796H215.796V370.51H216.796ZM216.796 360.426H217.796V355.383H216.796H215.796V360.426H216.796ZM216.796 350.341H217.796V345.299H216.796H215.796V350.341H216.796ZM216.796 340.257H217.796V335.214H216.796H215.796V340.257H216.796ZM216.796 330.172H217.796V325.13H216.796H215.796V330.172H216.796ZM216.796 320.087H217.796V315.045H216.796H215.796V320.087H216.796ZM216.796 310.003H217.796V304.96H216.796H215.796V310.003H216.796ZM216.796 299.918H217.796V294.876H216.796H215.796V299.918H216.796ZM216.796 289.834H217.796V284.791H216.796H215.796V289.834H216.796ZM216.796 279.749H217.796V274.707H216.796H215.796V279.749H216.796ZM216.796 269.664H217.796V264.622H216.796H215.796V269.664H216.796ZM216.796 259.58H217.796V254.537H216.796H215.796V259.58H216.796ZM216.796 249.495H217.796V244.453H216.796H215.796V249.495H216.796ZM216.796 239.411H217.796V234.368H216.796H215.796V239.411H216.796ZM216.796 229.326H217.796V224.284H216.796H215.796V229.326H216.796ZM216.796 219.241H217.796V216.721H216.796H215.796V219.241H216.796ZM216.796 216.721V217.721H219.233V216.721V215.721H216.796V216.721ZM224.108 216.721V217.721H228.983V216.721V215.721H224.108V216.721ZM233.858 216.721V217.721H238.733V216.721V215.721H233.858V216.721ZM243.608 216.721V217.721H248.483V216.721V215.721H243.608V216.721ZM253.358 216.721V217.721H258.233V216.721V215.721H253.358V216.721ZM263.108 216.721V217.721H267.983V216.721V215.721H263.108V216.721ZM272.858 216.721V217.721H277.732V216.721V215.721H272.858V216.721ZM282.607 216.721V217.721H287.482V216.721V215.721H282.607V216.721ZM292.357 216.721V217.721H297.232V216.721V215.721H292.357V216.721ZM302.107 216.721V217.721H306.982V216.721V215.721H302.107V216.721ZM311.857 216.721V217.721H316.732V216.721V215.721H311.857V216.721ZM321.607 216.721V217.721H326.482V216.721V215.721H321.607V216.721ZM331.357 216.721V217.721H336.232V216.721V215.721H331.357V216.721ZM341.106 216.721V217.721H343.544V216.721V215.721H341.106V216.721ZM343.544 216.721L343.522 217.72C344.346 217.738 345.166 217.762 345.981 217.791L346.017 216.792L346.053 215.793C345.228 215.763 344.399 215.739 343.566 215.721L343.544 216.721ZM350.917 217.043L350.85 218.04C352.486 218.149 354.104 218.283 355.703 218.443L355.802 217.448L355.902 216.452C354.28 216.291 352.64 216.155 350.983 216.045L350.917 217.043ZM360.69 218.021L360.555 219.012C362.182 219.232 363.79 219.481 365.377 219.758L365.549 218.772L365.721 217.787C364.108 217.506 362.476 217.253 360.824 217.03L360.69 218.021ZM370.371 219.715L370.159 220.692C371.758 221.04 373.336 221.418 374.892 221.828L375.147 220.861L375.402 219.894C373.817 219.476 372.211 219.091 370.583 218.738L370.371 219.715ZM379.864 222.222L379.564 223.176C381.121 223.665 382.654 224.189 384.163 224.747L384.51 223.809L384.857 222.872C383.316 222.301 381.752 221.767 380.164 221.268L379.864 222.222ZM389.069 225.633L388.673 226.551C390.167 227.195 391.635 227.876 393.078 228.594L393.523 227.699L393.969 226.804C392.493 226.069 390.991 225.372 389.465 224.714L389.069 225.633ZM397.856 230.013L397.359 230.881C398.766 231.686 400.147 232.529 401.501 233.413L402.048 232.575L402.594 231.738C401.207 230.833 399.793 229.969 398.352 229.145L397.856 230.013ZM406.079 235.382L405.483 236.185C406.779 237.146 408.048 238.147 409.291 239.19L409.934 238.424L410.576 237.658C409.303 236.589 408.002 235.563 406.674 234.578L406.079 235.382ZM413.598 241.691L412.911 242.417C414.078 243.522 415.219 244.667 416.334 245.854L417.063 245.169L417.792 244.484C416.65 243.269 415.481 242.097 414.286 240.965L413.598 241.691ZM420.32 248.842L419.554 249.484C420.584 250.713 421.588 251.982 422.568 253.29L423.368 252.691L424.169 252.092C423.168 250.754 422.14 249.457 421.087 248.199L420.32 248.842ZM426.207 256.7L425.377 257.257C426.269 258.59 427.138 259.96 427.984 261.368L428.841 260.853L429.698 260.339C428.836 258.902 427.949 257.504 427.038 256.144L426.207 256.7ZM431.274 265.133L430.394 265.607C431.151 267.013 431.887 268.454 432.6 269.93L433.501 269.495L434.401 269.06C433.675 267.558 432.926 266.091 432.155 264.659L431.274 265.133ZM435.543 273.952L434.626 274.35C435.265 275.82 435.883 277.323 436.481 278.858L437.413 278.495L438.345 278.132C437.737 276.573 437.109 275.047 436.461 273.554L435.543 273.952ZM439.12 283.119L438.176 283.449C438.704 284.961 439.214 286.502 439.706 288.073L440.66 287.775L441.614 287.476C441.116 285.884 440.6 284.322 440.064 282.789L439.12 283.119ZM442.05 292.471L441.087 292.741C441.521 294.291 441.938 295.868 442.338 297.473L443.308 297.231L444.278 296.99C443.874 295.366 443.452 293.771 443.013 292.202L442.05 292.471ZM444.434 302.022L443.457 302.238C443.803 303.801 444.134 305.388 444.449 307.001L445.431 306.809L446.412 306.617C446.093 304.989 445.759 303.385 445.41 301.806L444.434 302.022ZM446.32 311.658L445.335 311.827C445.607 313.412 445.865 315.02 446.109 316.651L447.098 316.502L448.087 316.354C447.841 314.71 447.581 313.088 447.306 311.488L446.32 311.658ZM447.775 321.356L446.783 321.485C446.991 323.095 447.187 324.726 447.369 326.379L448.363 326.27L449.357 326.16C449.173 324.495 448.977 322.851 448.767 321.228L447.775 321.356ZM448.853 331.118L447.857 331.211C448.007 332.825 448.144 334.46 448.269 336.115L449.266 336.039L450.263 335.964C450.137 334.298 449.999 332.652 449.849 331.026L448.853 331.118ZM449.597 340.918L448.599 340.978C448.696 342.594 448.782 344.228 448.857 345.88L449.856 345.835L450.855 345.79C450.78 344.127 450.693 342.484 450.595 340.858L449.597 340.918ZM450.044 350.737L449.044 350.768C449.095 352.384 449.136 354.018 449.166 355.668L450.166 355.65L451.166 355.631C451.136 353.972 451.095 352.33 451.043 350.705L450.044 350.737ZM450.226 360.561L449.226 360.567C449.231 361.392 449.233 362.221 449.233 363.054H450.233H451.233C451.233 362.217 451.231 361.384 451.226 360.555L450.226 360.561ZM450.233 363.054H449.233V365.519H450.233H451.233V363.054H450.233ZM450.233 370.449H449.233V375.379H450.233H451.233V370.449H450.233ZM450.233 380.31H449.233V385.24H450.233H451.233V380.31H450.233ZM450.233 390.17H449.233V395.101H450.233H451.233V390.17H450.233ZM450.233 400.031H449.233V404.962H450.233H451.233V400.031H450.233ZM450.233 409.892H449.233V414.822H450.233H451.233V409.892H450.233ZM450.233 419.753H449.233V424.683H450.233H451.233V419.753H450.233ZM450.233 429.613H449.233V434.544H450.233H451.233V429.613H450.233ZM450.233 439.474H449.233V444.404H450.233H451.233V439.474H450.233ZM450.233 449.335H449.233V454.265H450.233H451.233V449.335H450.233ZM450.233 459.195H449.233V464.126H450.233H451.233V459.195H450.233ZM450.233 469.056H449.233V473.986H450.233H451.233V469.056H450.233ZM450.233 478.917H449.233V483.847H450.233H451.233V478.917H450.233ZM450.233 488.777H449.233V493.708H450.233H451.233V488.777H450.233ZM450.233 498.638H449.233V503.568H450.233H451.233V498.638H450.233ZM450.233 508.499H449.233V513.429H450.233H451.233V508.499H450.233ZM450.233 518.359H449.233V523.29H450.233H451.233V518.359H450.233ZM450.233 528.22H449.233V533.15H450.233H451.233V528.22H450.233ZM450.233 538.081H449.233V543.011H450.233H451.233V538.081H450.233ZM450.233 547.941H449.233V552.872H450.233H451.233V547.941H450.233ZM450.233 557.802H449.233V562.733H450.233H451.233V557.802H450.233ZM450.233 567.663H449.233V572.593H450.233H451.233V567.663H450.233ZM450.233 577.524H449.233V582.454H450.233H451.233V577.524H450.233ZM450.233 587.384H449.233V589.849H450.233H451.233V587.384H450.233ZM450.233 589.849V590.849H452.694V589.849V588.849H450.233V589.849ZM457.617 589.849V590.849H462.539V589.849V588.849H457.617V589.849ZM467.461 589.849V590.849H472.383V589.849V588.849H467.461V589.849ZM477.305 589.849V590.849H482.227V589.849V588.849H477.305V589.849ZM487.15 589.849V590.849H492.072V589.849V588.849H487.15V589.849ZM496.994 589.849V590.849H501.916V589.849V588.849H496.994V589.849ZM506.838 589.849V590.849H511.76V589.849V588.849H506.838V589.849ZM516.683 589.849V590.849H521.605V589.849V588.849H516.683V589.849ZM526.527 589.849V590.849H531.449V589.849V588.849H526.527V589.849ZM536.371 589.849V590.849H541.293V589.849V588.849H536.371V589.849ZM546.216 589.849V590.849H551.138V589.849V588.849H546.216V589.849ZM556.06 589.849V590.849H560.982V589.849V588.849H556.06V589.849ZM565.904 589.849V590.849H570.826V589.849V588.849H565.904V589.849ZM575.749 589.849V590.849H580.671V589.849V588.849H575.749V589.849ZM585.593 589.849V590.849H590.515V589.849V588.849H585.593V589.849ZM595.437 589.849V590.849H600.359V589.849V588.849H595.437V589.849ZM605.282 589.849V590.849H610.204V589.849V588.849H605.282V589.849ZM615.126 589.849V590.849H620.048V589.849V588.849H615.126V589.849ZM624.97 589.849V590.849H629.892V589.849V588.849H624.97V589.849ZM634.815 589.849V590.849H639.737V589.849V588.849H634.815V589.849ZM644.659 589.849V590.849H649.581V589.849V588.849H644.659V589.849ZM654.503 589.849V590.849H659.425V589.849V588.849H654.503V589.849ZM664.348 589.849V590.849H666.809V589.849V588.849H664.348V589.849ZM666.809 589.849H667.809V587.387H666.809H665.809V589.849H666.809ZM666.809 582.462H667.809V577.537H666.809H665.809V582.462H666.809ZM666.809 572.612H667.809V567.686H666.809H665.809V572.612H666.809ZM666.809 562.761H667.809V557.836H666.809H665.809V562.761H666.809ZM666.809 552.911H667.809V547.986H666.809H665.809V552.911H666.809ZM666.809 543.061H667.809V538.136H666.809H665.809V543.061H666.809ZM666.809 533.211H667.809V528.285H666.809H665.809V533.211H666.809ZM666.809 523.36H667.809V518.435H666.809H665.809V523.36H666.809ZM666.809 513.51H667.809V508.585H666.809H665.809V513.51H666.809ZM666.809 503.66H667.809V498.735H666.809H665.809V503.66H666.809ZM666.809 493.81H667.809V488.884H666.809H665.809V493.81H666.809ZM666.809 483.959H667.809V479.034H666.809H665.809V483.959H666.809ZM666.809 474.109H667.809V469.184H666.809H665.809V474.109H666.809ZM666.809 464.259H667.809V459.334H666.809H665.809V464.259H666.809ZM666.809 454.409H667.809V449.483H666.809H665.809V454.409H666.809ZM666.809 444.558H667.809V439.633H666.809H665.809V444.558H666.809ZM666.809 434.708H667.809V429.783H666.809H665.809V434.708H666.809ZM666.809 424.858H667.809V419.933H666.809H665.809V424.858H666.809ZM666.809 415.008H667.809V410.082H666.809H665.809V415.008H666.809ZM666.809 405.157H667.809V400.232H666.809H665.809V405.157H666.809ZM666.809 395.307H667.809V390.382H666.809H665.809V395.307H666.809ZM666.809 385.457H667.809V380.532H666.809H665.809V385.457H666.809ZM666.809 375.607H667.809V370.681H666.809H665.809V375.607H666.809ZM666.809 365.756H667.809V363.294H666.809H665.809V365.756H666.809ZM666.809 363.294L667.809 363.281C667.797 362.429 667.785 361.578 667.771 360.729L666.771 360.745L665.771 360.761C665.785 361.608 665.798 362.457 665.809 363.307L666.809 363.294ZM666.671 355.673L667.671 355.65C667.632 353.962 667.588 352.281 667.538 350.605L666.539 350.634L665.539 350.664C665.589 352.335 665.633 354.013 665.672 355.696L666.671 355.673ZM666.374 345.63L667.373 345.593C667.313 343.919 667.246 342.251 667.174 340.589L666.175 340.632L665.176 340.675C665.248 342.333 665.314 343.997 665.375 345.666L666.374 345.63ZM665.938 335.554L666.937 335.504C666.852 333.815 666.761 332.132 666.664 330.455L665.666 330.513L664.668 330.57C664.764 332.242 664.854 333.92 664.939 335.605L665.938 335.554ZM665.36 325.507L666.357 325.442C666.249 323.777 666.135 322.119 666.016 320.466L665.018 320.538L664.021 320.61C664.14 322.258 664.254 323.912 664.362 325.572L665.36 325.507ZM664.632 315.463L665.628 315.383C665.493 313.696 665.352 312.014 665.204 310.339L664.208 310.427L663.212 310.515C663.359 312.185 663.5 313.861 663.635 315.543L664.632 315.463ZM663.748 305.429L664.743 305.334C664.584 303.672 664.418 302.016 664.246 300.366L663.251 300.47L662.257 300.574C662.428 302.218 662.593 303.868 662.753 305.525L663.748 305.429ZM662.703 295.419L663.697 295.307C663.507 293.624 663.311 291.947 663.108 290.278L662.115 290.398L661.123 290.519C661.325 292.183 661.52 293.853 661.71 295.531L662.703 295.419ZM661.489 285.418L662.48 285.289C662.265 283.633 662.043 281.984 661.814 280.342L660.823 280.48L659.833 280.617C660.061 282.254 660.282 283.897 660.497 285.548L661.489 285.418ZM660.099 275.447L661.088 275.3C660.839 273.625 660.584 271.958 660.321 270.297L659.333 270.454L658.346 270.61C658.607 272.264 658.862 273.925 659.11 275.594L660.099 275.447ZM658.526 265.504L659.513 265.338C659.235 263.687 658.951 262.043 658.66 260.406L657.675 260.581L656.691 260.756C656.981 262.386 657.264 264.024 657.54 265.669L658.526 265.504ZM656.761 255.582L657.743 255.397C657.43 253.735 657.11 252.081 656.783 250.435L655.802 250.63L654.821 250.825C655.147 252.464 655.466 254.112 655.778 255.767L656.761 255.582ZM654.8 245.723L655.779 245.518C655.434 243.87 655.081 242.23 654.72 240.598L653.744 240.813L652.767 241.029C653.126 242.654 653.478 244.287 653.822 245.928L654.8 245.723ZM652.624 235.868L653.598 235.642C653.216 233.998 652.827 232.362 652.43 230.734L651.458 230.972L650.487 231.209C650.882 232.829 651.27 234.457 651.65 236.094L652.624 235.868ZM650.246 226.125L651.215 225.876C650.794 224.234 650.366 222.599 649.929 220.973L648.963 221.233L647.998 221.492C648.432 223.11 648.859 224.737 649.278 226.373L650.246 226.125ZM647.623 216.359L648.586 216.088C648.13 214.468 647.665 212.856 647.193 211.254L646.234 211.536L645.275 211.819C645.745 213.414 646.207 215.017 646.66 216.63L647.623 216.359ZM644.79 206.744L645.745 206.449C645.244 204.823 644.734 203.206 644.216 201.598L643.264 201.905L642.313 202.212C642.828 203.811 643.335 205.42 643.834 207.038L644.79 206.744ZM641.688 197.121L642.636 196.802C642.1 195.212 641.556 193.632 641.004 192.061L640.06 192.393L639.117 192.724C639.667 194.287 640.208 195.859 640.74 197.44L641.688 197.121ZM638.351 187.637L639.29 187.292C638.706 185.701 638.113 184.12 637.511 182.549L636.577 182.907L635.644 183.265C636.242 184.827 636.832 186.399 637.413 187.981L638.351 187.637ZM634.75 178.235L635.678 177.864C635.053 176.3 634.419 174.745 633.776 173.201L632.853 173.585L631.93 173.97C632.569 175.505 633.2 177.051 633.821 178.606L634.75 178.235ZM630.872 168.927L631.789 168.528C631.118 166.981 630.437 165.444 629.746 163.917L628.835 164.329L627.924 164.741C628.61 166.259 629.287 167.787 629.955 169.325L630.872 168.927ZM626.739 159.788L627.644 159.362C626.92 157.824 626.185 156.296 625.441 154.78L624.543 155.22L623.646 155.66C624.385 157.168 625.115 158.686 625.835 160.215L626.739 159.788ZM622.289 150.716L623.179 150.261C622.415 148.765 621.642 147.28 620.858 145.806L619.975 146.275L619.092 146.745C619.871 148.209 620.639 149.684 621.398 151.17L622.289 150.716ZM617.566 141.832L618.44 141.348C617.622 139.868 616.793 138.4 615.953 136.942L615.087 137.441L614.22 137.94C615.054 139.388 615.877 140.847 616.691 142.317L617.566 141.832ZM612.547 133.117L613.405 132.603C612.536 131.152 611.656 129.713 610.766 128.286L609.918 128.815L609.069 129.344C609.953 130.761 610.826 132.19 611.689 133.631L612.547 133.117ZM607.21 124.557L608.049 124.013C607.133 122.601 606.206 121.2 605.269 119.81L604.44 120.37L603.611 120.929C604.542 122.308 605.462 123.699 606.371 125.102L607.21 124.557ZM601.586 116.223L602.404 115.648C601.432 114.264 600.449 112.891 599.456 111.531L598.648 112.12L597.841 112.71C598.827 114.06 599.802 115.423 600.767 116.797L601.586 116.223ZM595.646 108.09L596.442 107.485C595.422 106.142 594.39 104.812 593.348 103.493L592.563 104.114L591.779 104.734C592.813 106.042 593.837 107.363 594.849 108.695L595.646 108.09ZM589.397 100.187L590.169 99.5521C589.099 98.2507 588.017 96.9616 586.924 95.6849L586.164 96.3352L585.405 96.9855C586.489 98.2523 587.562 99.5314 588.625 100.823L589.397 100.187ZM582.855 92.5462L583.602 91.8809C582.478 90.62 581.344 89.3717 580.198 88.1359L579.464 88.8159L578.731 89.4959C579.868 90.7218 580.994 91.9604 582.108 93.2114L582.855 92.5462ZM576.006 85.161L576.726 84.4665C575.555 83.2542 574.374 82.0547 573.181 80.8678L572.475 81.5767L571.77 82.2856C572.953 83.463 574.126 84.653 575.287 85.8556L576.006 85.161ZM568.868 78.0602L569.559 77.3371C568.34 76.173 567.11 75.0217 565.869 73.8831L565.193 74.6201L564.517 75.3571C565.748 76.4865 566.969 77.6285 568.177 78.7833L568.868 78.0602ZM561.449 71.2564L562.11 70.5058C560.846 69.3927 559.57 68.2925 558.283 67.2051L557.637 67.969L556.992 68.733C558.269 69.8116 559.534 70.9029 560.789 72.007L561.449 71.2564ZM553.757 64.7585L554.387 63.9816C553.078 62.9213 551.759 61.8738 550.427 60.8392L549.814 61.6288L549.2 62.4184C550.521 63.4447 551.83 64.4837 553.128 65.5355L553.757 64.7585ZM545.811 58.5828L546.409 57.781C545.058 56.7744 543.696 55.7806 542.322 54.7997L541.741 55.6135L541.16 56.4273C542.522 57.4004 543.874 58.3862 545.214 59.3847L545.811 58.5828ZM537.613 52.7278L538.177 51.9024C536.791 50.954 535.394 50.0183 533.985 49.0954L533.437 49.9318L532.889 50.7682C534.286 51.6839 535.673 52.6122 537.048 53.5531L537.613 52.7278ZM529.194 47.2118L529.725 46.3647C528.299 45.4699 526.861 44.5878 525.412 43.7184L524.898 44.5758L524.383 45.4333C525.821 46.296 527.247 47.1712 528.663 48.059L529.194 47.2118ZM520.568 42.0348L521.066 41.1674C519.606 40.3297 518.135 39.5044 516.653 38.6917L516.172 39.5685L515.691 40.4452C517.162 41.2518 518.621 42.0707 520.07 42.9021L520.568 42.0348ZM511.724 37.1839L512.188 36.298C510.705 35.5213 509.212 34.7568 507.708 34.0045L507.261 34.8989L506.813 35.7932C508.306 36.5399 509.788 37.2988 511.26 38.0697L511.724 37.1839ZM502.733 32.687L503.164 31.7844C501.641 31.0578 500.107 30.3433 498.563 29.6411L498.149 30.5514L497.735 31.4617C499.268 32.1589 500.791 32.8681 502.303 33.5895L502.733 32.687ZM493.573 28.5202L493.97 27.6026C492.429 26.935 490.878 26.2793 489.316 25.6355L488.935 26.56L488.554 27.4846C490.105 28.1239 491.645 28.775 493.175 29.4378L493.573 28.5202ZM484.235 24.671L484.6 23.7399C483.046 23.1311 481.482 22.5337 479.908 21.9479L479.56 22.8851L479.211 23.8223C480.774 24.4041 482.327 24.9974 483.87 25.6021L484.235 24.671ZM474.832 21.171L475.165 20.228C473.574 19.6662 471.974 19.116 470.363 18.5772L470.046 19.5255L469.728 20.4739C471.329 21.0092 472.919 21.5558 474.499 22.1139L474.832 21.171ZM465.272 17.9719L465.574 17.0185C463.98 16.5139 462.376 16.0202 460.763 15.5377L460.476 16.4957L460.189 17.4538C461.793 17.9333 463.386 18.4238 464.97 18.9253L465.272 17.9719ZM455.623 15.0855L455.895 14.1231C454.277 13.6667 452.65 13.2211 451.013 12.7865L450.757 13.753L450.5 14.7195C452.126 15.1515 453.744 15.5943 455.352 16.0479L455.623 15.0855ZM445.911 12.5047L446.153 11.5345C444.524 11.1277 442.886 10.7315 441.238 10.3458L441.011 11.3195L440.783 12.2932C442.42 12.6766 444.049 13.0705 445.668 13.4749L445.911 12.5047ZM436.056 10.1976L436.27 9.22072C434.647 8.86548 433.015 8.5203 431.374 8.18521L431.174 9.16498L430.974 10.1447C432.605 10.478 434.228 10.8212 435.842 11.1745L436.056 10.1976ZM426.245 8.19334L426.431 7.21091C424.775 6.89622 423.11 6.59162 421.437 6.2971L421.263 7.28197L421.09 8.26683C422.755 8.55979 424.411 8.86277 426.058 9.17577L426.245 8.19334ZM416.298 6.44199L416.459 5.45493C414.815 5.1879 413.163 4.93043 411.503 4.68253L411.355 5.67157L411.207 6.6606C412.859 6.90725 414.503 7.1634 416.138 7.42906L416.298 6.44199ZM406.363 4.95839L406.498 3.96757C404.821 3.73884 403.137 3.51969 401.444 3.31013L401.321 4.30256L401.198 5.29498C402.883 5.50352 404.559 5.7216 406.227 5.94921L406.363 4.95839ZM396.364 3.71899L396.475 2.72518C394.816 2.53981 393.149 2.36351 391.474 2.1963L391.375 3.19135L391.275 4.1864C392.942 4.35285 394.602 4.52832 396.253 4.71281L396.364 3.71899ZM386.339 2.71803L386.427 1.72189C384.748 1.57382 383.061 1.43471 381.367 1.30459L381.29 2.30165L381.214 3.29871C382.9 3.42826 384.58 3.56675 386.251 3.71416L386.339 2.71803ZM376.315 1.94688L376.381 0.949038C374.712 0.8391 373.035 0.737741 371.351 0.644975L371.296 1.64346L371.241 2.64195C372.918 2.73432 374.587 2.83525 376.249 2.94471L376.315 1.94688ZM366.234 1.39147L366.279 0.392457C364.602 0.317847 362.919 0.25162 361.228 0.193788L361.194 1.1932L361.16 2.19262C362.843 2.25022 364.52 2.31618 366.19 2.39048L366.234 1.39147ZM356.202 1.0474L356.227 0.0476944C354.553 0.00709981 352.872 -0.0253882 351.184 -0.0497599L351.17 0.950136L351.155 1.95003C352.836 1.97431 354.511 2.00667 356.178 2.04711L356.202 1.0474ZM346.096 0.901472L346.101 -0.0985162C345.25 -0.102581 344.398 -0.104614 343.544 -0.104614V0.895386V1.89539C344.395 1.89539 345.244 1.89741 346.092 1.90146L346.096 0.901472Z" fill="#F1F1F2" mask="url(#path-3-inside-1_2016_65)"/>
</g>
</svg>
