<svg width="160" height="160" viewBox="0 0 160 160" fill="none" xmlns="http://www.w3.org/2000/svg">
<rect width="160" height="160" fill="white"/>
<g clip-path="url(#clip0_2029_67)">
<path d="M41 104V67.5085L64.4964 55V104H41Z" fill="#8C8C8C"/>
<path d="M47.4749 82.0518H50.2784V94.7938H47.4749V82.0518Z" fill="#4A4A4A"/>
<path d="M53.1821 82.0518H55.752L61.7263 89.8904V82.0518H64.4965V94.7938H62.1268L55.9523 86.6882V94.7938H53.1821V82.0518Z" fill="#4A4A4A"/>
<path d="M66.7325 88.4227C66.7325 84.7869 69.5695 81.8516 73.4077 81.8516C75.7106 81.8516 77.079 82.4853 78.414 83.5861L76.6451 85.7209C75.6772 84.887 74.7761 84.42 73.3075 84.42C71.2716 84.42 69.6362 86.2212 69.6362 88.4227C69.6362 90.7576 71.2382 92.4588 73.5078 92.4588C74.5424 92.4588 75.4436 92.1919 76.1445 91.6916V89.857H73.3075V87.422H78.8479V92.9591C77.5462 94.0599 75.744 94.9938 73.4077 94.9938C69.436 94.9938 66.7325 92.2253 66.7325 88.4227Z" fill="#4A4A4A"/>
<path d="M81.2844 82.0518H87.0917C88.7271 82.0518 89.962 82.5187 90.7964 83.3526C91.4973 84.0531 91.8978 85.0538 91.8978 86.288C91.8978 88.356 90.7964 89.6236 89.161 90.224L92.2649 94.7604H88.9941L86.2239 90.691H84.0545V94.7604H81.251V82.0518H81.2844ZM86.9248 88.2226C88.2932 88.2226 89.0609 87.4888 89.0609 86.388C89.0609 85.1872 88.2265 84.5535 86.8581 84.5535H84.0879V88.2226H86.9248Z" fill="#4A4A4A"/>
<path d="M98.5395 81.9517H101.109L106.583 94.7604H103.646L102.478 91.8918H97.1044L95.9362 94.7604H93.0659L98.5395 81.9517ZM101.477 89.4568L99.7744 85.3206L98.0723 89.4568H101.477Z" fill="#4A4A4A"/>
<path d="M108.252 82.0518H113.225C117.23 82.0518 120 84.787 120 88.4228C120 91.9919 117.23 94.7938 113.225 94.7938H108.252V82.0518ZM113.225 92.2587C115.528 92.2587 117.063 90.7243 117.063 88.4228C117.063 86.1545 115.528 84.5868 113.225 84.5868H111.055V92.2587H113.225Z" fill="#4A4A4A"/>
</g>
<defs>
<clipPath id="clip0_2029_67">
<rect width="79" height="49" fill="white" transform="translate(41 55)"/>
</clipPath>
</defs>
</svg>
