<svg width="160" height="160" viewBox="0 0 160 160" fill="none" xmlns="http://www.w3.org/2000/svg">
<rect x="0.5" y="0.5" width="159" height="159" fill="white" stroke="#F1F1F2"/>
<g clip-path="url(#clip0_2029_66)">
<path fill-rule="evenodd" clip-rule="evenodd" d="M83.2786 86.4157C83.2786 86.2469 83.2786 86.0218 83.2219 85.853C82.6548 85.7968 82.0878 85.853 81.5207 85.853C81.5207 81.1834 81.5207 76.5137 81.5207 71.844C82.0878 71.844 82.6548 71.844 83.2219 71.844C83.2786 71.6752 83.2786 71.4501 83.2786 71.2814C83.1085 71.2814 82.9384 71.2251 82.7115 71.2251C80.6134 71.2251 78.4586 71.2251 76.3605 71.2251C76.1336 71.2251 75.9635 71.2251 75.7367 71.2814C75.5666 71.4501 75.68 71.6752 75.68 71.844C76.247 71.9002 76.8141 71.844 77.3812 71.844C77.3812 76.5137 77.3812 81.1834 77.3812 85.853C76.8141 85.9093 76.247 85.7968 75.68 85.9093C75.5666 86.0781 75.6233 86.3031 75.68 86.4719C77.7781 86.5282 79.8762 86.4719 81.9744 86.4719C82.428 86.4719 82.825 86.5282 83.2786 86.4157Z" fill="#4A4A4A"/>
<path fill-rule="evenodd" clip-rule="evenodd" d="M52.5439 71.9564C51.0695 71.1688 49.3683 70.8312 47.7239 71.0562C46.0794 71.225 44.4916 71.9564 43.3008 73.1379C42.0533 74.3757 41.3161 76.1198 41.2027 77.8639C41.0325 79.4954 41.2594 81.2395 41.9965 82.7586C42.6203 84.0526 43.641 85.0653 44.8886 85.7404C46.7599 86.7531 49.0281 86.9219 51.0695 86.3593C52.6573 85.9092 54.075 84.8965 54.9823 83.6025C55.8896 82.2522 56.3432 80.6207 56.3432 78.9891C56.3432 77.8639 56.1731 76.7386 55.7761 75.6697C55.2091 74.0943 54.0182 72.7441 52.5439 71.9564ZM51.6933 83.715C51.5232 84.559 51.1262 85.4029 50.3323 85.7967C49.5952 86.1905 48.6879 86.1905 47.894 86.0218C47.1001 85.853 46.4763 85.1778 46.1928 84.4464C45.8526 83.6025 45.7392 82.7023 45.6824 81.8022C45.569 80.3394 45.6257 78.9328 45.6257 77.47C45.6257 76.3448 45.6824 75.2196 45.9093 74.1506C46.0794 73.4192 46.3629 72.6316 46.9867 72.1815C47.3836 71.8439 47.894 71.6751 48.4043 71.6188C49.3116 71.5063 50.3891 71.6751 51.0128 72.4065C51.6366 73.1379 51.8634 74.1506 51.9768 75.1071C52.1469 76.4573 52.0902 77.8076 52.0902 79.1579C51.9768 80.6769 52.0335 82.196 51.6933 83.715Z" fill="#4A4A4A"/>
<path fill-rule="evenodd" clip-rule="evenodd" d="M23.0567 85.9093C23.0567 86.1344 22.9433 86.4719 23.2268 86.5282C24.4744 86.5282 25.7786 86.5282 27.0261 86.5282C27.3664 86.5282 27.253 86.1344 27.253 85.9656C26.6292 85.8531 26.0621 85.9656 25.4384 85.9093C25.4384 82.2523 25.4384 78.5953 25.4384 74.9384C28.9541 78.7641 32.4132 82.5899 35.929 86.4157C36.0991 86.6407 36.4393 86.4719 36.6662 86.5282C36.6662 81.6335 36.6662 76.795 36.6662 71.9002C37.2899 71.9002 37.857 71.9565 38.4808 71.844C38.4808 71.6752 38.4808 71.4502 38.4808 71.2814C37.5735 71.2251 36.6662 71.2814 35.7589 71.2251C35.3052 71.2251 34.7949 71.1689 34.3412 71.2251C34.2278 71.3939 34.2278 71.6189 34.3412 71.7877C34.9083 71.844 35.4753 71.7877 36.0991 71.7877C36.0991 74.6008 36.0991 77.4139 36.0991 80.1707C33.3205 77.1888 30.5986 74.1507 27.82 71.1689C26.2322 71.1689 24.6445 71.1126 23.0567 71.2251C23.0567 71.3939 23.0567 71.6189 23.0567 71.7877C23.6238 71.844 24.2475 71.7877 24.8146 71.844C24.8146 76.5137 24.8146 81.1834 24.8146 85.8531C24.2475 85.8531 23.6238 85.7968 23.0567 85.9093Z" fill="#4A4A4A"/>
<path fill-rule="evenodd" clip-rule="evenodd" d="M116.338 72.0127C114.864 71.1688 113.049 70.8312 111.348 71.0563C109.42 71.2813 107.549 72.2377 106.415 73.7568C105.11 75.3884 104.714 77.5263 104.827 79.5517C104.94 81.3521 105.564 83.0962 106.812 84.3902C107.832 85.5154 109.307 86.2468 110.781 86.5281C113.333 87.0345 116.225 86.3031 118.039 84.3339C119.174 83.1524 119.797 81.5209 119.967 79.8893C120.138 78.2577 119.911 76.6261 119.23 75.1633C118.663 73.8693 117.643 72.7441 116.338 72.0127ZM115.658 80.5082C115.601 81.8584 115.601 83.265 115.034 84.559C114.694 85.2904 114.013 85.853 113.219 86.0218C112.312 86.1906 111.235 86.1343 110.498 85.4592C109.874 84.8965 109.59 84.0526 109.42 83.265C109.08 81.5209 109.193 79.7768 109.193 78.0327C109.193 76.8512 109.193 75.7259 109.42 74.5445C109.59 73.7568 109.76 72.9691 110.327 72.4065C110.724 71.9564 111.235 71.6751 111.802 71.6189C112.709 71.4501 113.73 71.5626 114.41 72.1815C115.034 72.7441 115.318 73.588 115.431 74.3757C115.771 76.4573 115.601 78.4827 115.658 80.5082Z" fill="#4A4A4A"/>
<path fill-rule="evenodd" clip-rule="evenodd" d="M123.313 71.9002C123.483 72.2378 123.653 72.6316 123.824 73.0254C125.411 76.6824 126.999 80.3957 128.53 84.0527C128.927 84.8966 129.211 85.7405 129.608 86.5282C129.834 86.6407 130.118 86.5844 130.345 86.5282C130.685 85.7968 130.912 85.0654 131.195 84.334C131.989 82.3085 132.783 80.2831 133.577 78.2577C134.428 76.1198 135.221 73.9819 136.072 71.8439C136.582 71.8439 137.149 71.8439 137.66 71.8439C138 71.8439 138 71.1688 137.66 71.2251C136.299 71.2251 134.995 71.1688 133.634 71.2251C133.634 71.3938 133.577 71.6189 133.634 71.7877C134.201 71.9002 134.768 71.7877 135.278 71.8439C134.484 73.8693 133.69 75.8948 132.896 77.9202C132.5 78.8766 132.103 79.8893 131.706 80.8458C130.401 77.8076 129.097 74.8258 127.793 71.7877C128.36 71.7877 128.927 71.8439 129.494 71.7877C129.608 71.6189 129.608 71.4501 129.551 71.2813C129.381 71.1688 129.154 71.2251 128.927 71.1688C126.432 71.1688 123.88 71.1125 121.328 71.1688C121.328 71.3376 121.272 71.5064 121.272 71.7314C122.066 71.9565 122.746 71.7314 123.313 71.9002Z" fill="#4A4A4A"/>
<path fill-rule="evenodd" clip-rule="evenodd" d="M102.445 86.4718C102.445 86.303 102.445 86.078 102.389 85.9092C101.992 85.7966 101.595 85.9092 101.198 85.8529C99.4965 83.4337 97.7954 81.0707 96.0942 78.7077C95.5271 77.9763 95.0168 77.1324 94.4497 76.4573C94.5064 76.3447 94.5631 76.2322 94.6198 76.176C95.8674 74.7694 97.1716 73.3629 98.4191 71.9564C99.213 71.9001 100.007 72.0126 100.744 71.9001C100.744 71.7313 100.744 71.5625 100.744 71.3375C100.007 71.2812 99.2697 71.3375 98.5325 71.2812C97.5685 71.2812 96.6612 71.225 95.6972 71.3375C95.6972 71.5063 95.6972 71.7313 95.6972 71.9001C96.321 72.0126 96.9448 71.9001 97.5685 71.9564C96.3777 73.3066 95.1302 74.6569 93.8826 76.0072C93.1455 76.8511 92.4083 77.6387 91.6711 78.4264C91.6711 76.2322 91.6711 74.0943 91.6711 71.9001C92.2382 71.9001 92.8052 71.9564 93.3723 71.8438C93.429 71.6188 93.4857 71.225 93.2022 71.225C90.9906 71.1687 88.7791 71.225 86.5675 71.225C86.3407 71.225 86.0572 71.225 85.8304 71.2812C85.717 71.5063 85.7737 71.675 85.8304 71.9001C86.3974 71.9001 86.9645 71.9001 87.4748 71.9001C87.4748 76.5698 87.4748 81.2395 87.4748 85.9092C86.9078 85.9092 86.3407 85.8529 85.7737 85.9654C85.7737 86.1342 85.7737 86.3593 85.7737 86.528C86.7944 86.5843 87.8151 86.528 88.8358 86.5843C90.3669 86.5843 91.8412 86.5843 93.3723 86.5843C93.429 86.4155 93.429 86.1905 93.3723 86.0217C92.8052 85.9092 92.2382 86.0217 91.6711 85.9654C91.6711 83.8838 91.6711 81.7458 91.6711 79.6642C93.1455 81.7458 94.6198 83.8838 96.0942 85.9654C95.6972 85.9654 95.3003 85.9654 94.9034 86.0217C94.9034 86.1905 94.9034 86.4155 94.9034 86.5843C96.2076 86.6406 97.5118 86.5843 98.8161 86.6406C100.007 86.4718 101.198 86.528 102.445 86.4718Z" fill="#4A4A4A"/>
<path fill-rule="evenodd" clip-rule="evenodd" d="M115.091 95.0237C114.75 95.0799 114.41 95.0237 114.07 95.0237C114.013 94.6861 114.013 94.2923 114.013 93.9547C114.24 93.9547 114.467 93.9547 114.694 94.011C114.807 94.1235 114.921 94.2923 115.034 94.4048C115.034 94.0672 115.091 93.6734 114.977 93.3358C114.864 93.4484 114.807 93.6171 114.694 93.7297C114.467 93.7859 114.183 93.7297 113.957 93.7297C113.957 93.3921 113.957 93.0545 113.957 92.6607C114.24 92.6607 114.58 92.6607 114.864 92.6607C114.921 92.8295 114.977 93.0545 115.147 93.1671C115.204 92.8857 115.204 92.6607 115.261 92.3794C114.524 92.4357 113.786 92.3794 112.993 92.3794C113.163 92.4919 113.333 92.5482 113.503 92.6607C113.503 93.4484 113.56 94.1798 113.503 94.9674C113.276 95.0237 113.049 95.0237 112.936 95.1925C113.73 95.2487 114.524 95.1925 115.318 95.1925C115.488 94.9674 115.544 94.6861 115.601 94.4611C115.544 94.4611 115.431 94.4611 115.431 94.4611C115.318 94.6861 115.204 94.8549 115.091 95.0237Z" fill="#4A4A4A"/>
<path fill-rule="evenodd" clip-rule="evenodd" d="M63.5449 92.4918C62.9211 92.3793 62.3541 92.4918 61.7303 92.4355C61.787 92.6043 62.0138 92.6606 62.1839 92.7169C62.2406 93.5045 62.2406 94.2922 62.1839 95.0798C62.0138 95.1361 61.8437 95.1924 61.7303 95.3611C62.2406 95.3611 62.751 95.4737 63.2046 95.2486C63.0345 95.1924 62.8644 95.1361 62.6376 95.0798C62.6376 94.2922 62.6376 93.4483 62.6376 92.6606C62.8644 92.6606 63.1479 92.6606 63.3181 92.7731C63.6016 92.9982 63.6583 93.5045 63.4315 93.8421C63.2614 94.0671 63.0345 94.0109 62.8077 94.0109C62.8077 94.0671 62.8077 94.1796 62.8077 94.2359C63.2046 94.2359 63.715 94.1796 63.9418 93.7858C64.2254 93.2795 64.0552 92.6043 63.5449 92.4918Z" fill="#4A4A4A"/>
<path fill-rule="evenodd" clip-rule="evenodd" d="M83.8457 101.55C83.5621 101.606 83.2786 101.606 83.0518 101.494C82.9951 101.156 82.9951 100.875 82.9951 100.537C83.2219 100.537 83.4487 100.537 83.6755 100.594C83.7322 100.706 83.7889 100.875 83.9024 100.931C83.9591 100.594 83.9591 100.256 83.9024 99.9746C83.7889 100.087 83.7322 100.2 83.6755 100.312C83.4487 100.312 83.2219 100.312 82.9951 100.312C82.9951 99.9746 82.9951 99.6933 82.9951 99.3558C83.2786 99.3558 83.5621 99.3558 83.8457 99.3558C83.9024 99.4683 83.9024 99.5808 83.9591 99.6933C84.0158 99.6933 84.0725 99.6933 84.1292 99.6933C84.1292 99.4683 84.1859 99.2995 84.1859 99.0745C83.5054 99.1307 82.8249 99.0745 82.1445 99.0745C82.3146 99.187 82.428 99.2432 82.5981 99.2995C82.5981 99.9746 82.6548 100.706 82.5981 101.381C82.428 101.381 82.3146 101.437 82.1445 101.437C82.1445 101.494 82.1445 101.55 82.1445 101.606C82.8249 101.494 83.5054 101.662 84.2426 101.55C84.2993 101.325 84.4127 101.044 84.4127 100.819C84.1292 101.156 84.0725 101.437 83.8457 101.55Z" fill="#4A4A4A"/>
<path fill-rule="evenodd" clip-rule="evenodd" d="M74.0355 95.1925C73.8653 95.1362 73.6385 95.0799 73.4684 95.0237C73.4117 94.6861 73.4117 94.3485 73.4117 94.011C73.6952 94.011 73.9788 94.011 74.2623 94.011C74.3757 94.1798 74.3757 94.3485 74.6025 94.4611C74.6025 94.0672 74.6025 93.7297 74.6025 93.3358C74.4324 93.4484 74.3757 93.6171 74.2623 93.7859C73.9788 93.7859 73.6952 93.7859 73.4117 93.7859C73.4117 93.3921 73.4684 93.0545 73.4684 92.6607C73.8086 92.6607 74.1489 92.6044 74.4324 92.717C74.4891 92.8295 74.5458 92.9983 74.5458 93.1108C74.6025 93.1108 74.6592 93.1108 74.7159 93.1108C74.7159 92.8857 74.7726 92.6607 74.7726 92.3794C73.9788 92.4357 73.2416 92.3794 72.4477 92.3794C72.5611 92.5482 72.7312 92.6044 72.9013 92.6607C72.9581 93.4484 72.9581 94.236 72.9013 95.0237C72.7312 95.0799 72.5611 95.1362 72.391 95.2487C72.9581 95.305 73.5251 95.4175 74.0355 95.1925Z" fill="#4A4A4A"/>
<path fill-rule="evenodd" clip-rule="evenodd" d="M74.2623 71.8438C74.319 71.6188 74.3757 71.225 74.0922 71.225C73.0715 71.225 72.0508 71.225 71.0301 71.225C70.6898 71.225 70.4063 71.225 70.0661 71.2812C70.0094 71.45 70.0094 71.675 70.0661 71.8438C70.6331 71.9001 71.1435 71.8438 71.7106 71.9001C70.9167 73.9255 70.1228 76.0072 69.2722 78.0326C68.8753 78.989 68.535 79.9455 68.1381 80.9582C66.8338 77.8638 65.5296 74.8819 64.2254 71.8438C64.7924 71.8438 65.4162 71.9001 65.9832 71.7876C66.0967 71.6188 66.04 71.3937 65.9832 71.225C64.9058 71.1687 63.8284 71.225 62.751 71.225C61.1065 71.225 59.462 71.1687 57.8743 71.225C57.8176 71.3937 57.8176 71.5625 57.7609 71.7313C58.3279 71.9001 58.9517 71.7876 59.5755 71.8438C59.6889 71.9001 59.6889 72.0689 59.7456 72.1814C61.787 76.9074 63.7717 81.6333 65.8131 86.303C65.9265 86.6406 66.3802 86.5843 66.6637 86.4718C66.9473 85.7966 67.2308 85.1215 67.5143 84.4464C68.3649 82.3647 69.1588 80.2268 70.0094 78.1451C70.8033 76.1197 71.5971 74.038 72.4477 72.0126C72.4477 71.9564 72.5044 71.9001 72.5612 71.9001C73.0715 71.8438 73.6386 71.9001 74.2623 71.8438Z" fill="#4A4A4A"/>
<path fill-rule="evenodd" clip-rule="evenodd" d="M70.7465 99.412C70.8599 99.3558 71.0301 99.2995 71.1435 99.2995C71.0301 99.2432 70.9167 99.187 70.8032 99.187C70.463 99.187 70.1228 99.1307 69.8392 99.2995C70.0094 99.3558 70.1228 99.412 70.2929 99.4683C70.3496 100.143 70.3496 100.875 70.2929 101.55C70.1228 101.606 70.0094 101.662 69.8392 101.719C70.2929 101.888 70.7465 101.775 71.2569 101.831C71.0868 101.719 70.9167 101.606 70.7465 101.55C70.6898 100.819 70.6898 100.143 70.7465 99.412Z" fill="#4A4A4A"/>
<path fill-rule="evenodd" clip-rule="evenodd" d="M92.5784 93.8983C92.5784 93.5044 92.5217 93.0543 92.5784 92.6605C92.7485 92.6042 92.9753 92.6042 93.0887 92.3792C92.7485 92.3229 92.465 92.3792 92.1247 92.3792C91.8412 93.1106 91.501 93.7857 91.1607 94.4609C90.8205 93.7857 90.4803 93.1106 90.1967 92.3792C89.8565 92.3792 89.5163 92.2667 89.176 92.4917C89.3462 92.548 89.5163 92.6042 89.7431 92.6605C89.6864 93.3919 89.6864 94.067 89.573 94.7984C89.573 95.0797 89.2327 95.0797 89.0626 95.2485C89.5163 95.2485 89.9699 95.2485 90.4236 95.2485C90.3102 95.0235 89.9132 95.0797 89.8565 94.7984C89.8565 94.1796 89.9132 93.617 89.9699 92.9981C90.3669 93.7295 90.5937 94.5734 91.0473 95.3048C91.4443 94.5734 91.7278 93.7295 92.1247 92.9981C92.1815 93.617 92.1815 94.2921 92.1247 94.911C91.9546 94.9672 91.7845 95.0235 91.6711 95.0797C92.1247 95.2485 92.6351 95.1923 93.1455 95.136C92.9753 95.0235 92.8052 94.9672 92.6918 94.8547C92.5784 94.6297 92.6351 94.2921 92.5784 93.8983Z" fill="#4A4A4A"/>
<path fill-rule="evenodd" clip-rule="evenodd" d="M42.9039 94.1234C43.074 94.2359 43.3008 94.2922 43.5276 94.3485C43.5276 94.6298 43.5276 94.8548 43.5276 95.1361C43.1307 95.2486 42.7338 95.2486 42.3935 94.9673C41.8265 94.5172 41.7697 93.6733 42.0533 93.0544C42.2801 92.5481 42.9606 92.4918 43.4709 92.6606C43.7545 92.7731 43.7545 93.1107 43.8679 93.3358C44.1514 93.167 44.038 92.7731 44.0947 92.4918C43.4142 92.3793 42.6203 92.2668 41.9966 92.6606C41.146 93.2232 41.2027 94.7985 42.1667 95.2486C42.7905 95.5299 43.5276 95.4174 44.1514 95.2486C43.9813 94.9673 43.9813 94.686 43.9813 94.4047C44.038 94.2359 44.2081 94.1797 44.3215 94.0671C43.8679 94.0671 43.3575 93.9546 42.9039 94.1234Z" fill="#4A4A4A"/>
<path fill-rule="evenodd" clip-rule="evenodd" d="M119.174 93.8421C118.833 93.617 118.266 93.4482 118.266 92.9419C118.266 92.4918 119.003 92.3793 119.174 92.7731C119.23 92.8856 119.174 93.1669 119.4 93.1107C119.457 92.8856 119.457 92.6606 119.514 92.4355C119.174 92.3793 118.833 92.323 118.436 92.3793C117.983 92.4918 117.642 92.9419 117.869 93.392C118.039 93.8421 118.55 94.0108 118.947 94.2921C119.23 94.4609 119.23 94.9673 118.89 95.1361C118.606 95.2486 118.266 95.1923 118.096 94.911C117.983 94.7422 117.926 94.5735 117.813 94.4047C117.529 94.5735 117.813 94.9673 117.813 95.1923C118.323 95.4736 119.117 95.4174 119.457 94.911C119.741 94.5735 119.571 94.0108 119.174 93.8421Z" fill="#4A4A4A"/>
<path fill-rule="evenodd" clip-rule="evenodd" d="M69.3289 92.3793C68.9887 92.4918 68.7051 92.6606 68.4783 92.8856C68.0814 93.4482 68.0814 94.2359 68.4783 94.7985C69.0454 95.6424 70.463 95.5299 70.9734 94.686C71.3136 94.1796 71.3136 93.5045 70.9734 92.9982C70.6898 92.4355 69.9527 92.2105 69.3289 92.3793ZM70.5197 94.7985C70.1795 95.2486 69.4423 95.1923 69.1021 94.7985C68.8186 94.5172 68.7618 94.0671 68.7051 93.6733C68.7051 93.2232 68.932 92.6606 69.4423 92.5481C69.896 92.4355 70.3496 92.7168 70.5764 93.1107C70.8033 93.6733 70.86 94.3484 70.5197 94.7985Z" fill="#4A4A4A"/>
<path fill-rule="evenodd" clip-rule="evenodd" d="M66.8905 100.031C66.7204 99.862 66.7204 99.5807 66.8905 99.4119C67.0607 99.2994 67.3442 99.2994 67.5143 99.4119C67.571 99.5807 67.6277 99.7495 67.6844 99.862C67.8545 99.6932 67.8545 99.4682 67.8545 99.2431C67.6844 99.1306 67.4009 99.1306 67.1174 99.1306C66.6637 99.1306 66.2668 99.5244 66.4369 99.9745C66.5503 100.537 67.2308 100.593 67.5143 100.987C67.6277 101.212 67.5143 101.437 67.4009 101.606C67.1174 101.662 66.7204 101.606 66.607 101.269C66.4936 101.156 66.4936 100.931 66.3235 100.987C66.3235 101.269 66.2668 101.719 66.6637 101.775C67.004 101.887 67.4009 101.887 67.6844 101.662C67.968 101.494 68.1381 101.1 67.968 100.762C67.7411 100.425 67.2308 100.312 66.8905 100.031Z" fill="#4A4A4A"/>
<path fill-rule="evenodd" clip-rule="evenodd" d="M52.4872 92.3793C51.9768 92.4918 51.4665 92.8857 51.353 93.392C51.2396 93.9546 51.353 94.6298 51.8067 95.0236C52.3737 95.5299 53.3378 95.4737 53.9048 94.9111C54.4719 94.2922 54.4719 93.2232 53.9048 92.6606C53.5079 92.3793 52.9408 92.2668 52.4872 92.3793ZM53.678 94.7423C53.4512 95.2486 52.714 95.2486 52.317 94.9673C51.8634 94.6298 51.75 94.0109 51.8634 93.4483C51.9201 93.0544 52.2036 92.6606 52.6006 92.6043C52.9408 92.5481 53.281 92.7169 53.5079 92.9419C53.9048 93.392 53.9615 94.1234 53.678 94.7423Z" fill="#4A4A4A"/>
<path fill-rule="evenodd" clip-rule="evenodd" d="M48.1208 93.9546C48.4043 93.7296 48.6879 93.4483 48.6312 93.1107C48.5745 92.7731 48.2342 92.4355 47.894 92.4355C47.3836 92.4355 46.93 92.4918 46.4196 92.4355C46.4196 92.4918 46.4196 92.5481 46.4196 92.6043C46.533 92.6606 46.7032 92.6606 46.8166 92.7169C46.8733 93.5045 46.8733 94.2922 46.8166 95.0798C46.6464 95.1361 46.4763 95.1924 46.3629 95.3049C46.8166 95.3049 47.2702 95.3611 47.7239 95.3049C47.894 95.1361 47.4403 95.1361 47.3269 95.0798C47.2702 94.7423 47.2702 94.4047 47.2702 94.0671C47.3836 94.0671 47.5537 94.1234 47.6672 94.1234C47.9507 94.461 48.1208 94.911 48.461 95.1924C48.7446 95.3611 49.0848 95.3611 49.425 95.3049C49.2549 95.1361 49.0281 95.0798 48.858 94.911C48.5745 94.6297 48.3476 94.2922 48.1208 93.9546ZM47.2702 93.8421C47.2702 93.4483 47.2702 92.9982 47.3269 92.6043C47.5537 92.6043 47.7806 92.6043 48.0074 92.7731C48.2909 92.9982 48.2909 93.392 48.1208 93.6733C47.8373 93.8983 47.5537 93.8421 47.2702 93.8421Z" fill="#4A4A4A"/>
<path fill-rule="evenodd" clip-rule="evenodd" d="M102.048 94.8548C101.708 94.0671 101.425 93.2232 101.141 92.4355C101.028 92.4355 100.914 92.4355 100.801 92.4355C100.517 93.2232 100.234 94.0109 99.8935 94.7985C99.7801 95.0798 99.4965 95.0798 99.2697 95.2486C99.7234 95.3049 100.177 95.2486 100.631 95.2486C100.517 95.0798 100.347 95.0236 100.177 94.9673C100.234 94.686 100.347 94.4047 100.461 94.1234C100.744 94.1234 101.028 94.1234 101.368 94.1234C101.481 94.4047 101.595 94.686 101.651 94.9673C101.481 95.0236 101.368 95.1361 101.254 95.2486C101.708 95.3049 102.218 95.3049 102.672 95.2486C102.445 95.1361 102.162 95.0798 102.048 94.8548ZM100.517 93.9546C100.631 93.617 100.744 93.2795 100.857 92.9982C100.971 93.3357 101.084 93.617 101.198 93.9546C100.971 93.9546 100.744 93.9546 100.517 93.9546Z" fill="#4A4A4A"/>
<path fill-rule="evenodd" clip-rule="evenodd" d="M95.9808 92.4355C95.6973 92.4918 95.357 92.323 95.0735 92.5481C95.2436 92.6043 95.357 92.6606 95.5271 92.7168C95.5838 93.1107 95.5271 93.5045 95.5838 93.8983C95.5838 94.2922 95.6406 94.6297 95.5271 95.0236C95.357 95.1361 95.2436 95.1923 95.0735 95.3049C95.5838 95.3611 96.0942 95.3611 96.6046 95.3049C96.4911 95.1361 96.2643 95.1361 96.0942 95.0236C96.0375 94.2359 96.0942 93.392 96.0942 92.6043C96.321 92.6043 96.6046 92.6043 96.8314 92.7731C97.1149 93.0544 97.1149 93.5608 96.8881 93.8421C96.718 94.0109 96.4344 93.9546 96.2076 94.0109C96.3777 94.2922 96.718 94.1796 96.9448 94.1234C97.5119 93.9546 97.7387 93.1107 97.3417 92.7168C96.8881 92.323 96.3777 92.4355 95.9808 92.4355Z" fill="#4A4A4A"/>
<path fill-rule="evenodd" clip-rule="evenodd" d="M89.6297 99.3557C89.0626 99.5807 88.8925 100.425 89.4029 100.818C89.6864 101.044 90.0266 100.875 90.3669 100.818C90.2535 100.987 90.14 101.212 89.9699 101.381C89.7431 101.606 89.4029 101.775 89.176 102C89.7431 102 90.1968 101.606 90.537 101.212C90.8772 100.762 90.9906 100.087 90.7071 99.637C90.537 99.2431 90.0266 99.1306 89.6297 99.3557ZM90.4236 100.593C90.1968 100.65 89.8565 100.706 89.6864 100.481C89.4029 100.143 89.5163 99.4119 90.0266 99.4682C90.4803 99.5807 90.537 100.2 90.4236 100.593Z" fill="#4A4A4A"/>
<path fill-rule="evenodd" clip-rule="evenodd" d="M85.0932 92.3791C84.5828 92.4917 84.1292 92.8855 84.0158 93.4481C83.9023 94.0107 84.0158 94.6859 84.4694 95.0797C85.0932 95.5298 86.0572 95.4735 86.5675 94.9109C87.0212 94.4046 87.0779 93.5044 86.7377 92.9418C86.3974 92.4354 85.7169 92.2104 85.0932 92.3791ZM86.4541 94.4046C86.3974 94.6859 86.2273 94.9672 85.9438 95.0797C85.5468 95.2485 85.0365 95.0797 84.8096 94.6859C84.4694 94.1795 84.4127 93.4481 84.6962 92.8855C84.7529 92.773 84.8664 92.6605 85.0365 92.6042C85.4334 92.4354 85.9438 92.5479 86.1706 92.8855C86.5108 93.3356 86.5675 93.8982 86.4541 94.4046Z" fill="#4A4A4A"/>
<path fill-rule="evenodd" clip-rule="evenodd" d="M106.358 92.5482C106.528 92.6044 106.755 92.6607 106.982 92.717C107.038 93.3358 106.982 94.011 107.038 94.6298C106.415 93.8985 105.848 93.1671 105.224 92.4357C104.884 92.3794 104.6 92.3794 104.26 92.3794C104.373 92.5482 104.657 92.6044 104.827 92.717C104.827 93.5046 104.827 94.236 104.77 95.0237C104.657 95.0799 104.487 95.0799 104.373 95.1362C104.373 95.1925 104.373 95.2487 104.373 95.305C104.77 95.305 105.167 95.305 105.621 95.305C105.621 95.2487 105.621 95.1925 105.621 95.1362C105.451 95.0799 105.167 95.0799 105.167 94.8549C105.11 94.236 105.11 93.6734 105.11 93.0545C105.734 93.7859 106.301 94.5173 106.925 95.2487C107.038 95.2487 107.152 95.305 107.265 95.305C107.265 94.4048 107.265 93.5046 107.322 92.6607C107.492 92.6044 107.719 92.6044 107.719 92.3794C107.209 92.4919 106.755 92.3231 106.358 92.5482Z" fill="#4A4A4A"/>
<path fill-rule="evenodd" clip-rule="evenodd" d="M91.3876 99.5807C91.0474 99.9182 91.1041 100.593 91.501 100.875C91.7845 101.043 92.1248 100.875 92.4083 100.818C92.2382 101.1 92.0681 101.381 91.7845 101.55C91.6144 101.719 91.3309 101.775 91.2742 102C91.9547 101.831 92.6351 101.325 92.862 100.65C92.9754 100.256 92.9187 99.7494 92.6351 99.4119C92.2382 99.1306 91.6711 99.2431 91.3876 99.5807ZM92.4083 100.537C92.1248 100.762 91.6711 100.65 91.5577 100.368C91.3876 100.031 91.501 99.5244 91.8979 99.4681C92.4083 99.4681 92.5784 100.143 92.4083 100.537Z" fill="#4A4A4A"/>
<path fill-rule="evenodd" clip-rule="evenodd" d="M79.7628 101.55C79.4226 101.719 79.0256 101.663 78.7421 101.438C78.2317 101.044 78.175 100.2 78.4586 99.6934C78.7421 99.2996 79.3091 99.2433 79.7628 99.4684C79.8762 99.6371 79.9329 99.8622 80.103 100.031C80.1597 99.7497 80.1597 99.5246 80.2164 99.2433C79.6494 99.1308 79.0256 99.0745 78.4586 99.3558C77.5513 99.8059 77.608 101.381 78.572 101.719C78.9689 101.888 79.4793 101.888 79.9329 101.775C80.1597 101.606 80.3299 101.325 80.2732 101.044C80.103 101.212 79.9329 101.381 79.7628 101.55Z" fill="#4A4A4A"/>
<path fill-rule="evenodd" clip-rule="evenodd" d="M80.9537 95.0798C80.3866 95.3048 79.7061 94.911 79.536 94.3484C79.3659 93.7858 79.4226 92.9981 79.9897 92.6606C80.3299 92.4918 80.7836 92.4918 81.1238 92.7168C81.3506 92.8293 81.1805 93.2794 81.464 93.2232C81.5207 92.9981 81.5207 92.7168 81.5774 92.4355C80.9537 92.323 80.2165 92.2105 79.6494 92.548C78.7988 92.9981 78.6854 94.3484 79.3659 95.0235C79.933 95.4736 80.6701 95.4736 81.3506 95.2486C81.464 95.0235 81.6908 94.7422 81.6341 94.4609C81.4073 94.686 81.2372 94.9673 80.9537 95.0798Z" fill="#4A4A4A"/>
<path fill-rule="evenodd" clip-rule="evenodd" d="M59.0651 92.7169C59.1218 93.1669 59.1218 93.617 59.1218 94.0671C59.1218 94.3484 59.1218 94.686 58.895 94.911C58.6681 95.1924 58.2712 95.1924 57.9877 95.0798C57.6474 94.9673 57.4206 94.5735 57.4206 94.2359C57.4206 93.7296 57.4206 93.2795 57.4206 92.7731C57.534 92.6043 57.7041 92.6043 57.8742 92.5481C57.4773 92.3793 57.0237 92.4918 56.57 92.4355C56.57 92.4918 56.57 92.5481 56.57 92.6043C56.6834 92.6606 56.7968 92.6606 56.9102 92.7169C57.0237 93.392 56.9102 94.0671 57.0237 94.7985C57.1371 95.2486 57.5907 95.4737 58.0444 95.4737C58.498 95.4737 59.0651 95.3611 59.2352 94.8548C59.462 94.1796 59.3486 93.5045 59.4053 92.8294C59.5754 92.7169 59.6888 92.6043 59.859 92.4918C59.4053 92.4918 59.0084 92.4918 58.5547 92.4918C58.6114 92.6043 58.8383 92.6043 59.0651 92.7169Z" fill="#4A4A4A"/>
<path fill-rule="evenodd" clip-rule="evenodd" d="M110.611 95.0237C110.554 94.236 110.611 93.5046 110.611 92.717C110.724 92.6044 110.951 92.5482 111.065 92.4919C110.611 92.3231 110.157 92.4357 109.704 92.3794C109.704 92.4357 109.704 92.4919 109.704 92.5482C109.817 92.6044 109.987 92.6044 110.101 92.6607C110.214 93.0545 110.157 93.3921 110.157 93.7859C110.157 94.1798 110.214 94.5736 110.101 94.9674C109.931 95.0799 109.76 95.1362 109.647 95.2487C110.157 95.2487 110.668 95.305 111.121 95.2487C111.008 95.1362 110.838 95.0799 110.611 95.0237Z" fill="#4A4A4A"/>
<path fill-rule="evenodd" clip-rule="evenodd" d="M23 93.6169C23 93.7295 23 93.8983 23 94.0108C28.3304 94.0108 33.7175 94.0108 39.0478 94.0108C39.0478 93.8983 39.0478 93.7295 39.0478 93.6169C33.7175 93.6169 28.3304 93.6169 23 93.6169Z" fill="#4A4A4A"/>
<path fill-rule="evenodd" clip-rule="evenodd" d="M94.2796 101.55C94.2229 100.762 94.2796 100.031 94.2229 99.2432C93.9394 99.2994 93.7125 99.4119 93.429 99.4682C93.429 99.6933 93.6558 99.5807 93.826 99.6933C93.826 100.312 93.8827 100.931 93.826 101.606C93.7125 101.662 93.5424 101.719 93.429 101.719C93.429 101.775 93.429 101.831 93.429 101.887C93.8827 101.831 94.3363 101.887 94.79 101.887C94.6765 101.606 94.4497 101.606 94.2796 101.55Z" fill="#4A4A4A"/>
<path fill-rule="evenodd" clip-rule="evenodd" d="M137.83 93.6169C132.499 93.6169 127.226 93.6169 121.895 93.6169C121.895 93.7295 121.895 93.8983 121.895 94.0108C127.283 94.0108 132.613 94.0108 138 94.0108C137.943 93.8983 138.057 93.6169 137.83 93.6169Z" fill="#4A4A4A"/>
<path fill-rule="evenodd" clip-rule="evenodd" d="M88.2687 101.55C88.212 100.762 88.2687 100.031 88.2687 99.2432C88.0419 99.3557 87.7584 99.4119 87.5316 99.4682C87.3614 99.6933 87.7584 99.5807 87.8718 99.637C87.8718 100.256 87.8718 100.931 87.8718 101.55C87.7017 101.606 87.5883 101.606 87.4182 101.662C87.4182 101.719 87.4182 101.775 87.4182 101.831C87.8718 101.775 88.3254 101.831 88.7791 101.831C88.609 101.662 88.4389 101.606 88.2687 101.55Z" fill="#4A4A4A"/>
<path fill-rule="evenodd" clip-rule="evenodd" d="M74.8294 99.2432C74.6593 99.412 75.1129 99.412 75.2263 99.4683C75.283 100.031 75.2263 100.594 75.2263 101.156C74.716 100.594 74.2623 100.031 73.8087 99.412C73.5818 99.0745 73.1282 99.1307 72.788 99.2432C72.9581 99.3558 73.1849 99.3558 73.2983 99.4683C73.355 100.143 73.2983 100.762 73.2416 101.437C73.0715 101.494 72.9014 101.606 72.788 101.662C73.1849 101.719 73.6386 101.719 74.0922 101.719C73.9221 101.606 73.752 101.494 73.5818 101.437C73.5251 100.875 73.5251 100.312 73.5818 99.6933C74.0922 100.312 74.6026 100.931 75.0562 101.55C75.1129 101.719 75.3397 101.662 75.4531 101.719C75.4531 100.931 75.4531 100.143 75.5099 99.3558C75.6233 99.2995 75.7934 99.187 75.9068 99.0745C75.5666 99.2432 75.2263 99.187 74.8294 99.2432Z" fill="#4A4A4A"/>
</g>
<defs>
<clipPath id="clip0_2029_66">
<rect width="115" height="31" fill="white" transform="translate(23 71)"/>
</clipPath>
</defs>
</svg>
