<svg width="160" height="160" viewBox="0 0 160 160" fill="none" xmlns="http://www.w3.org/2000/svg">
<rect width="160" height="160" fill="white"/>
<g clip-path="url(#clip0_2029_68)">
<path d="M100.631 97.9744C100.251 96.2398 99.5993 94.6677 98.1869 93.5294C96.9918 92.5536 95.6337 92.2826 94.1127 92.7162C93.1349 92.9873 92.3744 93.5294 91.7768 94.3425C91.6682 94.5051 91.5052 94.6135 91.3422 94.8303C91.3422 93.963 91.3422 93.2583 91.3422 92.5536C91.3422 91.8489 91.2336 91.7405 90.5274 91.7405C89.0607 91.7405 87.594 91.7405 86.1273 91.7405C85.4754 91.7405 85.3668 91.8489 85.3668 92.5536C85.3668 93.2583 85.3668 94.0172 85.3668 94.7219C85.3125 94.7219 85.3125 94.7219 85.2581 94.7761C85.1495 94.6135 85.0408 94.4509 84.8779 94.2883C82.8679 91.9031 79.7716 92.0657 77.7073 94.1256C76.7295 95.1556 76.2406 96.4566 75.9147 97.8118C75.5887 99.2754 75.5887 100.793 75.7517 102.257C75.969 103.775 76.4036 105.184 77.3271 106.431C78.6308 108.22 80.695 108.87 82.7593 108.166C83.6285 107.84 84.2803 107.298 84.8779 106.594C84.9322 106.539 85.0408 106.377 85.1495 106.431C85.2581 106.485 85.2038 106.973 85.2038 107.027C85.2038 108.87 85.3125 110.334 84.5519 112.069C84.389 112.448 84.4976 112.827 84.7149 113.153C84.9865 113.586 85.4211 113.857 85.91 114.02C86.5075 114.183 87.1051 114.183 87.757 114.074C89.8212 113.857 91.3422 112.069 91.2879 109.954C91.2879 109.141 91.2879 108.382 91.2879 107.569C91.2879 107.081 91.2879 106.648 91.2879 106.051C91.4509 106.214 91.5052 106.323 91.5595 106.377C92.5373 107.678 93.7868 108.491 95.5251 108.382C96.8288 108.328 97.9153 107.786 98.7844 106.865C100.142 105.347 100.686 103.504 100.849 101.552C100.903 100.305 100.849 99.167 100.631 97.9744ZM85.0408 102.907C84.9865 103.124 84.8779 103.287 84.7692 103.449C84.226 104.371 82.9766 104.371 82.4334 103.504C82.0531 102.907 81.9445 102.257 81.8901 101.606C81.8358 101.227 81.8358 100.793 81.8358 100.36C81.8358 99.5465 81.8901 98.7333 82.2161 97.9202C82.379 97.4866 82.5963 97.1071 83.0309 96.8903C83.6285 96.565 84.3346 96.7276 84.7149 97.2697C85.1495 97.8118 85.2581 98.5165 85.3125 99.167C85.3668 100.414 85.4211 101.661 85.0408 102.907ZM94.3843 102.799C94.33 103.07 94.2213 103.287 94.0584 103.504C93.5151 104.425 92.1571 104.425 91.7225 103.449C91.4509 102.799 91.2336 102.094 91.1793 101.335C91.0706 100.305 91.2336 99.0044 91.3966 98.2997C91.5052 97.9202 91.7225 97.4866 91.9398 97.1613C92.483 96.4566 93.5151 96.5108 93.9497 97.2697C94.2213 97.7576 94.4929 98.3539 94.6016 98.9502C94.8189 100.197 94.8189 101.498 94.3843 102.799Z" fill="#4A4A4A"/>
<path d="M40.5508 86.211C39.9532 85.3437 40.0619 84.3137 40.931 83.7174C41.3113 83.4464 41.7459 83.338 42.1261 83.1211C42.3977 83.0127 42.5064 83.1211 42.5064 83.3922C42.5064 83.5006 42.5064 83.6632 42.5064 83.7716C42.5064 85.1268 42.5064 86.5363 42.5064 87.8915C42.5064 88.7046 42.7237 88.9214 43.4842 88.9214C44.7879 88.9214 46.0917 88.9214 47.3954 88.9214C48.1016 88.9214 48.3189 88.7046 48.3189 88.0541C48.3189 87.241 48.3189 86.4278 48.3189 85.6689C48.3189 84.8558 48.3189 84.0427 48.3189 83.2296C48.3189 83.0669 48.2645 82.6875 48.4818 82.6875C48.6448 82.6875 48.7534 83.338 48.7534 83.3922C48.9164 84.1511 48.9707 84.91 49.188 85.6147C49.7313 87.6746 50.9807 88.9756 53.2079 89.2467C54.9462 89.4635 56.4672 88.9756 57.608 87.6204C57.9883 87.1868 57.9339 86.8615 57.4994 86.482C56.9561 85.9942 56.4129 85.5063 55.8154 85.0726C54.7289 84.1511 53.9141 83.0669 53.3165 81.8201C53.0992 81.4407 53.1536 81.3865 53.5338 81.2238C54.2943 80.8444 55.0005 80.3565 55.6524 79.7602C56.6845 78.7303 56.8475 77.2124 56.2499 75.9114C55.3265 73.8515 52.6647 72.9842 50.5461 74.4478C50.2745 74.6646 50.0572 74.9357 49.8399 75.2067C49.5683 75.5862 49.5683 75.9656 49.8942 76.3451C50.1115 76.6161 50.2745 76.8872 50.4374 77.1582C50.6547 77.5919 50.7091 78.0798 50.4918 78.5676C50.1115 79.3266 49.4596 79.706 48.6448 79.9228C48.4275 79.9771 48.2645 79.8686 48.2645 79.6518C48.2645 79.4892 48.2645 79.3266 48.2645 79.2181C48.2645 77.8629 48.2645 76.5077 48.2645 75.1525C48.2645 74.3936 48.0473 74.1768 47.2867 74.1768C45.983 74.1768 44.6793 74.1768 43.4299 74.1768C42.6693 74.1768 42.452 74.3936 42.452 75.1525C42.452 76.1283 42.452 77.104 42.452 78.0798C42.452 78.7845 42.452 79.4892 42.452 80.1939C42.452 80.3023 42.3434 80.4107 42.2348 80.5191C42.1804 80.4107 42.0718 80.3023 42.0175 80.1939C41.9088 79.435 41.8002 78.6761 41.6372 77.9171C41.2026 76.0198 40.2792 74.502 38.2149 74.0141C37.0741 73.7431 35.9334 73.7973 34.8469 74.231C34.1407 74.5562 33.4888 74.9899 33.0543 75.6946C32.837 76.0199 32.837 76.2909 33.1629 76.5619C33.5975 76.9414 34.0864 77.3208 34.521 77.7003C35.6617 78.7303 36.6939 79.8686 37.3457 81.2781C37.563 81.7117 37.5087 81.7659 37.1285 81.9828C36.5852 82.308 36.042 82.6333 35.4988 83.0127C33.5432 84.4221 33.8691 86.9699 35.0642 88.3251C35.9334 89.2467 37.0198 89.5177 38.2149 89.4635C39.247 89.4093 40.0619 88.9756 40.7137 88.1625C41.094 87.6746 41.094 87.3494 40.7137 86.8073C40.7681 86.482 40.6594 86.3736 40.5508 86.211Z" fill="#4A4A4A"/>
<path d="M79.7715 88.542C81.8357 89.6262 83.9543 89.6804 86.0729 88.9215C87.7569 88.3252 89.0063 87.241 89.7668 85.6148C90.3644 84.3138 90.473 83.0128 90.2014 81.6034C89.9298 79.9229 89.0063 78.5677 87.4853 77.8088C86.7248 77.4293 85.9099 77.2125 85.1494 76.9415C85.5297 76.7788 85.9099 76.562 86.2902 76.3452C87.268 75.8031 88.1371 75.1526 88.7347 74.1768C89.6582 72.659 89.6582 71.087 88.7347 69.5691C87.5939 67.6176 85.3124 66.6961 83.0308 67.2382C81.0209 67.6718 79.4456 68.8102 78.1961 70.4365C76.8381 72.2253 76.1862 74.3395 75.7516 76.5078C75.48 77.863 75.5343 79.2724 75.5343 80.6818C75.5343 82.4165 75.9146 84.0969 76.7838 85.6148C77.5443 86.8616 78.5221 87.8373 79.7715 88.542ZM82.1617 74.231C82.3246 73.3095 82.4876 72.4422 82.9222 71.629C83.3024 70.8701 83.9543 70.8701 84.4432 71.0327C84.7148 71.1412 84.9321 71.5206 84.8778 71.9543C84.8235 72.1711 84.7148 72.5506 84.4975 72.8216C83.9543 73.5263 83.2481 74.0684 82.4876 74.4479C82.2703 74.5021 82.1074 74.6105 82.1617 74.231ZM82.7592 80.1397C83.7913 80.2482 84.6062 80.9529 84.8235 81.9828C85.0408 82.9044 85.0408 83.8259 84.6062 84.6932C84.4432 85.0185 84.2803 85.2895 84.063 85.5064C83.6284 85.94 82.7592 85.9942 82.2703 85.2895C81.7814 84.639 81.6728 83.8259 81.5641 83.067C81.4555 82.4707 81.4555 81.8744 81.4555 81.4949C81.4012 80.2482 81.6728 79.9771 82.7592 80.1397Z" fill="#4A4A4A"/>
<path d="M59.8352 73.6348C59.129 73.7974 58.5314 74.1769 58.2598 74.8816C58.1512 75.0984 58.1512 75.4779 58.2055 75.6947C58.7487 77.0499 58.9117 78.4593 58.9117 79.8687C58.9117 81.495 58.9117 83.067 58.9117 84.6933C58.9117 85.7232 59.1833 86.699 59.7265 87.5663C60.5957 89.0299 62.1167 89.7346 63.8007 89.4094C65.3217 89.1383 66.4082 88.2168 67.223 87.0242C67.3316 86.9158 67.4403 86.8074 67.5489 86.6448C67.6033 86.7532 67.7119 86.8616 67.7662 87.0242C68.4724 88.7047 70.1021 89.7888 72.1663 89.4636C73.3071 89.301 74.1763 88.7589 74.8281 87.7831C75.2084 87.2411 75.2084 87.0242 74.6109 86.699C74.0676 86.3737 73.7417 85.8858 73.6331 85.2354C73.5244 84.4764 73.4158 83.7717 73.4158 83.0128C73.4158 82.0913 73.4701 81.1697 73.5244 80.194C73.5787 78.5135 73.6331 76.7789 73.6331 75.0984C73.6331 74.2853 73.4158 74.0684 72.6009 74.0684C71.8404 74.0684 71.0799 74.0684 70.3194 74.0684C69.6675 74.0684 69.0156 74.0684 68.3638 74.0684C67.6576 74.1227 67.4403 74.3395 67.386 75.0442C67.386 75.2068 67.386 75.3694 67.386 75.4779C67.386 76.6162 67.386 77.7004 67.386 78.8388C67.386 80.0314 67.386 81.1697 67.386 82.3623C67.386 83.067 67.1687 83.7175 66.8427 84.368C66.6798 84.6391 66.4625 84.8559 66.1909 85.0185C65.8106 85.2353 65.0501 84.9643 65.0501 83.7175C64.9958 81.8744 65.0501 79.9771 65.0501 78.1341C65.0501 77.6462 64.9958 77.1041 64.8871 76.6162C64.5612 75.3152 63.7464 74.3937 62.5513 73.9058C61.6278 73.5264 60.7586 73.4722 59.8352 73.6348Z" fill="#4A4A4A"/>
<path d="M125.728 86.6991C124.968 86.2654 124.642 85.5607 124.533 84.8018C124.37 83.8802 124.37 83.0129 124.425 82.0914C124.479 79.7062 124.533 77.3211 124.588 74.9359C124.588 74.3396 124.37 74.0686 123.773 74.0686C122.306 74.0686 120.839 74.0686 119.318 74.0686C118.612 74.0686 118.395 74.3396 118.395 75.0443C118.395 76.2369 118.395 77.3753 118.395 78.5678C118.395 78.5678 118.341 81.4951 118.286 82.9587C118.232 83.7176 117.96 84.3681 117.363 84.856C116.874 85.2897 116.385 85.1813 116.168 84.5308C116.059 84.2055 115.95 83.826 115.95 83.4466C115.95 81.6035 115.95 79.8146 115.95 77.9715C115.95 77.5379 115.896 77.1042 115.842 76.6706C115.57 75.2611 114.701 74.2854 113.343 73.7433C112.637 73.4723 111.93 73.4181 111.224 73.5265C110.627 73.5807 110.084 73.7433 109.649 74.1228C109.214 74.5564 108.943 75.0985 109.269 75.749C109.432 76.1285 109.595 76.5621 109.649 76.9958C109.812 78.1342 109.921 79.2725 109.975 80.4109C110.029 81.983 109.975 83.5008 109.975 85.0728C110.029 86.428 110.518 87.5664 111.496 88.4337C112.854 89.6805 114.538 89.7347 116.168 88.8674C117.091 88.3795 118.341 86.9159 118.558 86.5365C118.612 86.6449 118.666 86.7533 118.721 86.8617C119.644 89.3011 122.415 90.2226 124.696 88.8674C125.185 88.5964 125.565 88.2169 125.891 87.6748C126.054 87.2412 126.054 86.8617 125.728 86.6991Z" fill="#4A4A4A"/>
<path d="M58.5858 106.648C58.0969 106.322 57.608 105.943 57.2278 105.509C55.8697 104.154 55.0006 102.42 54.24 100.685C54.1314 100.414 54.1857 100.251 54.4573 100.143C54.7833 99.9259 55.1635 99.7091 55.4895 99.438C56.8475 98.4081 57.4451 97.1071 57.1191 95.4266C56.9562 94.4509 56.4673 93.692 55.6524 93.1499C54.6746 92.5536 53.6425 92.2826 52.5017 92.5536C51.7412 92.7704 51.0893 93.1499 50.6004 93.7462C50.2202 94.234 50.2202 94.6135 50.6004 95.1014C50.8177 95.3724 50.9807 95.6435 51.1437 95.9687C51.5782 96.7276 51.4153 97.595 50.7634 98.137C50.3832 98.4623 49.8943 98.6791 49.4054 98.896C49.1881 99.0044 49.0251 98.9502 48.9708 98.6249C48.9164 97.9202 48.9164 97.2697 48.8621 96.565C48.6448 93.2583 46.146 91.7405 43.0496 92.5536C42.9953 92.5536 42.8867 92.6078 42.8323 92.6078C41.9632 92.9873 41.7459 93.7462 42.2348 94.5051C42.4521 94.8845 42.615 95.3182 42.6694 95.7519C43.1039 98.4623 42.9953 104.696 42.9953 106.214C42.9953 107.136 43.3212 107.569 44.1904 107.569C45.3855 107.569 46.5806 107.569 47.7757 107.569C48.6448 107.569 48.9708 107.298 48.9708 106.377C48.9708 105.672 48.9708 104.967 48.9708 104.263C48.9708 103.504 48.9708 102.745 48.9708 101.986C48.9708 101.877 48.9708 101.606 49.1337 101.606C49.2967 101.606 49.8943 104.425 50.3288 105.455C51.198 107.461 52.5561 108.87 54.8376 109.196C56.3586 109.412 57.7167 109.087 58.7488 107.895C59.292 107.407 59.2377 107.081 58.5858 106.648Z" fill="#4A4A4A"/>
<path d="M108.128 81.4951C108.128 80.4651 107.965 79.4894 107.585 78.4594C106.77 76.4537 105.412 74.9901 103.402 74.2312C101.555 73.4723 99.6535 73.3639 97.6979 73.9059C94.167 74.9359 91.8311 77.9174 91.7225 81.5493C91.6681 83.0129 92.1027 84.3681 92.8632 85.5607C93.7324 86.9159 94.8732 87.9459 96.3399 88.5422C97.8609 89.1927 99.4906 89.4637 101.175 89.2469C103.076 89.03 104.706 88.2711 106.009 86.9159C107.367 85.4523 108.074 83.7176 108.128 81.4951ZM102.044 83.5008C101.935 84.0429 101.663 84.585 101.446 85.0186C100.794 86.2112 99.1103 86.0486 98.5128 84.9102C98.0782 84.0971 97.8609 83.2298 97.8066 82.3082C97.6979 81.1156 97.8066 79.9773 98.1868 78.8389C98.2955 78.4594 98.5128 78.1342 98.73 77.8089C99.3819 76.8332 100.794 76.8874 101.446 77.8631C101.989 78.6763 102.207 79.5436 102.261 80.5193C102.315 80.8446 102.315 81.0072 102.315 81.6035C102.207 82.254 102.152 82.8503 102.044 83.5008Z" fill="#4A4A4A"/>
<path d="M74.0134 97.378C73.1442 95.2639 71.6232 93.8003 69.396 93.0413C68.3095 92.6619 67.2774 92.5535 66.1366 92.5535C63.9637 92.6077 62.0624 93.4208 60.5414 94.9386C58.966 96.4565 58.1512 98.408 58.2055 100.576C58.1512 102.528 58.8031 104.154 60.0525 105.563C61.8995 107.623 64.2896 108.545 67.0601 108.328C68.3638 108.22 69.5589 107.894 70.6997 107.244C72.3837 106.268 73.5788 104.913 74.2306 103.07C74.8825 101.064 74.7739 99.2211 74.0134 97.378ZM68.4725 102.474C68.3638 103.124 68.0922 103.666 67.712 104.208C67.0601 105.021 65.702 104.967 65.1045 104.046C64.7242 103.504 64.5069 102.853 64.344 102.203C64.181 101.66 64.181 101.064 64.181 100.468C64.181 99.3837 64.3983 98.408 64.7242 97.4322C64.8872 96.9443 65.1588 96.5649 65.5391 96.2938C66.4625 95.6975 67.4403 95.9686 67.9836 96.9443C68.3638 97.649 68.5268 98.408 68.6354 99.1669C68.7441 100.305 68.6898 101.389 68.4725 102.474Z" fill="#4A4A4A"/>
<path d="M108.454 102.202C109.432 102.311 110.409 102.365 111.387 102.311C112.691 102.202 113.94 101.931 115.027 101.227C116.602 100.197 117.308 98.4079 116.765 96.5648C116.276 94.8844 115.081 93.8002 113.506 93.1497C111.93 92.4992 110.301 92.3366 108.617 92.6076C107.15 92.8787 105.792 93.3665 104.651 94.3423C102.75 95.9685 101.772 98.0284 101.826 100.522C101.826 100.956 101.826 101.335 101.881 101.769C102.261 103.72 103.239 105.347 104.76 106.648C106.009 107.678 107.422 108.22 108.997 108.382C110.735 108.545 112.365 108.165 113.777 107.19C115.027 106.377 115.95 105.347 116.602 103.991C116.711 103.72 116.765 103.341 116.548 103.178C116.331 103.016 116.059 103.178 115.842 103.232C115.027 103.558 114.158 103.883 113.343 104.154C112.419 104.425 111.496 104.425 110.572 104.208C109.54 103.991 108.834 103.449 108.237 102.582C108.182 102.528 108.128 102.365 108.182 102.257C108.291 102.148 108.399 102.202 108.454 102.202ZM108.237 99.3294C108.019 99.3294 107.911 99.221 107.911 98.95C108.019 97.9742 108.237 97.1069 108.943 96.4022C109.323 96.0227 109.758 95.9143 110.246 95.9685C110.898 96.0227 111.387 96.4564 111.224 97.649C111.17 98.1369 110.898 98.5705 110.464 98.8416C109.921 99.1668 109.214 99.3294 108.562 99.3294C108.454 99.3294 108.345 99.3294 108.237 99.3294Z" fill="#4A4A4A"/>
<path d="M113.18 72.1171C113.56 72.4423 113.995 72.7676 114.429 72.9302C115.679 73.3638 116.982 73.3096 118.286 72.876C119.916 72.3339 120.731 71.1413 120.894 69.5151C120.948 69.0814 120.839 68.6477 120.568 68.2141C120.405 67.943 120.187 67.8888 119.916 68.0514C119.699 68.1599 119.481 68.2683 119.264 68.4309C118.069 69.1898 116.928 69.7319 115.136 69.5693C114.755 69.5151 114.212 69.5693 113.669 69.7319C112.582 70.0571 112.311 71.3039 113.18 72.1171Z" fill="#4A4A4A"/>
<path d="M43.1582 59.7033L44.8965 62.6306L45.3311 62.3595L43.6471 59.4323L44.7336 58.836L44.462 58.4023L41.8545 59.9202L42.1261 60.2996L43.1582 59.7033Z" fill="#4A4A4A"/>
<path d="M48.3189 60.7332L47.5584 59.1611L49.351 58.348L50.1115 59.92L50.6004 59.7032L48.9708 56.2339L48.4275 56.4507L49.1337 57.9143L47.3954 58.7275L46.6892 57.2638L46.2003 57.5349L47.83 61.0042L48.3189 60.7332Z" fill="#4A4A4A"/>
<path d="M54.8376 58.0228L54.6746 57.5349L52.8277 58.2939L52.3388 57.1013L54.0771 56.4508L53.9141 56.0171L52.1758 56.6676L51.7955 55.5834L53.5882 54.8787L53.4252 54.4451L51.0894 55.3124L52.5017 58.8901L54.8376 58.0228Z" fill="#4A4A4A"/>
<path d="M61.1933 56.1255L61.0847 55.6377L59.4007 56.0713L58.5315 52.873L58.0426 52.9815L59.0204 56.7218L61.1933 56.1255Z" fill="#4A4A4A"/>
<path d="M62.515 51.8878L61.9844 52.0039L62.8105 55.7634L63.3411 55.6473L62.515 51.8878Z" fill="#4A4A4A"/>
<path d="M66.8972 54.933L67.7663 50.9216L67.1688 51.03L66.5712 54.3368H66.5169L64.8872 51.4095L64.2897 51.5179L66.4083 55.0415L66.8972 54.933Z" fill="#4A4A4A"/>
<path d="M72.4924 54.2282L72.438 53.7403L70.4824 53.9571L70.3195 52.7103L72.1121 52.4935L72.0578 52.0598L70.2651 52.2225L70.1565 51.0841L72.0578 50.9215L72.0035 50.4336L69.559 50.7046L69.9935 54.4992L72.4924 54.2282Z" fill="#4A4A4A"/>
<path d="M78.6851 54.0114C79.337 54.0114 79.8259 53.7404 80.1518 53.3067L79.7172 53.0357C79.4999 53.3609 79.1197 53.5777 78.6851 53.5777C78.2505 53.5777 77.9246 53.4693 77.653 53.1441C77.3814 52.873 77.2184 52.4936 77.2184 52.0599C77.2184 51.6262 77.327 51.2468 77.5987 50.9757C77.8703 50.7047 78.1962 50.5421 78.6308 50.4879C78.8481 50.4879 79.011 50.5421 79.174 50.5963C79.337 50.6505 79.4999 50.7589 79.6086 50.9215L80.0432 50.5963C79.8802 50.4337 79.7172 50.271 79.4456 50.1626C79.174 50.0542 78.9567 50 78.6851 50C78.0876 50 77.5987 50.2168 77.2184 50.5963C76.8381 50.9757 76.6752 51.4636 76.6752 52.0599C76.6752 52.6562 76.8925 53.1441 77.2727 53.5235C77.5987 53.8488 78.0876 54.0656 78.6851 54.0114Z" fill="#4A4A4A"/>
<path d="M83.6285 54.1197C84.226 54.1739 84.7149 53.9571 85.0952 53.6318C85.4754 53.2524 85.6927 52.8187 85.747 52.2224C85.8014 51.6261 85.5841 51.1383 85.2581 50.7588C84.8779 50.3793 84.389 50.1625 83.8458 50.1083C83.2482 50.0541 82.7593 50.2167 82.3791 50.5962C81.9988 50.9756 81.7815 51.4093 81.7272 52.0056C81.6729 52.6019 81.8902 53.0898 82.2161 53.4692C82.542 53.8487 83.0309 54.1197 83.6285 54.1197ZM82.705 50.9756C82.9766 50.7046 83.3569 50.542 83.7914 50.5962C84.226 50.5962 84.552 50.7588 84.8236 51.0841C85.0952 51.4093 85.2038 51.7888 85.1495 52.2224C85.1495 52.6561 84.9865 53.0356 84.7149 53.3066C84.4433 53.5776 84.0631 53.7403 83.6285 53.6861C83.1939 53.6861 82.868 53.5234 82.5964 53.1982C82.3247 52.8729 82.2161 52.4935 82.2704 52.0598C82.2704 51.6261 82.4334 51.2467 82.705 50.9756Z" fill="#4A4A4A"/>
<path d="M88.2459 52.6561L89.9842 52.873L90.0385 52.3851L88.3002 52.2225L88.4088 51.0299L90.3101 51.2467V50.7588L87.9743 50.4878L87.5397 54.2824L88.0286 54.3908L88.2459 52.6561Z" fill="#4A4A4A"/>
<path d="M92.5374 53.2526L94.2214 53.5236L94.33 53.0899L92.5917 52.7647L92.809 51.6263L94.6559 51.8974L94.7103 51.4637L92.3744 51.03L91.7225 54.8246L92.2114 54.933L92.5374 53.2526Z" fill="#4A4A4A"/>
<path d="M98.4584 55.6918L96.5028 55.2581L96.7744 54.0113L98.5671 54.3908L98.6757 53.9571L96.8831 53.5777L97.1547 52.4393L99.0017 52.873L99.1103 52.4393L96.7201 51.843L95.851 55.5834L98.3498 56.1797L98.4584 55.6918Z" fill="#4A4A4A"/>
<path d="M102.696 56.9387L100.794 56.3424L101.12 55.0956L102.859 55.6377L103.022 55.204L101.283 54.6619L101.609 53.5777L103.456 54.1198L103.565 53.6862L101.229 52.9814L100.142 56.6676L102.587 57.3723L102.696 56.9387Z" fill="#4A4A4A"/>
<path d="M108.345 59.6492C108.943 59.9202 109.486 59.866 109.975 59.595L109.703 59.1613C109.377 59.3781 108.997 59.3781 108.562 59.2155C108.182 59.0529 107.911 58.7818 107.748 58.4024C107.639 58.0229 107.639 57.6435 107.802 57.2098C107.965 56.8303 108.236 56.5051 108.617 56.3425C108.997 56.1798 109.377 56.1798 109.758 56.3425C109.92 56.3967 110.083 56.5051 110.192 56.6677C110.301 56.8303 110.409 56.9388 110.409 57.1014L110.953 56.993C110.898 56.7761 110.79 56.5593 110.572 56.3425C110.355 56.1256 110.138 56.0172 109.92 55.9088C109.377 55.692 108.834 55.6378 108.345 55.8546C107.856 56.0714 107.476 56.3967 107.259 56.9388C107.041 57.4808 106.987 58.0229 107.204 58.5108C107.422 58.9987 107.802 59.4323 108.345 59.6492Z" fill="#4A4A4A"/>
<path d="M112.148 61.4379C112.474 61.6005 112.854 61.6547 113.18 61.5463C113.56 61.4379 113.777 61.221 113.995 60.8416C114.212 60.4621 114.212 60.1369 114.103 59.8116C113.995 59.4864 113.777 59.2153 113.397 58.9985C113.017 58.7816 112.691 58.7816 112.365 58.8901C112.039 58.9985 111.767 59.2153 111.55 59.5406C111.387 59.8658 111.333 60.2453 111.442 60.5705C111.604 61.0042 111.822 61.2752 112.148 61.4379ZM112.039 59.8658C112.148 59.649 112.311 59.4864 112.528 59.3779C112.745 59.2695 112.963 59.3237 113.234 59.4321C113.451 59.5406 113.614 59.7574 113.669 59.9742C113.723 60.1911 113.669 60.4079 113.56 60.6789C113.451 60.8958 113.288 61.0584 113.071 61.1668C112.854 61.2752 112.637 61.221 112.365 61.1126C112.148 61.0042 111.985 60.7874 111.93 60.5705C111.876 60.2995 111.93 60.0826 112.039 59.8658Z" fill="#4A4A4A"/>
<path d="M115.19 63.0641C115.298 63.1183 115.353 63.1183 115.461 63.1183C115.57 63.1183 115.624 63.0641 115.679 62.9557C115.733 62.8472 115.733 62.793 115.733 62.6846C115.733 62.5762 115.679 62.522 115.57 62.4678C115.461 62.4136 115.407 62.4136 115.298 62.4136C115.19 62.4136 115.136 62.4678 115.081 62.5762C115.027 62.6304 115.027 62.7388 115.027 62.8472C115.027 62.9557 115.081 63.0099 115.19 63.0641Z" fill="#4A4A4A"/>
<path d="M62.1168 123.94L64.6157 124.482L64.7243 124.049L62.7687 123.615L63.0403 122.368L64.7786 122.747L64.8873 122.314L63.1489 121.934L63.3662 120.796L65.2675 121.175L65.3762 120.742L62.9317 120.2L62.1168 123.94Z" fill="#4A4A4A"/>
<path d="M67.6576 121.663C67.8206 121.555 67.9836 121.555 68.2009 121.609C68.3638 121.609 68.4725 121.663 68.6354 121.772C68.7441 121.88 68.8527 121.934 68.907 122.097L69.3416 121.772C69.233 121.609 69.1243 121.501 68.907 121.392C68.7441 121.284 68.5268 121.23 68.3095 121.175C68.0922 121.121 67.8749 121.121 67.6576 121.175C67.4403 121.23 67.2774 121.338 67.1144 121.446C66.9514 121.609 66.8428 121.772 66.8428 122.043C66.8428 122.205 66.8428 122.368 66.8428 122.476C66.8971 122.585 66.9514 122.747 67.0058 122.802C67.0601 122.856 67.1687 122.964 67.2774 123.019C67.386 123.073 67.4947 123.127 67.6033 123.235C67.7119 123.29 67.8206 123.344 67.8749 123.398C67.9292 123.452 67.9836 123.452 68.0922 123.561C68.2008 123.615 68.2552 123.669 68.2552 123.723C68.3095 123.777 68.3095 123.832 68.3638 123.94C68.3638 123.994 68.4181 124.103 68.3638 124.211C68.3095 124.428 68.2552 124.591 68.0379 124.645C67.8749 124.753 67.6576 124.753 67.4947 124.753C67.3317 124.699 67.1687 124.645 67.0058 124.536C66.8428 124.428 66.7885 124.32 66.6798 124.157L66.1909 124.428C66.2996 124.645 66.4625 124.807 66.6798 124.916C66.8971 125.024 67.1144 125.133 67.386 125.187C67.7663 125.241 68.0922 125.187 68.3638 125.024C68.6354 124.862 68.7984 124.591 68.907 124.211C68.907 124.048 68.907 123.94 68.907 123.832C68.8527 123.723 68.8527 123.615 68.7984 123.506C68.7441 123.398 68.6898 123.344 68.5811 123.29C68.4725 123.181 68.3638 123.127 68.3095 123.127C68.2552 123.073 68.1465 123.019 67.9836 122.964C67.8749 122.91 67.7663 122.856 67.7119 122.802C67.6576 122.747 67.6033 122.693 67.4947 122.639C67.4403 122.585 67.386 122.476 67.3317 122.422C67.3317 122.368 67.2774 122.26 67.3317 122.151C67.4403 121.88 67.4947 121.772 67.6576 121.663Z" fill="#4A4A4A"/>
<path d="M70.6454 122.097L71.8405 122.205L71.5145 125.566L72.0578 125.621L72.3837 122.26L73.6331 122.368L73.6874 121.88L70.6997 121.609L70.6454 122.097Z" fill="#4A4A4A"/>
<path d="M74.8283 125.133C74.7196 125.133 74.6653 125.133 74.5566 125.241C74.5023 125.295 74.448 125.404 74.448 125.512C74.448 125.62 74.448 125.675 74.5566 125.783C74.611 125.837 74.7196 125.891 74.8283 125.891C74.9369 125.891 74.9912 125.891 75.0999 125.783C75.1542 125.729 75.2085 125.62 75.2085 125.512C75.2085 125.404 75.2085 125.349 75.0999 125.241C74.9912 125.187 74.9369 125.133 74.8283 125.133Z" fill="#4A4A4A"/>
<path d="M79.9346 125.512L81.184 124.265C81.4013 124.048 81.5643 123.886 81.6186 123.723C81.6729 123.561 81.7815 123.344 81.7815 123.127C81.7815 122.802 81.6729 122.531 81.4013 122.314C81.184 122.151 80.8581 122.043 80.5321 122.043C80.2062 122.043 79.9346 122.151 79.7173 122.314C79.5 122.476 79.337 122.747 79.337 123.073L79.8803 123.181C79.9346 122.964 79.9889 122.802 80.0975 122.693C80.2062 122.585 80.3692 122.531 80.5865 122.531C80.8037 122.531 80.9667 122.585 81.0754 122.693C81.184 122.802 81.2926 122.964 81.2926 123.181C81.2926 123.452 81.1297 123.723 80.8581 123.994L79.337 125.512V126H81.8359V125.512H79.9346Z" fill="#4A4A4A"/>
<path d="M86.073 122.802C85.9643 122.531 85.8014 122.26 85.5841 122.097C85.3668 121.934 85.0952 121.826 84.8235 121.88C84.5519 121.88 84.2803 121.988 84.1174 122.205C83.9544 122.422 83.7914 122.639 83.7371 122.964C83.6828 123.289 83.6285 123.615 83.6828 123.994C83.7371 124.59 83.8457 125.078 84.1174 125.404C84.3346 125.783 84.7149 125.946 85.1495 125.891C85.5841 125.837 85.91 125.675 86.073 125.295C86.2903 124.916 86.3446 124.428 86.2903 123.832C86.2359 123.452 86.1816 123.073 86.073 122.802ZM85.747 124.374C85.747 124.536 85.6927 124.699 85.6927 124.862C85.6384 125.024 85.5841 125.187 85.4754 125.295C85.3668 125.404 85.2581 125.458 85.0952 125.458C84.9322 125.458 84.8235 125.404 84.7149 125.349C84.6063 125.241 84.4976 125.133 84.4433 124.97C84.389 124.807 84.3346 124.645 84.2803 124.482C84.226 124.319 84.226 124.157 84.226 123.94C84.226 123.777 84.226 123.561 84.226 123.398C84.226 123.235 84.2803 123.073 84.3346 122.91C84.389 122.747 84.4433 122.585 84.5519 122.476C84.6606 122.368 84.7692 122.314 84.9322 122.314C85.0952 122.314 85.2038 122.368 85.3125 122.422C85.4211 122.531 85.5297 122.639 85.5841 122.802C85.6384 122.964 85.6927 123.127 85.747 123.289C85.8014 123.452 85.8013 123.615 85.8013 123.832C85.747 124.048 85.747 124.211 85.747 124.374Z" fill="#4A4A4A"/>
<path d="M90.3101 122.368C90.2014 122.097 90.0385 121.88 89.7669 121.718C89.5496 121.555 89.278 121.501 89.0063 121.555C88.7347 121.609 88.4631 121.718 88.3002 121.934C88.1372 122.151 88.0285 122.422 87.9742 122.693C87.9199 123.019 87.9199 123.344 87.9742 123.723C88.0285 124.32 88.1915 124.808 88.4631 125.133C88.7347 125.458 89.0607 125.621 89.4952 125.566C89.9298 125.512 90.2014 125.295 90.4187 124.916C90.5817 124.536 90.636 124.049 90.5817 123.452C90.5274 122.964 90.473 122.639 90.3101 122.368ZM90.0385 124.428C89.9841 124.591 89.9298 124.753 89.8755 124.862C89.8212 124.97 89.6582 125.024 89.4952 125.079C89.3323 125.079 89.2236 125.079 89.115 124.97C89.0063 124.862 88.8977 124.753 88.8434 124.591C88.7891 124.428 88.7347 124.265 88.6804 124.103C88.6261 123.94 88.6261 123.778 88.5718 123.561C88.5718 123.398 88.5174 123.181 88.5174 123.019C88.5174 122.856 88.5174 122.693 88.5718 122.531C88.6261 122.368 88.6804 122.205 88.7347 122.097C88.8434 121.989 88.952 121.934 89.115 121.88C89.278 121.88 89.3866 121.88 89.4952 121.989C89.6039 122.097 89.7125 122.205 89.7669 122.368C89.8212 122.531 89.8755 122.693 89.9298 122.856C89.9841 123.019 89.9841 123.181 90.0385 123.398C90.0385 123.561 90.0928 123.778 90.0928 123.94C90.0928 124.103 90.0385 124.265 90.0385 124.428Z" fill="#4A4A4A"/>
<path d="M94.3843 122.531C94.1127 122.368 93.7868 122.314 93.4065 122.368C93.2436 122.422 93.0806 122.477 92.9176 122.531L92.7547 121.555L94.33 121.284L94.2214 120.85L92.1571 121.23L92.483 123.236C92.7003 123.073 92.9719 122.91 93.2979 122.856C93.5695 122.802 93.7868 122.856 93.9497 122.964C94.167 123.073 94.2757 123.29 94.33 123.561C94.3843 123.778 94.33 123.994 94.2214 124.211C94.1127 124.374 93.9497 124.482 93.6781 124.537C93.5152 124.591 93.3522 124.537 93.1892 124.482C93.0263 124.428 92.9176 124.32 92.809 124.157L92.3744 124.428C92.5374 124.645 92.7003 124.808 92.9176 124.916C93.1349 125.024 93.4065 125.024 93.6781 124.97C94.0584 124.916 94.33 124.699 94.5473 124.428C94.7646 124.157 94.8189 123.832 94.7646 123.398C94.8189 122.964 94.6559 122.693 94.3843 122.531Z" fill="#4A4A4A"/>
<path d="M100.197 121.826C100.677 121.826 101.066 121.438 101.066 120.959C101.066 120.48 100.677 120.091 100.197 120.091C99.7168 120.091 99.3276 120.48 99.3276 120.959C99.3276 121.438 99.7168 121.826 100.197 121.826Z" fill="#4A4A4A"/>
<path d="M57.6081 121.826C58.0881 121.826 58.4772 121.438 58.4772 120.959C58.4772 120.48 58.0881 120.091 57.6081 120.091C57.128 120.091 56.7389 120.48 56.7389 120.959C56.7389 121.438 57.128 121.826 57.6081 121.826Z" fill="#4A4A4A"/>
<path d="M120.133 92.6618C120.242 92.5534 120.296 92.445 120.296 92.2823C120.296 92.0655 120.242 91.9029 120.079 91.8487C119.916 91.7402 119.753 91.686 119.536 91.686H118.829V93.8544H119.155V92.8786H119.481L120.024 93.8544H120.405L119.807 92.8244C119.916 92.8244 120.024 92.7702 120.133 92.6618ZM119.101 92.6076V91.9029H119.481C119.807 91.9029 119.97 92.0113 119.97 92.2281C119.97 92.445 119.807 92.5534 119.481 92.5534H119.101V92.6076Z" fill="#4A4A4A"/>
<path d="M119.427 90.5479C118.232 90.5479 117.254 91.5236 117.254 92.7162C117.254 93.9088 118.232 94.8845 119.427 94.8845C120.622 94.8845 121.6 93.9088 121.6 92.7162C121.6 91.5236 120.622 90.5479 119.427 90.5479ZM119.427 94.3966C118.503 94.3966 117.797 93.6377 117.797 92.7704C117.797 91.9031 118.558 91.1441 119.427 91.1441C120.35 91.1441 121.057 91.9031 121.057 92.7704C121.057 93.6377 120.35 94.3966 119.427 94.3966Z" fill="#4A4A4A"/>
</g>
<defs>
<clipPath id="clip0_2029_68">
<rect width="93" height="76" fill="white" transform="translate(33 50)"/>
</clipPath>
</defs>
</svg>
