<svg width="403" height="349" viewBox="0 0 403 349" fill="none" xmlns="http://www.w3.org/2000/svg">
<path d="M389.007 324.773L391.524 329.133L391.092 329.383L393.608 333.742L394.041 333.492L396.558 337.852H396.559L396.126 338.102L398.643 342.461L399.075 342.211V342.21L401.592 346.57L401.159 346.82L401.984 348.25H400.334V348.75H395.301V348.25H390.267V348.75H385.232V348.25H380.199V348.75H375.165V348.25H370.132V348.75H365.098V348.25H360.064V348.75H355.03V348.25H349.996V348.75H344.963V348.25H339.929V348.75H334.896V348.25H329.861V348.75H324.827V348.25H319.794V348.75H314.76V348.25H309.727V348.75H304.692V348.25H299.658V348.75H294.625V348.25H289.591V348.75H284.558V348.25H279.523V348.75H274.489V348.25H269.456V348.75H264.422V348.25H259.389V348.75H254.354V348.25H249.32V348.75H244.287V348.25H239.253V348.75H234.22V348.25H229.186V348.75H224.152V348.25H219.118V348.75H214.084V348.25H209.051V348.75H204.017V348.25H198.983V348.75H193.949V348.25H188.916V348.75H183.882V348.25H178.848V348.75H173.814V348.25H168.78V348.75H163.747V348.25H158.713V348.75H153.679V348.25H148.646V348.75H143.611V348.25H138.578V348.75H133.544V348.25H128.511V348.75H123.477V348.25H118.442V348.75H113.409V348.25H108.375V348.75H103.342V348.25H98.3076V348.75H93.2734V348.25H88.2402V348.75H83.2061V348.25H78.1729V348.75H73.1387V348.25H68.1055V348.75H63.0713V348.25H58.0371V348.75H53.0039V348.25H47.9697V348.75H42.9365V348.25H37.9023V348.75H32.8682V348.25H27.835V348.75H22.8008V348.25H17.7676V348.75H12.7334V348.25H7.7002V348.75H2.66602V348.25H1.01562L1.84082 346.82L1.40723 346.57L3.92383 342.21L3.9248 342.211L4.35742 342.461L6.87402 338.102L6.44141 337.852L8.95801 333.492L9.3916 333.742L11.9082 329.383L11.4746 329.133L13.9922 324.773L14.4248 325.023L16.9414 320.664L16.5088 320.414L19.0254 316.055L19.459 316.305L21.9756 311.945L21.543 311.695L21.542 311.694L24.0596 307.336L24.4922 307.586L27.0098 303.227L26.5762 302.977L29.0928 298.617L29.5264 298.867L32.043 294.508L31.6104 294.258L34.127 289.898L34.5596 290.148L37.0771 285.789L36.6436 285.539L39.1602 281.179L39.1611 281.18L39.5938 281.43L42.1104 277.07L41.6777 276.82L44.1943 272.461L44.6279 272.711L47.1445 268.352L46.7119 268.102L46.7109 268.101L49.2285 263.742L49.6611 263.992L52.1787 259.633L51.7451 259.383L54.2617 255.023L54.6953 255.273L57.2119 250.914L56.7793 250.664L56.7783 250.663L59.2959 246.305L59.7285 246.555L62.2461 242.195L61.8125 241.945L64.3291 237.585L64.3301 237.586L64.7627 237.836L67.2793 233.477L66.8467 233.227L69.3633 228.867L69.7969 229.117L72.3135 224.758L71.8809 224.508L71.8799 224.507L74.3965 220.147L74.3975 220.148L74.8301 220.398L77.3477 216.039L76.9141 215.789L79.4307 211.43L79.8643 211.68L82.3809 207.32L81.9482 207.07L81.9473 207.069L84.4648 202.711L84.8975 202.961L87.415 198.602L86.9814 198.352L89.498 193.991L89.499 193.992L89.9316 194.242L92.4482 189.883L92.0156 189.633L92.0146 189.632L94.5322 185.273L94.9658 185.523L97.4824 181.164L97.0488 180.914L99.5654 176.554L99.5664 176.555L99.999 176.805L102.516 172.445L102.083 172.195L104.6 167.836L105.033 168.086L107.55 163.727L107.117 163.477L107.116 163.476L109.634 159.117L110.066 159.367L112.584 155.008L112.15 154.758L114.667 150.398L115.101 150.648L117.617 146.289L117.185 146.039L117.184 146.038L119.701 141.68L120.134 141.93L122.651 137.57L122.218 137.32L124.734 132.96L124.735 132.961L125.168 133.211L127.685 128.852L127.252 128.602L129.769 124.242L130.202 124.492L132.719 120.133L132.285 119.883L134.802 115.522L134.803 115.523L135.235 115.773L137.752 111.414L137.319 111.164L139.836 106.805L140.27 107.055L142.786 102.695L142.354 102.445L142.353 102.444L144.87 98.0859L145.303 98.3359L147.82 93.9766L147.387 93.7266L149.903 89.3662L149.904 89.3672L150.337 89.6172L152.854 85.2578L152.421 85.0078L152.42 85.0068L154.938 80.6484L155.371 80.8984L157.888 76.5391L157.454 76.2891L159.971 71.9287L159.972 71.9297L160.404 72.1797L162.921 67.8203L162.488 67.5703L165.005 63.2109L165.438 63.4609L167.955 59.1016L167.522 58.8516L167.521 58.8506L170.038 54.4912L170.039 54.4922L170.472 54.7422L172.989 50.3828L172.556 50.1328L175.072 45.7734L175.506 46.0234L178.022 41.6641L177.59 41.4141L177.589 41.4131L180.106 37.0547L180.539 37.3047L183.057 32.9453L182.623 32.6953L185.14 28.335L185.141 28.3359L185.573 28.5859L188.09 24.2266L187.657 23.9766L187.656 23.9756L190.174 19.6172L190.607 19.8672L193.124 15.5078L192.69 15.2578L195.207 10.8975L195.208 10.8984L195.641 11.1484L198.157 6.78906L197.725 6.53906L200.241 2.17969L200.675 2.42969L201.5 0.999023L202.325 2.42969L202.758 2.17969L205.274 6.53906H205.275L204.842 6.78906L207.359 11.1484L207.792 10.8984V10.8975L210.309 15.2568V15.2578L209.876 15.5078L212.393 19.8672L212.825 19.6172L215.343 23.9756V23.9766L214.91 24.2266L217.427 28.5859L217.859 28.3359V28.335L220.376 32.6953H220.377L219.943 32.9453L222.461 37.3047L222.893 37.0547L225.41 41.4131V41.4141L224.978 41.6641L227.494 46.0234L227.927 45.7734L230.443 50.1328H230.444L230.011 50.3828L232.528 54.7422L232.961 54.4922V54.4912L235.478 58.8506V58.8516L235.045 59.1016L237.562 63.4609L237.994 63.2109L240.511 67.5703H240.512L240.079 67.8203L242.596 72.1797L243.028 71.9297V71.9287L245.545 76.2891H245.546L245.112 76.5391L247.629 80.8984L248.062 80.6484L250.579 85.0068V85.0078L250.146 85.2578L252.663 89.6172L253.096 89.3672V89.3662L255.612 93.7266H255.613L255.18 93.9766L257.697 98.3359L258.129 98.0859L260.646 102.444V102.445L260.214 102.695L262.73 107.055L263.163 106.805L265.68 111.164H265.681L265.248 111.414L267.765 115.773L268.197 115.523V115.522L270.714 119.883L270.281 120.133L272.798 124.492L273.23 124.242L275.747 128.602H275.748L275.315 128.852L277.832 133.211L278.265 132.961V132.96L280.781 137.32H280.782L280.349 137.57L282.866 141.93L283.298 141.68L285.815 146.038V146.039L285.383 146.289L287.899 150.648L288.332 150.398L290.849 154.758H290.85L290.416 155.008L292.934 159.367L293.365 159.117L295.883 163.476V163.477L295.45 163.727L297.967 168.086L298.399 167.836L300.916 172.195H300.917L300.484 172.445L303.001 176.805L303.434 176.555V176.554L305.95 180.914L305.518 181.164L308.034 185.523L308.467 185.273L310.984 189.632V189.633L310.552 189.883L313.068 194.242L313.501 193.992V193.991L316.018 198.352H316.019L315.585 198.602L318.103 202.961L318.534 202.711L321.052 207.069V207.07L320.619 207.32L323.136 211.68L323.568 211.43L326.085 215.789H326.086L325.653 216.039L328.17 220.398L328.603 220.148V220.147L331.119 224.508L330.687 224.758L333.203 229.117L333.636 228.867L336.152 233.227H336.153L335.721 233.477L338.237 237.836L338.67 237.586V237.585L341.187 241.945L340.754 242.195L343.271 246.555L343.703 246.305L346.221 250.663V250.664L345.788 250.914L348.305 255.273L348.737 255.023L351.254 259.383H351.255L350.821 259.633L353.339 263.992L353.771 263.742L356.288 268.101V268.102L355.855 268.352L358.372 272.711L358.805 272.461L361.321 276.82H361.322L360.89 277.07L363.406 281.43L363.839 281.18V281.179L366.355 285.539L365.923 285.789L368.439 290.148L368.872 289.898L371.389 294.258H371.39L370.957 294.508L373.474 298.867L373.906 298.617V298.616L376.423 302.977L375.99 303.227L378.508 307.586L378.939 307.336L381.457 311.694V311.695L381.024 311.945L383.541 316.305L383.974 316.055L386.49 320.414H386.491L386.059 320.664L388.575 325.023L389.007 324.773Z" stroke="#B3B3B3" stroke-dasharray="5 5"/>
</svg>
