<svg width="1185" height="69" viewBox="0 0 1185 69" fill="none" xmlns="http://www.w3.org/2000/svg">
<line x1="5" y1="46.5" x2="1165" y2="46.5" stroke="#8C8C8C"/>
<path d="M164.03 65H168.08L168.25 64.14H166.71L167.92 57.94H167.04L165 59.59L165.51 60.27L166.28 59.64C166.59 59.39 166.7 59.23 166.7 59.23H166.72C166.72 59.23 166.67 59.44 166.62 59.66L165.74 64.14H164.18L164.03 65ZM169.527 62.58H172.437L172.597 61.72H169.687L169.527 62.58ZM173.463 64.16C174.013 64.81 174.863 65.12 175.713 65.12C177.303 65.12 178.443 63.91 178.443 62.6C178.443 61.33 177.403 60.89 176.733 60.83L179.083 58.57L179.203 57.94H174.983L174.823 58.8H177.143C177.533 58.8 177.753 58.77 177.753 58.77V58.79C177.753 58.79 177.493 58.98 177.213 59.25L175.363 61.06L175.483 61.59H176.033C176.833 61.59 177.443 61.92 177.443 62.64C177.443 63.51 176.633 64.18 175.713 64.18C174.933 64.18 174.393 63.83 174.073 63.47L173.463 64.16ZM183.246 64.71C183.296 64.45 183.306 64.24 183.306 64.24H183.326C183.586 64.83 184.176 65.12 184.846 65.12C186.236 65.12 187.596 63.81 187.596 61.9C187.596 60.63 186.896 59.82 185.696 59.82C184.906 59.82 184.286 60.25 183.936 60.77H183.916C183.916 60.77 183.986 60.57 184.026 60.37L184.096 59.94H183.206L181.836 67H182.796L183.246 64.71ZM183.606 62.98C183.606 61.8 184.426 60.67 185.456 60.67C186.176 60.67 186.606 61.16 186.606 61.97C186.606 63.42 185.606 64.28 184.736 64.28C183.966 64.28 183.606 63.69 183.606 62.98ZM188.052 65.42H188.962L193.032 57.56H192.112L188.052 65.42ZM193.718 64.2C194.508 63.27 194.878 61.76 195.038 61L195.088 60.73H196.618L195.948 64.2H193.718ZM191.698 66.2H192.608L192.838 65H196.578L196.348 66.2H197.238L197.628 64.2H196.908L197.738 59.94H194.318L194.128 60.94C193.988 61.65 193.618 63.21 192.648 64.2H192.078L191.698 66.2Z" fill="#8C8C8C"/>
<path d="M5.3 62.92C5.3 64.22 6.22 65.12 7.68 65.12C8.44 65.12 9.25 64.8 9.74 64.37L9.46 63.6C8.99 63.99 8.38 64.28 7.77 64.28C6.87 64.28 6.29 63.69 6.29 62.85C6.29 61.63 7.33 60.66 8.47 60.66C8.95 60.66 9.48 60.86 9.79 61.18L10.33 60.55C9.86 60.04 9.11 59.82 8.42 59.82C6.75 59.82 5.3 61.19 5.3 62.92ZM12.039 65H13.009L13.829 60.77H15.589L15.749 59.94H11.259L11.099 60.77H12.859L12.039 65ZM15.7127 63.82C15.7127 64.65 16.4027 65.12 17.2027 65.12C18.1027 65.12 18.7327 64.48 18.9527 64.09H18.9727C18.9727 64.09 18.9127 64.26 18.8727 64.49L18.7727 65H19.6827L20.2927 61.84C20.3227 61.64 20.3427 61.46 20.3427 61.3C20.3427 60.22 19.5327 59.82 18.5827 59.82C17.8327 59.82 17.0427 60.1 16.6727 60.35L16.9327 61.12C17.3727 60.84 17.9227 60.64 18.4427 60.64C19.1227 60.64 19.3627 60.95 19.3627 61.42C19.3627 61.54 19.3627 61.63 19.3227 61.85H19.0627C17.6927 61.85 15.7127 62.22 15.7127 63.82ZM16.6727 63.68C16.6727 62.64 18.2227 62.55 18.9427 62.55H19.1927L19.1627 62.73C18.9927 63.48 18.2927 64.35 17.4927 64.35C16.9127 64.35 16.6727 64.03 16.6727 63.68ZM22.3469 64.71C22.3969 64.45 22.4069 64.24 22.4069 64.24H22.4269C22.6869 64.83 23.2769 65.12 23.9469 65.12C25.3369 65.12 26.6969 63.81 26.6969 61.9C26.6969 60.63 25.9969 59.82 24.7969 59.82C24.0069 59.82 23.3869 60.25 23.0369 60.77H23.0169C23.0169 60.77 23.0869 60.57 23.1269 60.37L23.1969 59.94H22.3069L20.9369 67H21.8969L22.3469 64.71ZM22.7069 62.98C22.7069 61.8 23.5269 60.67 24.5569 60.67C25.2769 60.67 25.7069 61.16 25.7069 61.97C25.7069 63.42 24.7069 64.28 23.8369 64.28C23.0669 64.28 22.7069 63.69 22.7069 62.98ZM28.5862 65H29.5562L30.3762 60.77H32.1362L32.2962 59.94L27.8062 59.94L27.6462 60.77H29.4062L28.5862 65Z" fill="#8C8C8C"/>
<path d="M320.01 61.16C320.56 61.81 321.41 62.12 322.26 62.12C323.85 62.12 324.99 60.91 324.99 59.6C324.99 58.33 323.95 57.89 323.28 57.83L325.63 55.57L325.75 54.94H321.53L321.37 55.8H323.69C324.08 55.8 324.3 55.77 324.3 55.77V55.79C324.3 55.79 324.04 55.98 323.76 56.25L321.91 58.06L322.03 58.59H322.58C323.38 58.59 323.99 58.92 323.99 59.64C323.99 60.51 323.18 61.18 322.26 61.18C321.48 61.18 320.94 60.83 320.62 60.47L320.01 61.16ZM326.493 59.58H329.403L329.563 58.72H326.653L326.493 59.58ZM330.53 61.14C331 61.79 331.81 62.12 332.62 62.12C334.21 62.12 335.51 60.92 335.51 59.47C335.51 58.27 334.64 57.44 333.43 57.44C332.88 57.44 332.5 57.63 332.5 57.63H332.48C332.48 57.63 332.56 57.4 332.6 57.27L333.05 55.8H335.76L335.92 54.94H332.33L331.29 58.43L331.86 58.65C331.86 58.65 332.41 58.3 333.12 58.3C333.92 58.3 334.49 58.76 334.49 59.51C334.49 60.43 333.62 61.18 332.64 61.18C331.95 61.18 331.45 60.83 331.17 60.47L330.53 61.14ZM340.203 61.71C340.253 61.45 340.263 61.24 340.263 61.24H340.283C340.543 61.83 341.133 62.12 341.803 62.12C343.193 62.12 344.553 60.81 344.553 58.9C344.553 57.63 343.853 56.82 342.653 56.82C341.863 56.82 341.243 57.25 340.893 57.77H340.873C340.873 57.77 340.943 57.57 340.983 57.37L341.053 56.94H340.163L338.793 64H339.753L340.203 61.71ZM340.563 59.98C340.563 58.8 341.383 57.67 342.413 57.67C343.133 57.67 343.563 58.16 343.563 58.97C343.563 60.42 342.563 61.28 341.693 61.28C340.923 61.28 340.563 60.69 340.563 59.98ZM345.009 62.42H345.919L349.989 54.56H349.069L345.009 62.42ZM350.675 61.2C351.465 60.27 351.835 58.76 351.995 58L352.045 57.73H353.575L352.905 61.2H350.675ZM348.655 63.2H349.565L349.795 62H353.535L353.305 63.2H354.195L354.585 61.2H353.865L354.695 56.94H351.275L351.085 57.94C350.945 58.65 350.575 60.21 349.605 61.2H349.035L348.655 63.2Z" fill="#8C8C8C"/>
<path d="M488.03 62H492.08L492.25 61.14H490.71L491.92 54.94H491.04L489 56.59L489.51 57.27L490.28 56.64C490.59 56.39 490.7 56.23 490.7 56.23H490.72C490.72 56.23 490.67 56.44 490.62 56.66L489.74 61.14H488.18L488.03 62ZM493.712 59.79C493.712 61.17 494.262 62.12 495.792 62.12C498.202 62.12 498.992 58.96 498.992 57.15C498.992 55.77 498.462 54.82 496.912 54.82C494.502 54.82 493.712 57.98 493.712 59.79ZM494.722 59.77C494.722 58.22 495.362 55.73 496.882 55.73C497.692 55.73 497.972 56.31 497.972 57.19C497.972 58.6 497.402 61.21 495.822 61.21C495.012 61.21 494.722 60.63 494.722 59.77ZM503.472 61.71C503.522 61.45 503.532 61.24 503.532 61.24H503.552C503.812 61.83 504.402 62.12 505.072 62.12C506.462 62.12 507.822 60.81 507.822 58.9C507.822 57.63 507.122 56.82 505.922 56.82C505.132 56.82 504.512 57.25 504.162 57.77H504.142C504.142 57.77 504.212 57.57 504.252 57.37L504.322 56.94H503.432L502.062 64H503.022L503.472 61.71ZM503.832 59.98C503.832 58.8 504.652 57.67 505.682 57.67C506.402 57.67 506.832 58.16 506.832 58.97C506.832 60.42 505.832 61.28 504.962 61.28C504.192 61.28 503.832 60.69 503.832 59.98ZM508.278 62.42H509.188L513.258 54.56H512.338L508.278 62.42ZM513.944 61.2C514.734 60.27 515.104 58.76 515.264 58L515.314 57.73H516.844L516.174 61.2L513.944 61.2ZM511.924 63.2H512.834L513.064 62L516.804 62L516.574 63.2H517.464L517.854 61.2H517.134L517.964 56.94H514.544L514.354 57.94C514.214 58.65 513.844 60.21 512.874 61.2H512.304L511.924 63.2Z" fill="#8C8C8C"/>
<path d="M915.07 62H919.61L919.78 61.14H916.32C916.46 60.46 917.21 60 918.07 59.48C919.22 58.79 920.54 58.03 920.54 56.64C920.54 55.49 919.64 54.82 918.52 54.82C917.4 54.82 916.59 55.47 916.11 56.09L916.81 56.65C917.19 56.13 917.78 55.75 918.43 55.75C919.06 55.75 919.52 56.11 919.52 56.74C919.52 57.64 918.58 58.13 917.54 58.76C916.34 59.5 915.09 60.33 915.07 62ZM921.542 59.79C921.542 61.17 922.092 62.12 923.622 62.12C926.032 62.12 926.822 58.96 926.822 57.15C926.822 55.77 926.292 54.82 924.742 54.82C922.332 54.82 921.542 57.98 921.542 59.79ZM922.552 59.77C922.552 58.22 923.192 55.73 924.712 55.73C925.522 55.73 925.802 56.31 925.802 57.19C925.802 58.6 925.232 61.21 923.652 61.21C922.842 61.21 922.552 60.63 922.552 59.77ZM931.302 61.71C931.352 61.45 931.362 61.24 931.362 61.24H931.382C931.642 61.83 932.232 62.12 932.902 62.12C934.292 62.12 935.652 60.81 935.652 58.9C935.652 57.63 934.952 56.82 933.752 56.82C932.962 56.82 932.342 57.25 931.992 57.77H931.972C931.972 57.77 932.042 57.57 932.082 57.37L932.152 56.94H931.262L929.892 64H930.852L931.302 61.71ZM931.662 59.98C931.662 58.8 932.482 57.67 933.512 57.67C934.232 57.67 934.662 58.16 934.662 58.97C934.662 60.42 933.662 61.28 932.792 61.28C932.022 61.28 931.662 60.69 931.662 59.98ZM936.108 62.42H937.018L941.088 54.56H940.168L936.108 62.42ZM941.774 61.2C942.564 60.27 942.934 58.76 943.094 58L943.144 57.73H944.674L944.004 61.2L941.774 61.2ZM939.754 63.2H940.664L940.894 62L944.634 62L944.404 63.2H945.294L945.684 61.2H944.964L945.794 56.94H942.374L942.184 57.94C942.044 58.65 941.674 60.21 940.704 61.2H940.134L939.754 63.2Z" fill="#8C8C8C"/>
<path d="M1135.14 60.11H1138.55L1138.18 62H1139.16L1139.53 60.11H1140.48L1140.65 59.28H1139.69L1140.53 54.94H1139.31L1135.26 59.49L1135.14 60.11ZM1136.46 59.28V59.26L1138.91 56.58C1139.14 56.32 1139.37 55.99 1139.37 55.99H1139.39C1139.39 55.99 1139.28 56.37 1139.22 56.7L1138.72 59.28H1136.46ZM1141.89 59.79C1141.89 61.17 1142.44 62.12 1143.97 62.12C1146.38 62.12 1147.17 58.96 1147.17 57.15C1147.17 55.77 1146.64 54.82 1145.09 54.82C1142.68 54.82 1141.89 57.98 1141.89 59.79ZM1142.9 59.77C1142.9 58.22 1143.54 55.73 1145.06 55.73C1145.87 55.73 1146.15 56.31 1146.15 57.19C1146.15 58.6 1145.58 61.21 1144 61.21C1143.19 61.21 1142.9 60.63 1142.9 59.77ZM1151.65 61.71C1151.7 61.45 1151.71 61.24 1151.71 61.24H1151.73C1151.99 61.83 1152.58 62.12 1153.25 62.12C1154.64 62.12 1156 60.81 1156 58.9C1156 57.63 1155.3 56.82 1154.1 56.82C1153.31 56.82 1152.69 57.25 1152.34 57.77H1152.32C1152.32 57.77 1152.39 57.57 1152.43 57.37L1152.5 56.94H1151.61L1150.24 64H1151.2L1151.65 61.71ZM1152.01 59.98C1152.01 58.8 1152.83 57.67 1153.86 57.67C1154.58 57.67 1155.01 58.16 1155.01 58.97C1155.01 60.42 1154.01 61.28 1153.14 61.28C1152.37 61.28 1152.01 60.69 1152.01 59.98ZM1156.46 62.42H1157.37L1161.44 54.56H1160.52L1156.46 62.42ZM1162.13 61.2C1162.92 60.27 1163.29 58.76 1163.45 58L1163.5 57.73H1165.03L1164.36 61.2L1162.13 61.2ZM1160.11 63.2H1161.02L1161.25 62L1164.99 62L1164.76 63.2H1165.65L1166.04 61.2H1165.32L1166.15 56.94H1162.73L1162.54 57.94C1162.4 58.65 1162.03 60.21 1161.06 61.2H1160.49L1160.11 63.2Z" fill="#8C8C8C"/>
<line x1="5.5" y1="41" x2="5.5" y2="52" stroke="#8C8C8C"/>
<line x1="11" y1="47" x2="-4.37114e-08" y2="47" stroke="#8C8C8C"/>
<line x1="166.5" y1="41" x2="166.5" y2="52" stroke="#8C8C8C"/>
<line x1="172" y1="47" x2="161" y2="47" stroke="#8C8C8C"/>
<line x1="334.5" y1="41" x2="334.5" y2="52" stroke="#8C8C8C"/>
<line x1="340" y1="47" x2="329" y2="47" stroke="#8C8C8C"/>
<line x1="934.5" y1="41" x2="934.5" y2="52" stroke="#8C8C8C"/>
<line x1="940" y1="47" x2="929" y2="47" stroke="#8C8C8C"/>
<line x1="502.5" y1="41" x2="502.5" y2="52" stroke="#8C8C8C"/>
<line x1="508" y1="47" x2="497" y2="47" stroke="#8C8C8C"/>
<line x1="1164.5" y1="40" x2="1164.5" stroke="#B3B3B3"/>
<path d="M1184 0.5L1178.6 7.7002L1178.38 8L1178.6 8.2998L1184 15.5H1165.5V0.5H1184Z" stroke="#B3B3B3"/>
</svg>
