<svg width="18" height="16" viewBox="0 0 18 16" fill="none" xmlns="http://www.w3.org/2000/svg">
<path fill-rule="evenodd" clip-rule="evenodd" d="M16.4377 11.3907C16.0117 11.1784 13.917 10.1526 13.5265 10.011C13.136 9.86954 12.852 9.79881 12.5679 10.2233C12.2839 10.6478 11.4674 11.603 11.2188 11.8859C10.9704 12.1689 10.7218 12.2043 10.2958 11.9921C9.86974 11.7798 8.49698 11.3321 6.86962 9.88743C5.60314 8.76313 4.74802 7.3744 4.49951 6.94993C4.251 6.5254 4.47309 6.29587 4.68636 6.08451C4.87799 5.89451 5.11239 5.58926 5.32542 5.34161C5.53841 5.09401 5.60941 4.91713 5.75141 4.63416C5.89345 4.35115 5.82245 4.1035 5.71593 3.89126C5.60941 3.67902 4.7574 1.59186 4.40232 0.742858C4.05653 -0.0839989 3.70526 0.0278757 3.44375 0.0149315C3.19551 0.0026345 2.9112 0 2.62721 0C2.34318 0 1.88163 0.106142 1.49108 0.530619C1.10057 0.955143 0 1.98102 0 4.06813C0 6.15525 1.5266 8.17158 1.73964 8.4546C1.95263 8.73761 4.74384 13.0207 9.01768 14.8574C10.0342 15.2943 10.8278 15.5552 11.4465 15.7507C12.4671 16.0734 13.3959 16.0278 14.13 15.9187C14.9486 15.797 16.6507 14.8929 17.0057 13.9023C17.3608 12.9118 17.3608 12.0628 17.2543 11.886C17.1478 11.7091 16.8638 11.603 16.4377 11.3907Z" fill="#F1F1F2"/>
</svg>
